<svg width="24" height="24" viewBox="0 0 24 24" fill="none" xmlns="http://www.w3.org/2000/svg">
<g clip-path="url(#clip0_202_596)">
<rect width="24" height="24" fill="white"/>
<path fill-rule="evenodd" clip-rule="evenodd" d="M22.0991 3.92772L22.1084 3.91861C22.6658 3.03982 23.3578 2.2703 24.1799 1.62373V-7.91098H22.2152V-17.9921C23.4321 -18.4155 24.3006 -19.5539 24.3006 -20.8926C24.3006 -22.591 22.898 -23.9661 21.1656 -23.9661C19.4332 -23.9661 18.0259 -22.591 18.0259 -20.8926C18.0259 -19.5675 18.8805 -18.4383 20.0788 -18.0057V-7.88366H18.0259V-5.87108H22.0991V3.92772ZM21.1656 -20.0047C20.65 -20.0047 20.2367 -20.4145 20.2367 -20.9153C20.2367 -21.4162 20.6547 -21.826 21.1656 -21.826C21.6811 -21.826 22.0945 -21.4162 22.0945 -20.9153C22.0945 -20.4145 21.6765 -20.0047 21.1656 -20.0047Z" fill="url(#paint0_linear_202_596)"/>
<path fill-rule="evenodd" clip-rule="evenodd" d="M10.4466 -2.30129H2.97357V-11.8451C1.75671 -12.2686 0.888184 -13.4069 0.888184 -14.741C0.888184 -16.444 2.29083 -17.8191 4.02324 -17.8191C5.76029 -17.8191 7.16293 -16.4394 7.16293 -14.741C7.16293 -13.4251 6.32227 -12.305 5.13792 -11.8633V-4.3594H20.0747V3.8002C19.5359 2.98059 18.8764 2.26116 18.1101 1.65102V-2.33771H16.4427V0.585535C15.7646 0.244034 15.0308 -0.033721 14.2505 -0.243175V-2.3195H12.6202V-0.571016C11.9236 -0.67119 11.1944 -0.721276 10.4466 -0.721276V-2.30129ZM4.96143 -14.7683C4.96143 -15.2692 4.54342 -15.679 4.02788 -15.679C3.51234 -15.679 3.09433 -15.2692 3.09898 -14.7683C3.09898 -14.2675 3.51234 -13.8577 4.02788 -13.8577C4.54342 -13.8577 4.96143 -14.2629 4.96143 -14.7683Z" fill="url(#paint1_linear_202_596)"/>
<path fill-rule="evenodd" clip-rule="evenodd" d="M33.4043 22.6737C39.0474 14.3456 39.4422 7.17406 39.2564 0.398682C39.2564 0.398682 37.8259 1.96959 33.9524 1.46417C29.0292 0.822144 23.4929 2.25189 22.6569 8.56739V13.271C22.6569 13.271 23.9342 10.4388 27.9238 11.2539C31.8205 12.0507 34.6862 9.92883 36.4651 7.67493C36.4651 7.67493 35.9263 15.6524 31.0124 21.7038C26.8602 26.8126 24.6541 27.7324 22.2343 28.3653C21.5654 28.5384 20.8641 28.5384 20.1953 28.3699C17.7384 27.737 15.4161 26.8263 11.2593 21.7083C6.34535 15.6569 5.80659 7.67948 5.80659 7.67948C7.58544 9.92884 10.4511 12.0552 14.3479 11.2584C18.3329 10.4434 19.6147 13.2755 19.6147 13.2755V8.57194C18.7787 2.25645 13.2425 0.826696 8.31927 1.46872C4.45038 1.97414 3.01523 0.403237 3.01523 0.403237C2.8248 7.17862 3.22423 14.3501 8.86733 22.6782C12.3832 27.869 16.5679 29.8725 19.0528 30.6375C20.4601 31.07 21.9695 31.07 23.3722 30.6283C25.8059 29.8497 29.9024 27.8371 33.4043 22.6737ZM31.1285 8.54462C29.6398 8.87633 28.6093 8.71341 27.6689 8.56475L27.6684 8.5647C27.5763 8.55013 27.4851 8.53569 27.3943 8.52185C26.6512 8.40802 25.4622 8.39436 24.8027 8.90433C24.8027 8.90433 25.6294 5.41192 28.6994 4.90194C29.9514 4.69495 30.7464 4.87621 31.939 5.14818C32.609 5.30095 33.4046 5.48236 34.4772 5.63958C34.4865 5.64414 32.7634 8.18035 31.1285 8.54462ZM13.6512 4.90649C16.7212 5.41647 17.5479 8.90889 17.5479 8.90889C16.8931 8.39891 15.6994 8.41257 14.9563 8.5264C14.8654 8.54025 14.774 8.55473 14.6817 8.5693C13.7413 8.71796 12.7109 8.88088 11.2221 8.54917C9.58723 8.1849 7.86876 5.64869 7.86876 5.64869C8.93751 5.49041 9.73116 5.30869 10.3999 5.15556H10.4C11.597 4.8815 12.3937 4.69909 13.6512 4.90649Z" fill="url(#paint2_linear_202_596)"/>
<path d="M24.7192 16.0441C24.7239 16.0259 24.7239 16.0122 24.7239 15.994C24.7239 15.9894 24.7239 15.9849 24.7331 16.0031V15.9029C24.7331 15.8971 24.7329 15.8915 24.7326 15.8861C24.7321 15.8782 24.7314 15.8705 24.7306 15.8632C24.7296 15.8518 24.7285 15.8409 24.7285 15.8301C24.7239 15.7845 24.7192 15.739 24.7146 15.698C24.7122 15.6866 24.7111 15.6764 24.7099 15.6661C24.7088 15.6559 24.7076 15.6457 24.7053 15.6343C24.6867 15.5113 24.6588 15.4021 24.631 15.311C24.6031 15.2199 24.5706 15.1425 24.5427 15.0788C24.5381 15.0697 24.5381 15.0606 24.5381 15.056V15.0332C24.5398 15.0298 24.541 15.0269 24.5419 15.0245C24.5425 15.0228 24.5431 15.0213 24.5438 15.0199C24.5442 15.0193 24.5445 15.0186 24.5449 15.018C24.5456 15.017 24.5464 15.016 24.5474 15.015L24.5613 15.0014C24.5613 14.9968 24.5659 14.9968 24.5659 14.9968C24.5683 14.9968 24.5706 14.9957 24.5729 14.9945C24.5742 14.9939 24.5755 14.9933 24.5767 14.9928C24.5778 14.9925 24.5788 14.9922 24.5799 14.9922H24.5845C24.5892 14.9877 24.5985 14.9877 24.6031 14.9877C24.6054 14.9877 24.6077 14.9888 24.61 14.99C24.6123 14.9911 24.6147 14.9922 24.617 14.9922H24.6263C24.6278 14.9937 24.6298 14.9952 24.6319 14.9967C24.6331 14.9975 24.6344 14.9983 24.6356 14.9991C24.6391 15.0014 24.6426 15.0036 24.6449 15.0059C24.6588 15.015 24.6681 15.0241 24.6774 15.0332C24.689 15.0446 24.6995 15.056 24.7099 15.0674C24.7204 15.0788 24.7308 15.0901 24.7424 15.1015C24.7749 15.1425 24.8075 15.1835 24.84 15.2336C24.8422 15.2373 24.8446 15.241 24.847 15.2449C24.8487 15.2476 24.8505 15.2505 24.8523 15.2533C24.8637 15.2714 24.8763 15.2912 24.8864 15.311C24.8909 15.3198 24.8958 15.3291 24.901 15.3386C24.9118 15.3588 24.9234 15.3805 24.9329 15.4021C24.9654 15.4658 24.9932 15.5387 25.0165 15.6161C25.035 15.6661 25.049 15.7253 25.0629 15.7845C25.0768 15.8437 25.0908 15.9075 25.1001 15.9758V15.9803C25.1023 15.9956 25.1034 16.0098 25.1046 16.0235C25.1058 16.0384 25.1069 16.0526 25.1093 16.0668V16.0942C25.114 16.1124 25.114 16.1306 25.114 16.1488V16.2308C25.1093 16.2399 25.1093 16.2535 25.1093 16.2626C25.1093 16.2658 25.1091 16.2691 25.1087 16.2726C25.1083 16.2768 25.1076 16.2811 25.107 16.2854C25.1065 16.289 25.106 16.2926 25.1055 16.2962C25.105 16.3004 25.1047 16.3044 25.1047 16.3082C25.1047 16.3127 25.1035 16.3184 25.1024 16.3241C25.1019 16.3267 25.1014 16.3292 25.1009 16.3316C25.1004 16.3346 25.1001 16.3375 25.1001 16.34C25.1001 16.3537 25.1001 16.3674 25.0954 16.381C25.0931 16.3856 25.0919 16.3913 25.0908 16.397C25.0896 16.4026 25.0884 16.4083 25.0861 16.4129C25.0838 16.4197 25.0826 16.4266 25.0815 16.4334C25.0811 16.4359 25.0806 16.4384 25.0801 16.441C25.0793 16.4453 25.0783 16.4496 25.0768 16.4539C25.0745 16.4584 25.0734 16.4641 25.0722 16.4698C25.071 16.4755 25.0699 16.4812 25.0675 16.4857L25.0536 16.5267C25.0536 16.5404 25.049 16.5495 25.0443 16.5586C25.0433 16.5616 25.0422 16.5644 25.0412 16.5671C25.0399 16.5705 25.0387 16.5737 25.0374 16.5768C25.0361 16.58 25.0348 16.5832 25.0335 16.5866C25.0324 16.5893 25.0314 16.5921 25.0304 16.595L25.0165 16.6223C25.0072 16.636 25.0025 16.6451 24.9979 16.6588L24.9839 16.6861C24.9793 16.6952 24.97 16.7089 24.9654 16.718C24.963 16.7225 24.9596 16.7271 24.9561 16.7316C24.9526 16.7362 24.9491 16.7407 24.9468 16.7453C24.9421 16.7498 24.9387 16.7555 24.9352 16.7612C24.9328 16.7652 24.9303 16.7691 24.9276 16.7727C24.9263 16.7742 24.925 16.7758 24.9236 16.7772C24.9212 16.7817 24.9178 16.7863 24.9143 16.7908C24.9108 16.7954 24.9073 16.7999 24.905 16.8045C24.9025 16.8082 24.9003 16.8115 24.8983 16.8146C24.8929 16.8231 24.8885 16.8297 24.8818 16.8364C24.8771 16.8409 24.8678 16.85 24.8632 16.8591L24.7331 16.9866C24.7285 16.9957 24.7192 17.0048 24.7099 17.0094C24.7006 17.0139 24.6867 17.023 24.6774 17.0321C24.6728 17.0344 24.6681 17.0378 24.6635 17.0413C24.6588 17.0447 24.6542 17.0481 24.6495 17.0504C24.6449 17.0549 24.6391 17.0583 24.6333 17.0617C24.6311 17.063 24.6289 17.0643 24.6268 17.0657C24.6233 17.0679 24.6199 17.0703 24.617 17.0731C24.6124 17.0754 24.6077 17.0788 24.6031 17.0822C24.5985 17.0857 24.5938 17.0891 24.5892 17.0913C24.5799 17.1004 24.5706 17.105 24.5567 17.1141C24.5474 17.1232 24.5381 17.1278 24.5288 17.1323C24.5218 17.1346 24.516 17.138 24.5102 17.1414C24.5044 17.1448 24.4986 17.1483 24.4916 17.1505L24.4638 17.1642C24.4568 17.1665 24.451 17.1699 24.4452 17.1733C24.4394 17.1767 24.4336 17.1801 24.4266 17.1824L24.3987 17.1961C24.3894 17.2052 24.3755 17.2097 24.3616 17.2143C24.3476 17.2188 24.3384 17.2234 24.3291 17.2279L24.2873 17.2416C24.2811 17.2437 24.2758 17.2457 24.2711 17.2477C24.2674 17.2492 24.2641 17.2508 24.2608 17.2523C24.2588 17.2533 24.2568 17.2543 24.2548 17.2553L24.213 17.2689C24.2083 17.2712 24.2025 17.2723 24.1967 17.2735C24.1909 17.2746 24.1851 17.2758 24.1804 17.278L24.1386 17.2917C24.134 17.294 24.1282 17.2951 24.1224 17.2962C24.1166 17.2974 24.1108 17.2985 24.1061 17.3008C24.0922 17.3008 24.0783 17.3053 24.0643 17.3099C24.0605 17.3118 24.0558 17.3129 24.051 17.3139L24.0459 17.3149C24.0408 17.3159 24.0359 17.3171 24.0318 17.319C24.0233 17.3211 24.0158 17.3222 24.0087 17.3233C24.0005 17.3245 23.9929 17.3257 23.9854 17.3281C23.9816 17.3281 23.9782 17.3284 23.9751 17.3289C23.9733 17.3292 23.9716 17.3295 23.97 17.3298C23.9686 17.3301 23.9672 17.3304 23.9658 17.3308C23.9612 17.3318 23.957 17.3327 23.9529 17.3327C23.9459 17.3349 23.9378 17.3361 23.9296 17.3372C23.9215 17.3384 23.9134 17.3395 23.9064 17.3418C23.903 17.3418 23.8995 17.3424 23.8961 17.3432C23.8949 17.3435 23.8937 17.3438 23.8925 17.3441C23.8878 17.3452 23.8832 17.3463 23.8786 17.3463C23.8693 17.3463 23.8612 17.3475 23.8531 17.3486C23.8449 17.3497 23.8368 17.3509 23.8275 17.3509C23.8228 17.3509 23.8182 17.352 23.8135 17.3532C23.8089 17.3543 23.8042 17.3554 23.7996 17.3554C23.7903 17.3554 23.781 17.3566 23.7717 17.3577C23.7624 17.3589 23.7531 17.36 23.7439 17.36H23.7253C23.7113 17.36 23.6986 17.3611 23.6859 17.3623H23.6858C23.673 17.3634 23.6603 17.3645 23.6463 17.3645H23.4884C23.442 17.36 23.3955 17.36 23.3491 17.36H23.1865C23.1726 17.3645 23.154 17.3645 23.1401 17.3645C23.1261 17.3691 23.1122 17.3691 23.0983 17.3691C23.0913 17.3691 23.0832 17.3702 23.0751 17.3714C23.0669 17.3725 23.0588 17.3736 23.0518 17.3736C23.047 17.3736 23.0423 17.3742 23.0376 17.3749C23.0354 17.3752 23.0332 17.3756 23.031 17.3759H23.0309C23.0239 17.3771 23.017 17.3782 23.01 17.3782C23.0031 17.3782 22.9949 17.3793 22.9868 17.3805C22.9787 17.3816 22.9705 17.3828 22.9636 17.3828C22.9566 17.3828 22.9497 17.3839 22.9427 17.385H22.9426C22.9357 17.3862 22.9287 17.3873 22.9218 17.3873C22.9132 17.3894 22.9057 17.3905 22.8987 17.3916C22.8904 17.3928 22.8829 17.394 22.8753 17.3964C22.8614 17.3964 22.8475 17.3964 22.8335 17.401C22.825 17.4031 22.8175 17.4042 22.8105 17.4052C22.8022 17.4065 22.7946 17.4076 22.7871 17.4101C22.7821 17.4125 22.7757 17.4137 22.7687 17.4149C22.7627 17.416 22.7563 17.4171 22.7499 17.4192C22.736 17.4192 22.7221 17.4237 22.7082 17.4283H22.7081C22.7038 17.4297 22.6999 17.4307 22.6962 17.4315C22.694 17.432 22.6918 17.4324 22.6896 17.4328H22.6895C22.6837 17.434 22.6779 17.4351 22.671 17.4374L22.6292 17.4511C22.6181 17.4511 22.61 17.4539 22.6002 17.4574C22.5976 17.4583 22.5949 17.4592 22.592 17.4602L22.5502 17.4738C22.5433 17.4761 22.5374 17.4784 22.5316 17.4807C22.5258 17.4829 22.52 17.4852 22.5131 17.4875C22.5061 17.4898 22.4991 17.4932 22.4922 17.4966C22.4852 17.5 22.4782 17.5034 22.4713 17.5057C22.4705 17.5061 22.4696 17.5065 22.4688 17.5069C22.4646 17.5087 22.4598 17.5107 22.455 17.5125L22.4513 17.514L22.4486 17.515C22.4451 17.5165 22.4417 17.5179 22.4388 17.5194C22.4335 17.5219 22.4288 17.5241 22.4241 17.5261C22.4216 17.5272 22.4191 17.5283 22.4166 17.5293L22.4132 17.5307C22.4051 17.5342 22.3969 17.5376 22.3877 17.5421L22.3598 17.5558C22.3319 17.5649 22.3087 17.5786 22.2855 17.5922L22.2576 17.6059C22.2506 17.6104 22.2425 17.615 22.2344 17.6195L22.2343 17.6196C22.2262 17.6241 22.2181 17.6286 22.2112 17.6332C22.2024 17.6361 22.1955 17.6407 22.1892 17.6449C22.1856 17.6474 22.1821 17.6497 22.1787 17.6514L22.1369 17.6787C22.1229 17.6833 22.1136 17.6924 22.1043 17.7015C22.0904 17.7106 22.0811 17.7197 22.0672 17.7288C22.0533 17.7379 22.044 17.747 22.0347 17.7561C22.0277 17.7607 22.0219 17.7664 22.0161 17.7721C22.0142 17.7739 22.0123 17.7758 22.0104 17.7776C22.0064 17.7814 22.0022 17.785 21.9975 17.788C21.9836 17.7971 21.9743 17.8062 21.9651 17.8153L21.9325 17.8472C21.923 17.8534 21.9156 17.8618 21.9089 17.8693C21.9059 17.8728 21.9029 17.8762 21.9 17.8791C21.8976 17.8826 21.8949 17.8858 21.8921 17.8888C21.8907 17.8903 21.8894 17.8917 21.8879 17.8931C21.8865 17.8946 21.8851 17.8959 21.8837 17.8973C21.8779 17.903 21.8721 17.9087 21.8675 17.9155C21.8628 17.9201 21.8582 17.9257 21.8535 17.9314C21.8515 17.9339 21.8496 17.9363 21.8476 17.9386C21.8449 17.9418 21.8423 17.9448 21.8396 17.9474C21.8303 17.9565 21.8164 17.9701 21.8071 17.9838C21.8025 17.9906 21.7978 17.9963 21.7932 18.002C21.7915 18.004 21.7898 18.0061 21.7881 18.0082C21.7875 18.009 21.7869 18.0098 21.7863 18.0106C21.7839 18.0136 21.7815 18.0168 21.7792 18.0202C21.7653 18.0339 21.756 18.0475 21.7467 18.0612C21.7374 18.0703 21.7281 18.0839 21.7189 18.0976L21.7188 18.0976C21.7096 18.1158 21.7003 18.1295 21.691 18.1432L21.6631 18.1841C21.6538 18.1978 21.6445 18.2115 21.6352 18.2297L21.6074 18.2707C21.6064 18.2727 21.6053 18.2746 21.6043 18.2765C21.6021 18.2805 21.6 18.2844 21.5978 18.2882C21.5917 18.2988 21.5856 18.3088 21.5795 18.3207C21.5767 18.3249 21.5743 18.3294 21.5721 18.3342C21.5706 18.3373 21.5692 18.3404 21.5679 18.3435C21.5644 18.3515 21.5609 18.3594 21.5563 18.3663L21.5284 18.4209C21.5224 18.4298 21.5183 18.4386 21.5137 18.4486C21.5112 18.4541 21.5085 18.46 21.5052 18.4665C21.5006 18.4756 21.4959 18.4858 21.4913 18.496C21.4886 18.502 21.4859 18.5078 21.4832 18.5135C21.4813 18.5177 21.4793 18.5218 21.4773 18.5256C21.4727 18.5348 21.4692 18.5427 21.4657 18.5507L21.4657 18.5507C21.4622 18.5587 21.4588 18.5667 21.4541 18.5757C21.4495 18.5871 21.4448 18.5974 21.4402 18.6076L21.44 18.608C21.438 18.6122 21.4361 18.6165 21.4342 18.6209C21.4315 18.6269 21.4289 18.633 21.4262 18.6395C21.4245 18.6446 21.4222 18.6503 21.4196 18.6564C21.4153 18.6667 21.4106 18.6781 21.4077 18.6896C21.403 18.7123 21.3937 18.7351 21.3844 18.7579C21.3827 18.763 21.3804 18.7687 21.3778 18.7748C21.3735 18.785 21.3688 18.7965 21.3659 18.808C21.3622 18.8297 21.3555 18.8486 21.3483 18.8691L21.3482 18.8693C21.3464 18.8745 21.3445 18.8799 21.3426 18.8854C21.3426 18.8962 21.3397 18.9041 21.3362 18.9137L21.3352 18.9166C21.3346 18.9183 21.334 18.92 21.3334 18.9218C21.3334 18.923 21.3333 18.9242 21.3331 18.9252C21.3329 18.9268 21.3326 18.9283 21.3321 18.9296C21.3316 18.9312 21.331 18.9327 21.3304 18.934C21.3295 18.9362 21.3287 18.9381 21.3287 18.94C21.3241 18.9559 21.3195 18.9706 21.3148 18.9854L21.3147 18.9857C21.3101 19.0005 21.3054 19.0152 21.3008 19.0311L21.2869 19.072C21.279 19.098 21.2726 19.1239 21.2659 19.1506L21.2659 19.1507C21.2609 19.1709 21.2557 19.1917 21.2498 19.2132C21.2451 19.2269 21.2405 19.236 21.2358 19.245C21.2312 19.2541 21.2265 19.2633 21.2172 19.2678C21.2126 19.2724 21.2033 19.2769 21.194 19.2815C21.1847 19.2861 21.1754 19.2861 21.1662 19.2861H21.1336C21.129 19.2815 21.1244 19.2815 21.1197 19.2769C21.1197 19.2769 21.1151 19.2769 21.1104 19.2724L21.0965 19.2587C21.0935 19.2558 21.0905 19.2548 21.0888 19.2532C21.0878 19.2523 21.0872 19.2513 21.0872 19.2496C21.0841 19.2466 21.081 19.2395 21.0779 19.2324C21.0763 19.2289 21.0748 19.2254 21.0733 19.2223C21.0593 19.1723 21.0454 19.1269 21.0316 19.0814L21.0315 19.0812C21.0268 19.0629 21.0222 19.0493 21.0175 19.0356C21.0082 19.0037 20.9989 18.9719 20.9897 18.9446C20.9804 18.9263 20.9757 18.9127 20.9711 18.8945C20.9664 18.8808 20.9618 18.8683 20.9571 18.8558L20.9571 18.8557C20.9525 18.8432 20.9479 18.8307 20.9432 18.8171C20.9409 18.808 20.9374 18.8 20.9339 18.792C20.9304 18.7841 20.927 18.7761 20.9246 18.767L20.8968 18.6987C20.8944 18.6896 20.891 18.6816 20.8875 18.6736C20.884 18.6657 20.8805 18.6577 20.8782 18.6486C20.8735 18.6372 20.8689 18.627 20.8643 18.6167C20.8596 18.6065 20.855 18.5962 20.8503 18.5848C20.8457 18.5757 20.8422 18.5678 20.8387 18.5598C20.8352 18.5518 20.8317 18.5439 20.8271 18.5348C20.8225 18.5256 20.8178 18.5154 20.8132 18.5052C20.8114 18.5011 20.8095 18.4971 20.8077 18.4932C20.8049 18.487 20.8021 18.4811 20.7992 18.4756C20.7946 18.4687 20.7911 18.4608 20.7876 18.4528C20.7841 18.4448 20.7807 18.4369 20.776 18.43L20.7481 18.3754C20.7448 18.3689 20.7422 18.363 20.7396 18.3575C20.735 18.3475 20.7309 18.3387 20.7249 18.3299L20.6971 18.2752C20.6924 18.2684 20.6889 18.2616 20.6854 18.2548L20.6854 18.2547C20.6819 18.2479 20.6785 18.2411 20.6738 18.2342C20.6599 18.216 20.6506 18.2024 20.6413 18.1841C20.6357 18.1786 20.6318 18.1714 20.6275 18.1636L20.626 18.1609C20.6255 18.1599 20.6249 18.159 20.6244 18.158C20.6225 18.1546 20.6204 18.1512 20.6181 18.1477C20.6133 18.1407 20.6073 18.1324 20.6013 18.1242C20.5957 18.1165 20.5901 18.1088 20.5856 18.1022C20.5809 18.0954 20.5775 18.0897 20.574 18.084C20.5705 18.0783 20.567 18.0726 20.5624 18.0658C20.5577 18.0589 20.5519 18.051 20.5461 18.043C20.5403 18.035 20.5345 18.0271 20.5299 18.0202C20.5252 18.0157 20.5217 18.01 20.5182 18.0043C20.5175 18.003 20.5167 18.0017 20.5159 18.0005C20.5131 17.9961 20.5102 17.9919 20.5066 17.9883C20.5037 17.9846 20.501 17.981 20.4985 17.9776C20.4886 17.9644 20.4805 17.9537 20.4695 17.9428C20.4648 17.9383 20.4613 17.9337 20.4579 17.9292C20.4544 17.9246 20.4509 17.9201 20.4463 17.9155C20.437 17.8973 20.423 17.8836 20.4091 17.87L20.3859 17.8472C20.3719 17.829 20.3534 17.8108 20.3394 17.7972L20.3255 17.7834C20.3023 17.7607 20.2837 17.7425 20.2605 17.7243C20.2581 17.722 20.2558 17.7208 20.2535 17.7197C20.2512 17.7186 20.2489 17.7174 20.2465 17.7151L20.1908 17.6742C20.1815 17.6651 20.1769 17.6605 20.1676 17.656C20.1557 17.6501 20.1457 17.6424 20.1364 17.6352L20.1362 17.6351C20.134 17.6334 20.1318 17.6317 20.1296 17.6301C20.1268 17.628 20.1239 17.6259 20.1211 17.6241C20.1165 17.6218 20.1118 17.6184 20.1072 17.615C20.1026 17.6116 20.0979 17.6081 20.0933 17.6059L20.0515 17.5785C20.0422 17.5694 20.0329 17.5649 20.0236 17.5603C20.0195 17.5577 20.0153 17.5553 20.0112 17.5532C20.0083 17.5517 20.0055 17.5504 20.0027 17.549C19.9957 17.5455 19.9888 17.5421 19.9818 17.5376C19.9772 17.5353 19.9713 17.533 19.9655 17.5307C19.9597 17.5285 19.9539 17.5262 19.9493 17.5239C19.9423 17.5216 19.9354 17.5182 19.9284 17.5148C19.9214 17.5114 19.9145 17.508 19.9075 17.5057C19.9028 17.5035 19.8971 17.5012 19.8913 17.4989L19.8908 17.4987C19.8881 17.4976 19.8855 17.4966 19.8829 17.4955C19.88 17.4944 19.8773 17.4932 19.875 17.492C19.861 17.4829 19.8471 17.4784 19.8332 17.4738C19.8285 17.4715 19.8227 17.4693 19.8169 17.467L19.8168 17.4669C19.811 17.4647 19.8053 17.4624 19.8007 17.4602L19.7589 17.4465C19.7478 17.4465 19.7397 17.4437 19.7299 17.4402C19.7273 17.4393 19.7246 17.4384 19.7217 17.4374C19.7122 17.4351 19.7039 17.4328 19.6962 17.4304C19.6889 17.4282 19.6821 17.426 19.6754 17.4238L19.6753 17.4237C19.6683 17.4215 19.6625 17.4203 19.6567 17.4192H19.6566C19.6531 17.4185 19.6495 17.4178 19.6457 17.4168C19.6433 17.4162 19.6408 17.4155 19.6381 17.4146C19.6242 17.4146 19.6056 17.4101 19.5917 17.4055C19.5875 17.4042 19.5837 17.4032 19.5801 17.4024C19.5777 17.4019 19.5754 17.4014 19.5731 17.401C19.5673 17.3998 19.5615 17.3987 19.5545 17.3964C19.5532 17.396 19.5518 17.3956 19.5503 17.3952C19.549 17.3949 19.5477 17.3946 19.5463 17.3943C19.5415 17.3933 19.5364 17.3926 19.5313 17.3919H19.5312C19.5231 17.3907 19.515 17.3896 19.5081 17.3873C19.5038 17.3873 19.5001 17.3869 19.4964 17.3863C19.4941 17.3859 19.4918 17.3855 19.4895 17.385H19.4894C19.4836 17.3839 19.4779 17.3828 19.4709 17.3828C19.4616 17.3805 19.4535 17.3793 19.4454 17.3782C19.4372 17.3771 19.4291 17.3759 19.4198 17.3736C19.4128 17.3736 19.407 17.3725 19.4013 17.3714H19.4012C19.3954 17.3702 19.3896 17.3691 19.3827 17.3691C19.3734 17.3691 19.3641 17.368 19.3548 17.3668H19.3548C19.3455 17.3657 19.3362 17.3645 19.3269 17.3645C19.3237 17.3645 19.3208 17.3643 19.318 17.364C19.3147 17.3635 19.3115 17.3629 19.3084 17.3623L19.3083 17.3623C19.3025 17.3611 19.2967 17.36 19.2898 17.36C19.2832 17.36 19.276 17.3594 19.2686 17.3587C19.2657 17.3584 19.2626 17.3581 19.2596 17.3577C19.2491 17.3566 19.2387 17.3554 19.2294 17.3554H19.1969C19.169 17.3509 19.1411 17.3509 19.1133 17.3509H18.9043C18.8857 17.3509 18.8683 17.352 18.8509 17.3532H18.8507C18.8333 17.3543 18.816 17.3554 18.7974 17.3554H18.5559C18.549 17.3554 18.542 17.3543 18.5351 17.3532C18.5307 17.3525 18.5263 17.3517 18.5219 17.3513C18.5193 17.3511 18.5167 17.3509 18.5141 17.3509C18.5048 17.3463 18.4909 17.3463 18.4816 17.3463C18.4717 17.3463 18.4631 17.3451 18.4551 17.3438H18.4551C18.4481 17.3428 18.4416 17.3418 18.4352 17.3418C18.4305 17.3418 18.4248 17.3406 18.419 17.3395H18.4189C18.4131 17.3384 18.4073 17.3372 18.4027 17.3372C18.3984 17.3359 18.3938 17.3349 18.389 17.3341C18.3858 17.3336 18.3826 17.3331 18.3794 17.3327C18.3759 17.3322 18.3724 17.3317 18.3689 17.3311C18.3644 17.3303 18.3602 17.3294 18.3562 17.3281C18.3516 17.3281 18.3469 17.327 18.3423 17.3258C18.3376 17.3247 18.333 17.3236 18.3283 17.3236C18.3098 17.319 18.2865 17.3145 18.268 17.3099C18.2658 17.3078 18.2636 17.3066 18.2614 17.306C18.259 17.3053 18.2565 17.3053 18.254 17.3053C18.2478 17.3041 18.2413 17.3026 18.2346 17.3009C18.2287 17.2994 18.2228 17.2978 18.2169 17.2962C18.2102 17.2945 18.2035 17.2927 18.197 17.2911C18.1911 17.2896 18.1853 17.2882 18.1797 17.2871C18.1755 17.2851 18.1712 17.2839 18.167 17.2829C18.1619 17.2816 18.1569 17.2805 18.1519 17.278C18.1333 17.2735 18.1194 17.269 18.1056 17.2644L18.1054 17.2644C18.0961 17.2644 18.0822 17.2598 18.0729 17.2553L18.0311 17.2416C18.0265 17.2393 18.0207 17.237 18.0148 17.2348L18.0121 17.2337C18.01 17.2329 18.0079 17.232 18.0059 17.2312C18.0033 17.2301 18.0008 17.229 17.9986 17.2279C17.9911 17.2255 17.985 17.2231 17.9788 17.2207C17.9734 17.2185 17.9679 17.2164 17.9614 17.2143C17.9521 17.2097 17.9382 17.2052 17.9289 17.2006C17.922 17.1983 17.9161 17.1961 17.9103 17.1938C17.9045 17.1915 17.8987 17.1892 17.8918 17.187C17.8908 17.1865 17.8899 17.1861 17.8889 17.1856L17.8871 17.1849C17.8835 17.1833 17.8795 17.1817 17.8755 17.1801C17.8738 17.1795 17.8722 17.1788 17.8705 17.1782C17.8665 17.1765 17.8626 17.1749 17.8593 17.1733C17.8557 17.1698 17.8515 17.167 17.8471 17.1646C17.8427 17.1622 17.8382 17.1602 17.834 17.1584C17.8314 17.1573 17.8289 17.1562 17.8267 17.1551C17.8221 17.1528 17.8163 17.1494 17.8105 17.146C17.807 17.144 17.8037 17.142 17.8005 17.1402C17.7982 17.139 17.7961 17.1378 17.7942 17.1369C17.7896 17.1346 17.7838 17.1312 17.778 17.1278C17.7722 17.1244 17.7664 17.1209 17.7617 17.1187C17.753 17.1158 17.7461 17.1111 17.7398 17.107L17.7395 17.1068C17.7383 17.1059 17.737 17.1051 17.7358 17.1043C17.7335 17.1028 17.7314 17.1015 17.7292 17.1004C17.7246 17.0982 17.7187 17.0948 17.7129 17.0913L17.7095 17.0893C17.7049 17.0866 17.7004 17.0841 17.6967 17.0822C17.692 17.08 17.6874 17.0766 17.6828 17.0732L17.6827 17.0731C17.6795 17.0708 17.6764 17.0684 17.6731 17.0664C17.6717 17.0656 17.6703 17.0647 17.6688 17.064C17.6642 17.0595 17.6595 17.0561 17.6549 17.0526C17.6502 17.0492 17.6456 17.0458 17.641 17.0413C17.6363 17.0367 17.6317 17.0333 17.627 17.0299C17.6224 17.0265 17.6177 17.023 17.6131 17.0185C17.6084 17.0139 17.6038 17.0105 17.5992 17.0071C17.597 17.0055 17.5947 17.0039 17.5926 17.0021C17.5901 17.0002 17.5877 16.9981 17.5852 16.9957C17.5806 16.9912 17.5759 16.9878 17.5713 16.9843C17.5666 16.9809 17.562 16.9775 17.5574 16.973C17.5481 16.9684 17.5388 16.9593 17.5295 16.9502C17.5202 16.9456 17.5109 16.9365 17.5016 16.9274C17.497 16.9183 17.4877 16.9092 17.4784 16.9001C17.4762 16.898 17.4743 16.8958 17.4725 16.8937C17.4705 16.8913 17.4686 16.8889 17.4668 16.8864C17.4633 16.8819 17.4598 16.8773 17.4552 16.8728C17.4505 16.8682 17.4471 16.8637 17.4436 16.8591C17.4401 16.8546 17.4366 16.85 17.432 16.8455C17.4273 16.8409 17.4238 16.8364 17.4203 16.8318C17.4169 16.8272 17.4134 16.8227 17.4087 16.8181C17.4041 16.8136 17.4006 16.809 17.3971 16.8045C17.3936 16.7999 17.3902 16.7954 17.3855 16.7908C17.3832 16.7863 17.3797 16.7817 17.3762 16.7772C17.3727 16.7726 17.3693 16.7681 17.3669 16.7635C17.364 16.7549 17.3593 16.7482 17.355 16.7421C17.3524 16.7384 17.3501 16.735 17.3484 16.7316C17.346 16.7271 17.3426 16.7226 17.3391 16.718L17.339 16.718C17.3356 16.7134 17.3321 16.7089 17.3298 16.7043C17.3275 16.6998 17.324 16.6941 17.3205 16.6884C17.317 16.6827 17.3135 16.677 17.3112 16.6724C17.3019 16.6588 17.2973 16.6497 17.2926 16.6406C17.2903 16.6361 17.288 16.6304 17.2857 16.6247C17.2833 16.619 17.281 16.6132 17.2787 16.6087C17.2764 16.6041 17.274 16.5984 17.2717 16.5928C17.2694 16.5871 17.2671 16.5814 17.2648 16.5768C17.2624 16.57 17.2601 16.5643 17.2578 16.5586C17.2555 16.5529 17.2531 16.5472 17.2508 16.5404C17.25 16.5387 17.2491 16.5369 17.2483 16.535C17.2468 16.5317 17.2453 16.5281 17.2439 16.5245C17.2424 16.521 17.241 16.5175 17.2396 16.5143C17.2387 16.5122 17.2378 16.5103 17.2369 16.5085C17.2369 16.4977 17.234 16.4898 17.2305 16.4801C17.23 16.4788 17.2295 16.4775 17.229 16.4761C17.2285 16.4748 17.2281 16.4735 17.2276 16.4721C17.225 16.467 17.2238 16.4619 17.2225 16.456C17.2219 16.4531 17.2212 16.45 17.2203 16.4466C17.2197 16.4446 17.2191 16.4425 17.2183 16.4402C17.2174 16.4376 17.2167 16.4349 17.216 16.4323C17.2151 16.4281 17.2144 16.4239 17.2137 16.4197L17.2131 16.4164C17.2127 16.4141 17.2123 16.4118 17.2118 16.4095C17.2111 16.4061 17.2102 16.4027 17.209 16.3992C17.2085 16.3976 17.208 16.3961 17.2074 16.3947L17.2061 16.3912C17.2026 16.3816 17.1997 16.3736 17.1997 16.3628C17.1997 16.356 17.1986 16.3491 17.1974 16.3423C17.1962 16.3355 17.1951 16.3287 17.1951 16.3218C17.1951 16.315 17.1939 16.3093 17.1928 16.3036C17.1916 16.2979 17.1904 16.2922 17.1904 16.2854C17.1858 16.2717 17.1858 16.2535 17.1858 16.2399C17.1812 16.2262 17.1812 16.2171 17.1812 16.2034V16.1215C17.1812 16.1124 17.1823 16.1033 17.1835 16.0942C17.1846 16.0851 17.1858 16.0759 17.1858 16.0668V16.0395C17.1858 16.0122 17.1904 15.9803 17.1951 15.953C17.2415 15.6616 17.3205 15.443 17.4087 15.2837C17.4258 15.2536 17.4453 15.2235 17.4637 15.1952L17.4724 15.1818C17.476 15.1762 17.4796 15.1707 17.483 15.1653C17.5388 15.0924 17.5899 15.0332 17.641 14.9877C17.6439 14.982 17.6486 14.9799 17.6529 14.978C17.6541 14.9774 17.6552 14.9769 17.6563 14.9763C17.6575 14.9757 17.6586 14.9749 17.6595 14.974H17.6688C17.6735 14.9695 17.6781 14.9695 17.6828 14.9695C17.6851 14.9695 17.6886 14.9706 17.692 14.9718C17.6933 14.9722 17.6946 14.9726 17.6958 14.973C17.6979 14.9736 17.6999 14.974 17.7013 14.974H17.706C17.7106 14.974 17.7153 14.974 17.7199 14.9786C17.7199 14.9805 17.7207 14.9816 17.7216 14.9822C17.723 14.9831 17.7246 14.9831 17.7246 14.9831L17.7385 14.9968C17.7431 15.0014 17.7478 15.0105 17.7478 15.015V15.0378C17.7478 15.0469 17.7478 15.0514 17.7431 15.0605L17.7431 15.0607C17.7292 15.0925 17.7152 15.1243 17.7013 15.1653L17.7012 15.1655C17.6874 15.2064 17.6734 15.2473 17.6595 15.2928C17.6502 15.3201 17.641 15.352 17.6317 15.3884L17.6177 15.443C17.6126 15.463 17.6089 15.483 17.6051 15.5038L17.6051 15.5039C17.6019 15.5209 17.5987 15.5384 17.5945 15.5569C17.5921 15.5666 17.5909 15.5762 17.5896 15.5866C17.5886 15.5957 17.5874 15.6054 17.5852 15.6161C17.5759 15.6753 17.5666 15.7436 17.562 15.8119C17.562 15.8261 17.5607 15.8391 17.5595 15.8516L17.5595 15.8516C17.5584 15.863 17.5574 15.8739 17.5574 15.8847V15.9985C17.5574 16.0076 17.5585 16.0156 17.5597 16.0236C17.5608 16.0316 17.562 16.0395 17.562 16.0486V16.0532C17.562 16.06 17.5632 16.0668 17.5643 16.0737C17.5648 16.0766 17.5653 16.0795 17.5657 16.0825C17.5663 16.0863 17.5666 16.0902 17.5666 16.0942V16.1078C17.5666 16.1215 17.5666 16.1306 17.5713 16.1442C17.5759 16.1488 17.5759 16.1534 17.5759 16.1579C17.5759 16.1761 17.5806 16.1898 17.5852 16.2034C17.5899 16.208 17.5899 16.208 17.5899 16.2125C17.5899 16.2217 17.5945 16.2353 17.5992 16.2444C17.5992 16.2467 17.6003 16.249 17.6015 16.2513C17.6026 16.2535 17.6038 16.2558 17.6038 16.2581C17.6061 16.2626 17.6084 16.2683 17.6108 16.274C17.6131 16.2797 17.6154 16.2854 17.6177 16.29C17.6177 16.2945 17.6224 16.2945 17.6224 16.2991C17.6247 16.3059 17.6282 16.3116 17.6317 16.3173C17.6352 16.323 17.6386 16.3287 17.641 16.3355C17.641 16.3378 17.6421 16.3389 17.6433 16.34C17.6444 16.3412 17.6456 16.3423 17.6456 16.3446C17.6549 16.3537 17.6595 16.3628 17.6642 16.3719L17.6735 16.381C17.6752 16.3828 17.6769 16.3845 17.6784 16.3863C17.6798 16.3879 17.6811 16.3895 17.6823 16.3912C17.6833 16.3924 17.6842 16.3935 17.6851 16.3947C17.6873 16.3976 17.6895 16.4005 17.692 16.4034C17.6934 16.405 17.695 16.4067 17.6967 16.4083C17.6974 16.4083 17.6981 16.4085 17.6986 16.4087C17.6994 16.409 17.7 16.4095 17.7005 16.4101C17.7013 16.4114 17.7013 16.4129 17.7013 16.4129C17.706 16.4174 17.7106 16.4209 17.7153 16.4243C17.7199 16.4277 17.7246 16.4311 17.7292 16.4357C17.7339 16.4357 17.7339 16.4402 17.7385 16.4402C17.7391 16.4405 17.7397 16.4408 17.7403 16.4412C17.7414 16.4417 17.7425 16.4423 17.7435 16.4429C17.7458 16.4443 17.748 16.4457 17.7501 16.447C17.7521 16.4484 17.7542 16.4497 17.7565 16.4511C17.7581 16.452 17.7598 16.453 17.7617 16.4539C17.7631 16.4539 17.7641 16.4543 17.7649 16.4549C17.7654 16.4552 17.7659 16.4557 17.7664 16.4562C17.7668 16.4567 17.7673 16.4571 17.7678 16.4575C17.7687 16.4581 17.7696 16.4584 17.771 16.4584C17.7757 16.4607 17.7815 16.463 17.7873 16.4653L17.7906 16.4666C17.7933 16.4677 17.7959 16.4687 17.7985 16.4698C17.8002 16.4705 17.8019 16.4713 17.8035 16.4721C17.8128 16.4766 17.8267 16.4812 17.836 16.4812H17.8453C17.8546 16.4857 17.8639 16.4857 17.8732 16.4857H17.8825C17.8872 16.4857 17.8913 16.4852 17.8954 16.4846C17.8973 16.4842 17.8991 16.4838 17.901 16.4835C17.9044 16.4828 17.9077 16.4822 17.9112 16.4817C17.9139 16.4814 17.9167 16.4812 17.9196 16.4812C17.9289 16.4812 17.9429 16.4766 17.9568 16.4721C17.9576 16.4721 17.9584 16.472 17.9592 16.4717C17.9607 16.4713 17.9622 16.4706 17.9638 16.4698C17.965 16.4692 17.9661 16.4686 17.9673 16.4682C17.9684 16.4678 17.9696 16.4675 17.9707 16.4675L17.9986 16.4539C17.9991 16.4539 17.9995 16.4538 17.9999 16.4538C18.0009 16.4536 18.0018 16.4533 18.0027 16.4529C18.006 16.4516 18.0093 16.4493 18.0125 16.4493C18.016 16.4476 18.0194 16.4453 18.0231 16.4428C18.0294 16.4386 18.0363 16.434 18.045 16.4311C18.0474 16.4311 18.0485 16.43 18.0497 16.4288C18.0508 16.4277 18.052 16.4266 18.0543 16.4266C18.0581 16.4241 18.0622 16.4213 18.0664 16.4184C18.0701 16.4159 18.0738 16.4133 18.0775 16.4106C18.0857 16.4049 18.0938 16.3992 18.1008 16.3947C18.1008 16.3919 18.1025 16.3908 18.105 16.3893C18.1065 16.3884 18.1083 16.3873 18.1101 16.3856C18.117 16.381 18.1228 16.3765 18.1286 16.3719C18.1344 16.3674 18.1402 16.3628 18.1472 16.3583L18.1611 16.3446C18.1751 16.3355 18.1844 16.3264 18.1983 16.3127L18.2122 16.2991C18.2262 16.2808 18.2447 16.2626 18.2633 16.2444C18.2773 16.2263 18.2958 16.208 18.3144 16.1898L18.3144 16.1898C18.3177 16.1834 18.3231 16.1793 18.3277 16.1758C18.3297 16.1743 18.3316 16.1729 18.333 16.1716C18.339 16.1626 18.3471 16.1557 18.3558 16.1481L18.3559 16.1481C18.3605 16.1441 18.3653 16.1399 18.3701 16.1351L18.3887 16.1169C18.4027 16.1033 18.4166 16.0896 18.4305 16.0805C18.4329 16.0782 18.4363 16.0759 18.4398 16.0737C18.4415 16.0726 18.4432 16.0715 18.4448 16.0703C18.4464 16.0692 18.4479 16.068 18.4491 16.0668C18.4677 16.0486 18.4863 16.035 18.5048 16.0213L18.5095 16.0168H18.5095C18.5281 16.0031 18.5466 15.9894 18.5699 15.9758C18.5745 15.9712 18.5838 15.9667 18.5884 15.9621C18.607 15.953 18.621 15.9439 18.6349 15.9348C18.6395 15.9325 18.643 15.9302 18.6465 15.928C18.65 15.9257 18.6535 15.9234 18.6581 15.9211C18.6767 15.9166 18.6906 15.9075 18.7046 15.8984C18.7138 15.8938 18.7185 15.8893 18.7278 15.8847C18.7419 15.8744 18.7586 15.8666 18.7739 15.8595L18.7741 15.8594L18.7746 15.8592C18.7793 15.8571 18.7838 15.8549 18.7882 15.8528C18.7882 15.8483 18.7928 15.8483 18.7928 15.8483L18.8625 15.821C18.8671 15.8187 18.8706 15.8175 18.8741 15.8164C18.8776 15.8153 18.881 15.8141 18.8857 15.8119C18.8927 15.8096 18.9008 15.8062 18.9089 15.8027C18.9137 15.8007 18.9185 15.7987 18.9231 15.797C18.9262 15.7957 18.9293 15.7946 18.9321 15.7936C18.9335 15.7923 18.9354 15.7913 18.9375 15.7905C18.9393 15.7898 18.9414 15.7893 18.9435 15.7887C18.9472 15.7877 18.9513 15.7865 18.9554 15.7845C18.9623 15.7823 18.9704 15.78 18.9785 15.7777C18.9822 15.7767 18.9858 15.7757 18.9894 15.7746C18.9937 15.7734 18.998 15.7721 19.0018 15.7709C19.0043 15.7697 19.0064 15.7685 19.0084 15.7673H19.0084C19.0139 15.7642 19.0182 15.7618 19.025 15.7618C19.0332 15.7598 19.0422 15.7578 19.0514 15.7558L19.0552 15.7549C19.0657 15.7527 19.0761 15.7504 19.0854 15.7481C19.0881 15.7455 19.0892 15.7444 19.0906 15.7439C19.0909 15.7438 19.0913 15.7437 19.0917 15.7436C19.0919 15.7436 19.0922 15.7436 19.0925 15.7436C19.0931 15.7436 19.0938 15.7436 19.0947 15.7436L19.1644 15.7299C19.1737 15.7253 19.1783 15.7253 19.1876 15.7253C19.1908 15.7246 19.1939 15.7238 19.1968 15.723C19.2111 15.7194 19.2233 15.7162 19.2387 15.7162C19.2433 15.7117 19.2526 15.7117 19.2619 15.7117C19.2689 15.7117 19.277 15.7105 19.2851 15.7094C19.2932 15.7083 19.3014 15.7071 19.3083 15.7071H19.4012C19.4151 15.7071 19.429 15.7083 19.4429 15.7094H19.4431C19.457 15.7105 19.4709 15.7117 19.4848 15.7117H19.5034C19.5173 15.714 19.5301 15.7151 19.5429 15.7162C19.5557 15.7174 19.5684 15.7185 19.5824 15.7208H19.587C19.6009 15.7231 19.6137 15.7253 19.6265 15.7276C19.6393 15.7299 19.652 15.7322 19.666 15.7344C19.6706 15.7344 19.6799 15.739 19.6846 15.739C19.6967 15.743 19.7089 15.7461 19.7207 15.7491L19.721 15.7492H19.7211C19.7362 15.753 19.7505 15.7567 19.7635 15.7618H19.7682C19.796 15.7709 19.8239 15.78 19.8471 15.7891C19.848 15.79 19.8491 15.7907 19.8503 15.7913C19.8521 15.7923 19.8543 15.793 19.8563 15.7936C19.8598 15.7948 19.8634 15.7959 19.8657 15.7982C19.8707 15.8002 19.876 15.8022 19.8814 15.8042C19.9008 15.8115 19.9218 15.8194 19.94 15.8301C19.9679 15.8437 19.9911 15.8574 20.0143 15.871C20.019 15.871 20.0282 15.8756 20.0329 15.8802C20.0445 15.8893 20.0561 15.8972 20.0677 15.9052C20.0793 15.9132 20.0909 15.9211 20.1026 15.9302C20.1142 15.9393 20.1258 15.9473 20.1374 15.9553C20.149 15.9633 20.1606 15.9712 20.1722 15.9803C20.1815 15.9803 20.1862 15.9849 20.1908 15.9894C20.214 16.0076 20.2372 16.0213 20.2605 16.035C20.2651 16.035 20.2651 16.0395 20.2698 16.0395C20.2883 16.0532 20.3116 16.0668 20.3301 16.0759C20.3325 16.0782 20.3348 16.0794 20.3371 16.0805C20.3394 16.0816 20.3417 16.0828 20.3441 16.0851C20.3557 16.0896 20.3661 16.0953 20.3766 16.101C20.3833 16.1046 20.39 16.1083 20.397 16.1116C20.4009 16.1135 20.4049 16.1153 20.4091 16.1169C20.4137 16.1169 20.4184 16.1215 20.423 16.1215L20.4788 16.1488C20.4834 16.1488 20.4881 16.1534 20.4927 16.1534C20.5113 16.1579 20.5345 16.167 20.5531 16.1761C20.5577 16.1761 20.5624 16.1807 20.567 16.1807C20.5697 16.1814 20.5725 16.1821 20.5753 16.183C20.577 16.1835 20.5789 16.1841 20.5806 16.1847C20.5854 16.1863 20.5901 16.188 20.5949 16.1898C20.6042 16.1932 20.6135 16.1966 20.6227 16.1989C20.624 16.2002 20.625 16.2011 20.6258 16.2018C20.6266 16.2024 20.6272 16.2028 20.6279 16.2031C20.6289 16.2034 20.63 16.2034 20.632 16.2034C20.6506 16.2125 20.6692 16.2171 20.6878 16.2217C20.6924 16.2217 20.6971 16.2262 20.7017 16.2262L20.7574 16.2399C20.776 16.2444 20.7899 16.249 20.8085 16.2535C20.8132 16.2581 20.8178 16.2581 20.8225 16.2581C20.8256 16.2591 20.8289 16.2599 20.8324 16.2606C20.8367 16.2614 20.8412 16.262 20.8457 16.2626C20.8538 16.2638 20.8619 16.2649 20.8689 16.2672H20.8735C20.8776 16.2672 20.8817 16.2676 20.8858 16.2681C20.8886 16.2686 20.8915 16.269 20.8944 16.2695H20.8944C20.8982 16.2701 20.9019 16.2707 20.9056 16.2711C20.9088 16.2715 20.9121 16.2717 20.9153 16.2717H20.9246C20.9271 16.2717 20.9296 16.2719 20.9321 16.2721C20.9365 16.2726 20.9409 16.2733 20.9454 16.274H20.9455H20.9456C20.9526 16.2752 20.9595 16.2763 20.9664 16.2763H20.9757C20.985 16.2808 20.9989 16.2808 21.0082 16.2808H21.2869C21.2962 16.2763 21.3101 16.2763 21.3194 16.2763H21.3287C21.3328 16.2763 21.3369 16.2759 21.341 16.2753C21.3438 16.275 21.3467 16.2745 21.3496 16.274H21.3497C21.3566 16.2729 21.3635 16.2717 21.3705 16.2717H21.3798C21.3937 16.2717 21.4077 16.2717 21.4216 16.2672H21.4262C21.4292 16.2662 21.4322 16.2655 21.4352 16.2648C21.4398 16.2638 21.4446 16.2631 21.4496 16.2624C21.4566 16.2613 21.4642 16.2602 21.4727 16.2581C21.4727 16.2535 21.4773 16.2535 21.482 16.2535C21.4922 16.2507 21.5029 16.2478 21.5139 16.2449C21.5228 16.2426 21.5319 16.2403 21.5411 16.238C21.547 16.2365 21.5529 16.235 21.5588 16.2336C21.5678 16.2314 21.5768 16.2292 21.5858 16.2269L21.5888 16.2262C21.5902 16.2262 21.5917 16.2258 21.5931 16.2252C21.5963 16.2238 21.5995 16.2217 21.6027 16.2217C21.6067 16.2207 21.6108 16.2195 21.6148 16.2181C21.6201 16.2164 21.6253 16.2145 21.6306 16.2125C21.6399 16.2091 21.6492 16.2057 21.6585 16.2034C21.6585 16.2013 21.6595 16.2002 21.6606 16.1996C21.6618 16.1989 21.6631 16.1989 21.6631 16.1989C21.6817 16.1943 21.7003 16.1898 21.7188 16.1807C21.7212 16.1807 21.7235 16.1795 21.7258 16.1784C21.7281 16.1773 21.7305 16.1761 21.7328 16.1761C21.7458 16.1729 21.7588 16.1675 21.7734 16.1614L21.7776 16.1597C21.7804 16.1585 21.7833 16.1573 21.7863 16.1561C21.7885 16.1552 21.7908 16.1543 21.7932 16.1534C21.7932 16.1534 21.795 16.1516 21.7975 16.1502C21.799 16.1494 21.8007 16.1488 21.8025 16.1488L21.8582 16.1215C21.8605 16.1215 21.8628 16.1203 21.8652 16.1192C21.8675 16.1181 21.8698 16.1169 21.8721 16.1169C21.8953 16.1078 21.9139 16.0987 21.9371 16.0851C21.9395 16.0828 21.9418 16.0816 21.9441 16.0805C21.945 16.0801 21.9459 16.0796 21.9467 16.0792C21.9482 16.0784 21.9496 16.0774 21.9511 16.0759C21.9604 16.0691 21.9708 16.0634 21.9813 16.0577C21.9917 16.052 22.0022 16.0463 22.0115 16.0395C22.0125 16.0395 22.0133 16.0393 22.0139 16.039C22.0145 16.0387 22.0149 16.0383 22.0154 16.0379C22.0156 16.0377 22.0159 16.0375 22.0161 16.0372C22.0173 16.0361 22.0184 16.035 22.0207 16.035C22.0324 16.0281 22.044 16.0202 22.0556 16.0122C22.0672 16.0042 22.0788 15.9963 22.0904 15.9894C22.0951 15.9894 22.0997 15.9849 22.1043 15.9803C22.1276 15.9667 22.1508 15.9485 22.174 15.9302C22.1856 15.9234 22.1972 15.9154 22.2088 15.9075C22.2205 15.8995 22.2321 15.8915 22.2437 15.8847C22.2483 15.8847 22.2576 15.8802 22.2623 15.8756C22.2669 15.8729 22.2717 15.8702 22.2766 15.8674C22.284 15.8634 22.2917 15.8593 22.2994 15.8551C22.3122 15.8483 22.325 15.8414 22.3366 15.8346H22.3412C22.3475 15.8322 22.3541 15.8294 22.3609 15.8264C22.3666 15.8239 22.3725 15.8213 22.3784 15.8187C22.3837 15.8163 22.3891 15.8139 22.3943 15.8116C22.4016 15.8084 22.4088 15.8054 22.4155 15.8027C22.4178 15.8005 22.4213 15.7993 22.4248 15.7982C22.4283 15.7971 22.4318 15.7959 22.4341 15.7936C22.437 15.7927 22.44 15.7917 22.4428 15.7908C22.4448 15.7901 22.4468 15.7894 22.4487 15.7887C22.4572 15.7858 22.4654 15.7829 22.4736 15.78C22.4821 15.7769 22.4907 15.7739 22.4996 15.7708C22.504 15.7693 22.5085 15.7678 22.5131 15.7663H22.5177C22.5293 15.764 22.5421 15.7606 22.5549 15.7572C22.5676 15.7538 22.5804 15.7504 22.592 15.7481C22.5936 15.7481 22.5958 15.7476 22.5982 15.7468C22.5992 15.7466 22.6002 15.7462 22.6013 15.7458C22.6048 15.7447 22.6083 15.7436 22.6106 15.7436C22.6131 15.7431 22.6156 15.7427 22.618 15.7423C22.6291 15.7405 22.6396 15.7386 22.6501 15.7367C22.6551 15.7358 22.6602 15.7349 22.6654 15.734C22.6732 15.7326 22.6811 15.7313 22.6896 15.7299H22.6942C22.7174 15.7253 22.7406 15.7208 22.7685 15.7208H22.7871C22.815 15.7162 22.8428 15.7162 22.8707 15.7162H22.9636C22.9683 15.7162 22.9728 15.7165 22.9771 15.717C22.9812 15.7174 22.9852 15.718 22.9891 15.7185C22.9973 15.7196 23.0054 15.7208 23.0147 15.7208C23.024 15.7253 23.0286 15.7253 23.0379 15.7253C23.0471 15.7276 23.0553 15.7288 23.0633 15.7299H23.0635C23.0688 15.7307 23.0741 15.7314 23.0797 15.7324C23.0827 15.733 23.0858 15.7337 23.089 15.7344C23.0936 15.739 23.1029 15.739 23.1076 15.739L23.1772 15.7527H23.1819C23.1935 15.7549 23.2039 15.7584 23.2144 15.7618C23.2248 15.7652 23.2353 15.7686 23.2469 15.7709C23.2515 15.7709 23.255 15.772 23.2585 15.7731C23.262 15.7743 23.2655 15.7754 23.2701 15.7754C23.2794 15.7777 23.2875 15.78 23.2957 15.7823C23.3038 15.7845 23.3119 15.7868 23.3212 15.7891C23.3259 15.7914 23.3293 15.7925 23.3328 15.7936H23.3328C23.3363 15.7948 23.3398 15.7959 23.3444 15.7982C23.3537 15.8005 23.3618 15.8039 23.37 15.8073C23.3781 15.8107 23.3862 15.8141 23.3955 15.8164C23.3967 15.8175 23.3981 15.8184 23.3997 15.8191C23.4013 15.8198 23.403 15.8204 23.4047 15.821H23.4048C23.4083 15.8221 23.4118 15.8232 23.4141 15.8255C23.4373 15.8392 23.4605 15.8483 23.4838 15.8574H23.4884C23.5 15.8619 23.5105 15.8676 23.5209 15.8733C23.5314 15.879 23.5418 15.8847 23.5534 15.8893C23.5581 15.8893 23.5674 15.8938 23.572 15.8984C23.5749 15.9003 23.5781 15.9022 23.5814 15.9041C23.5859 15.9068 23.5905 15.9094 23.5952 15.912C23.6034 15.9166 23.6115 15.9211 23.6185 15.9257C23.6231 15.928 23.6266 15.9302 23.6301 15.9325C23.6336 15.9348 23.637 15.9371 23.6417 15.9393C23.6486 15.9439 23.6567 15.9484 23.6648 15.953L23.6649 15.953L23.6654 15.9533C23.6687 15.9551 23.672 15.957 23.6752 15.9588C23.6798 15.9615 23.6841 15.9641 23.6881 15.9667C23.6891 15.9677 23.6904 15.9687 23.6918 15.9697C23.6935 15.9709 23.6955 15.9722 23.6974 15.9735L23.6975 15.9735C23.7009 15.9758 23.7044 15.978 23.7067 15.9803C23.7205 15.9912 23.7343 16.0004 23.7472 16.009C23.7559 16.0148 23.7642 16.0203 23.7717 16.0259C23.7868 16.0347 23.7999 16.0455 23.8123 16.0557C23.819 16.0612 23.8256 16.0666 23.8321 16.0714C23.8344 16.0737 23.8379 16.0759 23.8414 16.0782C23.8449 16.0805 23.8484 16.0828 23.8507 16.0851C23.8577 16.0919 23.8646 16.0976 23.8716 16.1033C23.8749 16.106 23.8782 16.1087 23.8816 16.1116C23.8835 16.1132 23.8854 16.1148 23.8872 16.1166C23.889 16.1182 23.8907 16.1198 23.8925 16.1215L23.9111 16.1397C23.9171 16.1486 23.9252 16.1556 23.9339 16.1632C23.9386 16.1672 23.9434 16.1714 23.9482 16.1761L24.0225 16.249C24.0318 16.2581 24.0399 16.2671 24.048 16.2762L24.0481 16.2763C24.0562 16.2854 24.0643 16.2945 24.0736 16.3036L24.0876 16.3173C24.0945 16.3218 24.1003 16.3275 24.1061 16.3332C24.1084 16.3354 24.1106 16.3376 24.113 16.3398C24.1166 16.3431 24.1204 16.3464 24.1247 16.3491C24.134 16.3537 24.1386 16.3583 24.1433 16.3628C24.1503 16.3674 24.1561 16.3719 24.1619 16.3765C24.1677 16.381 24.1735 16.3856 24.1804 16.3901C24.1804 16.3929 24.1822 16.394 24.1847 16.3955C24.1862 16.3964 24.188 16.3975 24.1897 16.3992C24.1998 16.4092 24.2124 16.4167 24.2238 16.4235C24.2266 16.4252 24.2293 16.4268 24.2319 16.4284C24.2333 16.4293 24.2348 16.4302 24.2362 16.4311C24.2362 16.4311 24.2408 16.4357 24.2455 16.4357C24.2526 16.4426 24.2624 16.447 24.2707 16.4506L24.2708 16.4506C24.2734 16.4518 24.2758 16.4528 24.278 16.4539C24.2803 16.4539 24.2826 16.455 24.2849 16.4562C24.2873 16.4573 24.2896 16.4584 24.2919 16.4584C24.3012 16.4584 24.3105 16.463 24.3198 16.4675C24.3221 16.4675 24.3244 16.4687 24.3267 16.4698C24.3291 16.4709 24.3314 16.4721 24.3337 16.4721C24.343 16.4766 24.3569 16.4812 24.3709 16.4812C24.3848 16.4857 24.3941 16.4857 24.408 16.4857H24.4173C24.4266 16.4812 24.4359 16.4812 24.4452 16.4812H24.4545C24.4638 16.4812 24.4777 16.4766 24.487 16.4721C24.4916 16.4699 24.4973 16.4676 24.5031 16.4653L24.5032 16.4653L24.5038 16.4651C24.5064 16.464 24.509 16.463 24.5116 16.4619C24.5144 16.4608 24.5171 16.4596 24.5195 16.4584C24.5211 16.4584 24.5222 16.4579 24.5231 16.4571C24.5234 16.4568 24.5238 16.4565 24.5241 16.4562C24.5253 16.455 24.5265 16.4539 24.5288 16.4539C24.5334 16.4516 24.5369 16.4493 24.5404 16.447C24.5439 16.4448 24.5474 16.4425 24.552 16.4402C24.5534 16.4402 24.5543 16.4399 24.5551 16.4393C24.5556 16.4389 24.5561 16.4384 24.5566 16.438C24.5578 16.4368 24.559 16.4357 24.5613 16.4357L24.5938 16.4038C24.5985 16.3992 24.6019 16.3947 24.6054 16.3902C24.6089 16.3856 24.6124 16.381 24.617 16.3765C24.617 16.3742 24.6182 16.3731 24.6194 16.3719C24.6205 16.3708 24.6217 16.3696 24.6217 16.3674C24.631 16.3583 24.6356 16.3491 24.6403 16.34C24.6403 16.3365 24.643 16.3357 24.6443 16.3334C24.6447 16.3328 24.6449 16.332 24.6449 16.3309C24.6463 16.3282 24.6481 16.325 24.6501 16.3216C24.6547 16.3135 24.6602 16.304 24.6635 16.2945C24.6681 16.29 24.6681 16.29 24.6681 16.2854L24.6682 16.2853C24.6728 16.2762 24.6774 16.2671 24.6821 16.2535C24.6821 16.2528 24.6822 16.2519 24.6824 16.2511C24.6827 16.2503 24.683 16.2496 24.6834 16.2488C24.6836 16.2481 24.684 16.2474 24.6844 16.2467C24.6855 16.2444 24.6867 16.2421 24.6867 16.2399C24.6867 16.2291 24.6896 16.2211 24.6931 16.2115C24.694 16.209 24.695 16.2063 24.696 16.2034C24.7006 16.1989 24.7006 16.1989 24.7006 16.1943C24.7006 16.1807 24.7053 16.1625 24.7099 16.1488V16.1397C24.7099 16.1372 24.7101 16.1348 24.7103 16.1325C24.7108 16.1286 24.7115 16.1251 24.7122 16.1215C24.7134 16.1158 24.7146 16.1101 24.7146 16.1033V16.0896C24.7146 16.0828 24.7157 16.0759 24.7169 16.0691C24.718 16.0623 24.7192 16.0555 24.7192 16.0486V16.0441Z" fill="url(#paint3_linear_202_596)"/>
<path d="M23.9298 22.2502H23.9299C23.953 22.2547 23.9763 22.2593 23.9994 22.2593C24.0064 22.2615 24.0145 22.2629 24.0227 22.2638C24.0308 22.2652 24.0389 22.2661 24.0459 22.2684H24.0463C24.0565 22.2706 24.0666 22.2725 24.0771 22.2743C24.0906 22.277 24.1047 22.2793 24.1202 22.282C24.1277 22.2843 24.1353 22.2857 24.1436 22.287C24.1506 22.2879 24.1581 22.2889 24.1666 22.2911C24.1806 22.2934 24.1933 22.2971 24.2061 22.3002C24.2189 22.3039 24.2317 22.3071 24.2456 22.3093C24.2526 22.3116 24.2583 22.313 24.2641 22.3139C24.2699 22.3153 24.2758 22.3162 24.2827 22.3185C24.3199 22.3276 24.3617 22.3412 24.3989 22.3549C24.4082 22.3572 24.4163 22.3594 24.4244 22.3617C24.4325 22.364 24.4407 22.3663 24.45 22.3685C24.4523 22.3685 24.4558 22.3699 24.4592 22.3708H24.4593C24.4628 22.3722 24.4662 22.3731 24.4685 22.3731C24.4755 22.3754 24.4824 22.3767 24.4894 22.3776H24.4895C24.4964 22.379 24.5034 22.3799 24.5103 22.3822C24.515 22.3822 24.5185 22.3836 24.5219 22.3845C24.5254 22.3858 24.5289 22.3868 24.5336 22.3868C24.5475 22.3913 24.5614 22.3913 24.5707 22.3913C24.5754 22.3913 24.58 22.3927 24.5846 22.3936C24.5893 22.3949 24.5939 22.3959 24.5986 22.3959C24.6055 22.3959 24.6125 22.3972 24.6194 22.3981H24.6195C24.6265 22.3995 24.6335 22.4004 24.6404 22.4004C24.6497 22.4004 24.659 22.4004 24.6682 22.405C24.6752 22.405 24.6822 22.4063 24.6891 22.4072C24.6961 22.4086 24.7031 22.4095 24.71 22.4095C24.7193 22.4095 24.7286 22.4095 24.7426 22.4141C24.7565 22.4141 24.7704 22.4141 24.7844 22.4186H25.1048C25.1187 22.4186 25.1338 22.4177 25.1489 22.4163H25.149C25.1577 22.4159 25.1664 22.415 25.1749 22.4145C25.1811 22.4141 25.1872 22.4141 25.1931 22.4141H25.2209C25.2581 22.4141 25.2953 22.4095 25.3324 22.405H25.351C25.3626 22.405 25.373 22.4041 25.3834 22.4027H25.3835C25.394 22.4018 25.4044 22.4004 25.416 22.4004C25.4253 22.4004 25.4346 22.3959 25.4485 22.3959C25.4578 22.3959 25.4671 22.3959 25.4764 22.3913L25.5879 22.3776H25.5971C25.6343 22.3731 25.6668 22.3685 25.704 22.3594C25.7082 22.3594 25.7123 22.3585 25.7169 22.3576C25.7203 22.3567 25.724 22.3558 25.728 22.3553C25.7306 22.3553 25.7335 22.3549 25.7365 22.3549C25.7527 22.3526 25.7702 22.3494 25.7876 22.3458C25.805 22.3426 25.8224 22.3389 25.8387 22.3367C25.8433 22.3367 25.848 22.3367 25.8526 22.3321C25.8712 22.3276 25.8898 22.3244 25.9083 22.3207C25.9269 22.3175 25.9455 22.3139 25.9641 22.3093C25.9734 22.3093 25.9826 22.3048 25.9919 22.3002C26.0082 22.2957 26.0233 22.2925 26.0384 22.2889C26.0535 22.2857 26.0686 22.282 26.0848 22.2775C26.0895 22.2775 26.093 22.2766 26.0964 22.2752L26.0982 22.2747C26.1011 22.2738 26.1041 22.2729 26.108 22.2729H26.1081C26.1452 22.2638 26.1824 22.2547 26.2149 22.241C26.2195 22.2388 26.2242 22.2379 26.2288 22.2365C26.2307 22.236 26.2326 22.2356 26.2345 22.2351C26.2373 22.2342 26.24 22.2333 26.2427 22.2319C26.2706 22.2228 26.2985 22.2137 26.331 22.2046C26.3351 22.2028 26.3392 22.2014 26.3428 22.2005C26.3475 22.1992 26.3516 22.1982 26.3542 22.1955C26.3661 22.1905 26.3785 22.186 26.3912 22.1819C26.3959 22.1805 26.4006 22.1787 26.4053 22.1773C26.4165 22.1737 26.4277 22.17 26.4386 22.1659C26.4446 22.1636 26.4506 22.1614 26.4564 22.1591C26.4587 22.1568 26.4622 22.1559 26.4657 22.1545C26.4692 22.1536 26.4726 22.1523 26.475 22.15C26.4928 22.1441 26.5107 22.1363 26.5274 22.1295C26.5318 22.1272 26.5362 22.1254 26.5405 22.1236C26.5451 22.1217 26.5496 22.1199 26.5539 22.1181C26.557 22.1167 26.56 22.1149 26.5629 22.114C26.5688 22.1113 26.574 22.109 26.5771 22.109C26.6097 22.0953 26.6375 22.0817 26.67 22.0635C26.6724 22.0635 26.6747 22.0626 26.677 22.0612C26.6793 22.0603 26.6816 22.0589 26.684 22.0589C26.7118 22.0453 26.735 22.0316 26.7582 22.0179C26.7675 22.0134 26.7722 22.0088 26.7815 22.0043C26.7887 21.9997 26.7959 21.9952 26.8029 21.9911C26.8064 21.9888 26.8099 21.987 26.8134 21.9847C26.8301 21.9751 26.8462 21.9656 26.8605 21.9542L26.8883 21.9269C26.8883 21.9246 26.8895 21.9237 26.8906 21.9223C26.8918 21.9214 26.893 21.92 26.893 21.9178C26.893 21.9173 26.8931 21.9164 26.8932 21.9159C26.8934 21.9155 26.8936 21.915 26.8939 21.915C26.8943 21.9141 26.8948 21.9137 26.8953 21.9132C26.8965 21.9123 26.8976 21.9109 26.8976 21.9087C26.8976 21.9077 26.8976 21.9073 26.8977 21.9068C26.8977 21.9064 26.8977 21.9064 26.8977 21.9059C26.8979 21.9036 26.8988 21.9032 26.9023 21.8995C26.9023 21.8977 26.9029 21.8968 26.9036 21.8959C26.9041 21.8954 26.9047 21.895 26.9052 21.8945C26.9061 21.8936 26.9069 21.8923 26.9069 21.8904V21.8176C26.9069 21.8158 26.9069 21.8144 26.9065 21.8135C26.9061 21.8121 26.905 21.8112 26.9023 21.8085C26.9023 21.8067 26.9023 21.8053 26.9019 21.8044C26.9017 21.8039 26.9012 21.803 26.9004 21.8021C26.8997 21.8016 26.8989 21.8007 26.8976 21.7994C26.8976 21.7971 26.8965 21.7962 26.8953 21.7948C26.8941 21.7939 26.893 21.7925 26.893 21.7903C26.893 21.788 26.8918 21.7871 26.8906 21.7857C26.8895 21.7848 26.8883 21.7834 26.8883 21.7812C26.8883 21.7766 26.8837 21.7766 26.8837 21.7721C26.8837 21.7698 26.8825 21.7689 26.8814 21.7675L26.881 21.767C26.88 21.7661 26.879 21.7648 26.879 21.7629L26.8744 21.7584C26.8721 21.7584 26.8709 21.7575 26.8697 21.7561C26.8686 21.7552 26.8674 21.7538 26.8651 21.7538C26.8636 21.7538 26.8625 21.7534 26.8617 21.7525C26.8612 21.7525 26.8608 21.752 26.8605 21.7516C26.8593 21.7507 26.8581 21.7493 26.8558 21.7493C26.854 21.7493 26.8528 21.7484 26.8519 21.7479C26.8509 21.747 26.8501 21.7456 26.8488 21.7452C26.8482 21.7447 26.8475 21.7447 26.8465 21.7447C26.8442 21.7447 26.843 21.7438 26.8419 21.7425C26.8407 21.7415 26.8396 21.7402 26.8372 21.7402C26.8349 21.7402 26.8338 21.7393 26.8326 21.7379C26.8314 21.737 26.8303 21.7356 26.8279 21.7356C26.8257 21.7356 26.8245 21.7356 26.8233 21.7352C26.8222 21.7347 26.821 21.7333 26.8187 21.7311H26.3821C26.3449 21.7311 26.3078 21.7311 26.2706 21.7265H26.266C26.2479 21.7265 26.2288 21.7256 26.2092 21.7242H26.2091C26.1883 21.7233 26.1667 21.722 26.1452 21.722H26.122C26.0848 21.722 26.043 21.7174 26.0012 21.7129H25.978C25.9571 21.7106 25.9362 21.7097 25.9153 21.7083C25.8944 21.7074 25.8735 21.706 25.8526 21.7038H25.8387L25.7133 21.6901H25.6947L25.6834 21.6887C25.6446 21.6846 25.6027 21.6801 25.5646 21.6719C25.5553 21.6719 25.5461 21.6673 25.5368 21.6673C25.495 21.6628 25.4485 21.6537 25.4067 21.6446C25.4021 21.6446 25.3986 21.6436 25.3951 21.6423C25.3916 21.6414 25.3881 21.64 25.3835 21.64C25.3489 21.6332 25.3169 21.6263 25.2835 21.6195C25.2722 21.6172 25.2607 21.615 25.2488 21.6127H25.2442C25.1977 21.6036 25.1559 21.5945 25.1095 21.5808C25.1048 21.5808 25.1013 21.5799 25.0979 21.5785C25.0963 21.5781 25.0947 21.5776 25.0931 21.5772C25.091 21.5767 25.0888 21.5763 25.0863 21.5763C25.0445 21.5672 24.998 21.5535 24.9562 21.5398C24.9521 21.538 24.9481 21.5366 24.9444 21.5357C24.9397 21.5344 24.9356 21.5333 24.933 21.5307C24.9121 21.5239 24.89 21.5171 24.868 21.5102C24.8459 21.5034 24.8238 21.4966 24.8029 21.4897C24.7983 21.4897 24.7936 21.4852 24.789 21.4852C24.7629 21.4767 24.7367 21.4663 24.7116 21.4564C24.6967 21.4505 24.6821 21.4448 24.6682 21.4397C24.6667 21.4397 24.6651 21.4392 24.6636 21.4385C24.6628 21.4382 24.662 21.4378 24.6613 21.4374C24.659 21.4362 24.6566 21.4351 24.6543 21.4351C24.6125 21.4169 24.5707 21.3987 24.5336 21.3805C24.5323 21.3798 24.531 21.3792 24.5299 21.3786C24.5288 21.378 24.5278 21.3775 24.5269 21.3769C24.5214 21.3738 24.5172 21.3714 24.5103 21.3714C24.5013 21.3669 24.4919 21.3625 24.4825 21.358L24.4822 21.3578C24.4529 21.3439 24.4222 21.3293 24.3942 21.3122C24.3896 21.3076 24.3803 21.3031 24.3756 21.3031C24.3571 21.2917 24.3374 21.2803 24.3177 21.269L24.3176 21.2689C24.3064 21.2625 24.2953 21.2561 24.2844 21.2496C24.276 21.2447 24.2676 21.2397 24.2595 21.2348C24.2178 21.2075 24.1806 21.1847 24.1435 21.1619L24.1434 21.1619C24.1364 21.1573 24.1306 21.1539 24.1248 21.1505C24.119 21.1471 24.1132 21.1437 24.1063 21.1391C24.0956 21.1322 24.0848 21.1258 24.0744 21.1196C24.0577 21.1098 24.0416 21.1003 24.0273 21.089C24.0203 21.0845 24.0145 21.0811 24.0087 21.0777C24.0057 21.0759 24.0027 21.0742 23.9996 21.0722C23.9966 21.0704 23.9935 21.0685 23.9901 21.0663C23.9762 21.0595 23.9623 21.0515 23.9483 21.0435C23.9344 21.0355 23.9205 21.0276 23.9065 21.0207L23.8787 21.0071C23.8601 20.998 23.8427 20.9889 23.8253 20.9798C23.8078 20.9707 23.7904 20.9616 23.7719 20.9524C23.7687 20.9494 23.7634 20.9484 23.7588 20.9466C23.7567 20.9458 23.7548 20.9448 23.7533 20.9433L23.6697 20.9024C23.665 20.9001 23.6592 20.8978 23.6534 20.8955C23.6476 20.8933 23.6418 20.891 23.6372 20.8887C23.6255 20.8841 23.6139 20.8785 23.6023 20.8728C23.596 20.8697 23.5896 20.8665 23.5832 20.8636C23.578 20.8612 23.5727 20.8589 23.5675 20.8568C23.5582 20.8523 23.5489 20.8477 23.535 20.8432C23.521 20.8386 23.5083 20.8329 23.4955 20.8272C23.4827 20.8215 23.47 20.8158 23.456 20.8113C23.4549 20.8113 23.4537 20.811 23.4524 20.8106C23.4516 20.8103 23.4508 20.81 23.4499 20.8096C23.4467 20.8083 23.4429 20.8067 23.4374 20.8067C23.4049 20.7931 23.3771 20.784 23.3446 20.7749C23.3401 20.7727 23.3366 20.7715 23.3332 20.7704L23.3329 20.7703C23.3295 20.7692 23.326 20.768 23.3213 20.7658C23.3113 20.7618 23.3013 20.7587 23.2916 20.7558C23.2789 20.7519 23.2669 20.7482 23.2563 20.743C23.2517 20.7407 23.247 20.7396 23.2424 20.7384C23.2377 20.7373 23.2331 20.7362 23.2284 20.7339C23.2192 20.7316 23.2087 20.7282 23.1983 20.7248C23.1878 20.7214 23.1774 20.718 23.1681 20.7157C23.1634 20.7157 23.1599 20.7145 23.1565 20.7134C23.153 20.7123 23.1495 20.7111 23.1448 20.7111C23.117 20.702 23.0938 20.6975 23.0659 20.6929C23.038 20.6884 23.0148 20.6838 22.9916 20.6792C22.9885 20.6792 22.9859 20.6787 22.9836 20.6781C22.982 20.6776 22.9805 20.677 22.9791 20.6764C22.9768 20.6755 22.9749 20.6747 22.973 20.6747C22.9643 20.6726 22.9556 20.6715 22.9474 20.6704C22.938 20.6691 22.9293 20.668 22.9219 20.6656C22.9126 20.6656 22.908 20.6656 22.8987 20.661C22.8801 20.6565 22.8662 20.6565 22.8476 20.6565H22.829C22.8174 20.6565 22.807 20.6553 22.7966 20.6543L22.7965 20.6542C22.786 20.6531 22.7756 20.6519 22.764 20.6519H22.62C22.6112 20.6519 22.6025 20.653 22.5933 20.654H22.5932C22.5829 20.6553 22.5719 20.6565 22.5596 20.6565H22.5457C22.5387 20.6565 22.5318 20.6576 22.5248 20.6588C22.5178 20.6599 22.5109 20.661 22.5039 20.661H22.49C22.4836 20.6626 22.4777 20.6636 22.4721 20.6645C22.4695 20.6649 22.467 20.6653 22.4644 20.6656C22.4563 20.6667 22.4482 20.6679 22.4389 20.6701C22.4369 20.6701 22.4358 20.6701 22.4347 20.6705C22.4334 20.671 22.4323 20.6721 22.4296 20.6747C22.4267 20.6756 22.424 20.6766 22.4214 20.6775C22.4116 20.681 22.4034 20.6838 22.3924 20.6838C22.3901 20.6838 22.3878 20.6849 22.3855 20.6861C22.3831 20.6872 22.3808 20.6884 22.3785 20.6884L22.3367 20.702H22.3321C22.3228 20.7066 22.3088 20.7111 22.2995 20.7157C22.2972 20.7157 22.2961 20.7168 22.2949 20.718C22.2942 20.7186 22.2936 20.7192 22.2928 20.7197C22.2921 20.72 22.2913 20.7202 22.2902 20.7202C22.2856 20.7225 22.2798 20.7259 22.274 20.7293C22.2682 20.7327 22.2624 20.7362 22.2577 20.7384C22.1988 20.7725 22.1397 20.8116 22.0788 20.852L22.0786 20.8521C22.058 20.8658 22.0373 20.8795 22.0162 20.8933C22.0023 20.9024 21.9872 20.9115 21.9721 20.9206C21.957 20.9297 21.9419 20.9388 21.928 20.9479C21.914 20.957 21.9001 20.965 21.8862 20.9729C21.8722 20.9809 21.8583 20.9889 21.8444 20.998C21.8384 21.0009 21.833 21.0038 21.8277 21.0067C21.8247 21.0084 21.8218 21.01 21.8188 21.0116C21.8107 21.0162 21.8026 21.0207 21.7933 21.0253C21.7097 21.0708 21.6214 21.1164 21.5285 21.1482C21.496 21.1619 21.4636 21.171 21.4311 21.1801C21.3335 21.2074 21.2267 21.2256 21.1105 21.2256C21.0037 21.2256 20.9062 21.212 20.8133 21.1847C20.7971 21.1802 20.782 21.1756 20.7669 21.1711L20.7668 21.171C20.7517 21.1665 20.7367 21.1619 20.7204 21.1573C20.7018 21.1528 20.6832 21.1437 20.6647 21.1346C20.5718 21.0982 20.4882 21.0572 20.4046 21.0071C20.3894 20.9982 20.3748 20.9893 20.3603 20.9804C20.3526 20.9756 20.3449 20.9709 20.3372 20.9661C20.3152 20.9524 20.2931 20.9388 20.2699 20.9251L20.1445 20.8432C20.0841 20.8022 20.0237 20.7658 19.9633 20.7293C19.9587 20.7271 19.9529 20.7236 19.9471 20.7202C19.9413 20.7168 19.9355 20.7134 19.9308 20.7111C19.9298 20.7111 19.929 20.7109 19.9284 20.7106C19.9278 20.7103 19.9273 20.7099 19.9268 20.7095C19.9266 20.7093 19.9264 20.7091 19.9262 20.7088C19.925 20.7077 19.9239 20.7066 19.9215 20.7066C19.9169 20.7043 19.9111 20.702 19.9053 20.6997C19.9019 20.6984 19.8985 20.6971 19.8953 20.6958C19.8931 20.6948 19.891 20.6939 19.889 20.6929H19.8844L19.8426 20.6792C19.8379 20.6792 19.8333 20.6747 19.8333 20.6747C19.8304 20.6738 19.8277 20.6728 19.8251 20.6719C19.8153 20.6685 19.8071 20.6656 19.7961 20.6656C19.7915 20.6656 19.7915 20.6656 19.7869 20.661C19.7729 20.6565 19.7543 20.6519 19.7358 20.6519H19.7218C19.7079 20.6474 19.694 20.6474 19.6754 20.6474H19.6615C19.6527 20.6474 19.6439 20.6464 19.6347 20.6453L19.6346 20.6453C19.6243 20.6441 19.6133 20.6428 19.6011 20.6428H19.4571C19.4483 20.6428 19.4385 20.6439 19.4282 20.6449C19.4166 20.6461 19.4043 20.6474 19.3921 20.6474H19.3735C19.367 20.6474 19.3596 20.6484 19.3516 20.6494C19.3467 20.6501 19.3417 20.6507 19.3366 20.6512C19.3319 20.6517 19.3272 20.6519 19.3224 20.6519C19.3131 20.6519 19.3085 20.6519 19.2992 20.6565C19.2899 20.6588 19.2818 20.6599 19.2736 20.661C19.2655 20.6622 19.2574 20.6633 19.2481 20.6656C19.2434 20.6656 19.24 20.6667 19.2365 20.6679C19.233 20.669 19.2295 20.6701 19.2249 20.6701C19.2133 20.6724 19.2005 20.6747 19.1877 20.677L19.1872 20.6771C19.1746 20.6793 19.162 20.6816 19.1506 20.6838H19.1459C19.1343 20.6861 19.1215 20.6895 19.1088 20.6929L19.1086 20.693C19.0959 20.6964 19.0832 20.6998 19.0716 20.702C19.0623 20.702 19.0531 20.7066 19.0438 20.7111C19.0252 20.7157 19.0066 20.7202 18.988 20.7293C18.9834 20.7316 18.9788 20.7328 18.9741 20.7339C18.9695 20.735 18.9648 20.7362 18.9601 20.7384C18.9422 20.742 18.9271 20.7482 18.9104 20.7551C18.9055 20.7571 18.9004 20.7592 18.8951 20.7612C18.8905 20.7635 18.887 20.7646 18.8835 20.7658C18.88 20.7669 18.8765 20.768 18.8719 20.7703C18.8579 20.7749 18.8429 20.7806 18.8278 20.7863C18.8127 20.7919 18.7976 20.7976 18.7836 20.8022C18.7813 20.8045 18.7778 20.8056 18.7744 20.8067C18.7719 20.8076 18.7694 20.8084 18.7674 20.8096C18.7665 20.8101 18.7658 20.8107 18.7651 20.8113C18.76 20.8133 18.7548 20.8153 18.7494 20.8173C18.73 20.8246 18.709 20.8325 18.6907 20.8432C18.6883 20.8444 18.6855 20.8456 18.6827 20.8468C18.68 20.8479 18.6772 20.849 18.6745 20.85C18.6687 20.8523 18.6629 20.8546 18.6582 20.8568C18.635 20.8659 18.6118 20.875 18.5886 20.8887C18.5839 20.891 18.5781 20.8933 18.5723 20.8955C18.5665 20.8978 18.5607 20.9001 18.5561 20.9024L18.4725 20.9433C18.4701 20.9456 18.4666 20.9468 18.4632 20.9479C18.4597 20.949 18.4562 20.9502 18.4539 20.9524C18.4214 20.9707 18.3842 20.9889 18.3471 21.0071C18.3378 21.0116 18.3285 21.0162 18.3192 21.0253C18.2913 21.039 18.2635 21.0526 18.2402 21.0708C18.2333 21.0754 18.2275 21.0788 18.2217 21.0822C18.2158 21.0856 18.21 21.089 18.2031 21.0936C18.1961 21.0971 18.1894 21.1008 18.1828 21.1047C18.1763 21.1085 18.17 21.1125 18.1636 21.1164C18.1508 21.1243 18.138 21.1323 18.1241 21.1391C18.1171 21.1437 18.1113 21.1471 18.1055 21.1505C18.0997 21.1539 18.0939 21.1573 18.087 21.1619C18.0684 21.1733 18.0486 21.1858 18.0289 21.1983C18.0092 21.2108 17.9894 21.2234 17.9708 21.2348C17.9337 21.2575 17.8965 21.2803 17.8547 21.3031C17.8501 21.3076 17.8408 21.3122 17.8362 21.3122C17.799 21.3349 17.7618 21.3531 17.72 21.3714C17.7189 21.3719 17.7178 21.3725 17.7167 21.3731C17.7156 21.3737 17.7145 21.3744 17.7134 21.375C17.7079 21.3781 17.7036 21.3805 17.6968 21.3805C17.676 21.3896 17.6562 21.3987 17.6365 21.4078H17.6364C17.6167 21.4169 17.597 21.426 17.5761 21.4351C17.5737 21.4351 17.5714 21.4362 17.5691 21.4374C17.5668 21.4385 17.5644 21.4397 17.5621 21.4397C17.5315 21.453 17.5008 21.464 17.4719 21.4742C17.4615 21.478 17.4513 21.4816 17.4414 21.4852C17.4386 21.4852 17.4358 21.4868 17.433 21.4882C17.4312 21.489 17.4293 21.4897 17.4274 21.4897C17.3856 21.5034 17.3438 21.5171 17.2974 21.5307C17.2927 21.533 17.2893 21.5341 17.2858 21.5353C17.2823 21.5366 17.2788 21.5376 17.2742 21.5398C17.2501 21.5476 17.226 21.5539 17.2009 21.5608H17.2008H17.2007C17.1824 21.5658 17.1637 21.5703 17.1441 21.5763C17.1395 21.5763 17.136 21.5776 17.1326 21.5785C17.1291 21.5799 17.1255 21.5808 17.1209 21.5808C17.0977 21.5854 17.0756 21.5913 17.0536 21.5967C17.0315 21.6027 17.0094 21.6081 16.9862 21.6127H16.9816C16.9583 21.6172 16.9363 21.6218 16.9142 21.6263C16.8922 21.6309 16.8701 21.6355 16.8469 21.64C16.8435 21.64 16.8377 21.6423 16.8329 21.6436C16.8312 21.6441 16.8295 21.6446 16.8283 21.6446C16.8074 21.6491 16.7853 21.6528 16.7633 21.6559C16.7412 21.6596 16.7191 21.6628 16.6982 21.6673C16.6943 21.6673 16.6913 21.6682 16.6883 21.6691C16.6861 21.6696 16.6839 21.6705 16.6815 21.671C16.6795 21.6714 16.6774 21.6719 16.675 21.6719C16.6541 21.6742 16.6321 21.6778 16.61 21.681C16.5879 21.6846 16.5659 21.6878 16.545 21.6901H16.5264L16.401 21.7038H16.3917C16.3499 21.7083 16.3081 21.7129 16.2663 21.7129H16.2431C16.2222 21.7151 16.2025 21.7165 16.1828 21.7174H16.1827C16.163 21.7188 16.1432 21.7197 16.1223 21.722H16.1037C16.0822 21.722 16.062 21.7233 16.0423 21.7242H16.0422C16.0237 21.7256 16.0057 21.7265 15.9876 21.7265H15.9783C15.9412 21.7265 15.904 21.7265 15.8669 21.7311H15.4303C15.4256 21.7311 15.4256 21.7311 15.421 21.7356C15.4187 21.7356 15.4175 21.737 15.4164 21.7379C15.4152 21.7393 15.414 21.7402 15.4117 21.7402C15.4071 21.7402 15.4071 21.7402 15.4024 21.7447C15.4001 21.7447 15.3989 21.7461 15.3978 21.747C15.3966 21.7484 15.3955 21.7493 15.3931 21.7493C15.3908 21.7493 15.3897 21.7507 15.3885 21.7516C15.3874 21.7525 15.3862 21.7538 15.3838 21.7538C15.3815 21.7538 15.3804 21.7552 15.3792 21.7561C15.378 21.7575 15.3769 21.7584 15.3746 21.7584L15.3699 21.7629C15.3653 21.7675 15.3653 21.7675 15.3653 21.7721L15.3606 21.7766C15.3606 21.7802 15.358 21.7807 15.3567 21.783C15.3563 21.7839 15.356 21.7848 15.356 21.7857C15.356 21.7875 15.3552 21.7884 15.3544 21.7898C15.3538 21.7903 15.3531 21.7907 15.3525 21.7916C15.3522 21.7921 15.3518 21.7925 15.3516 21.793C15.3514 21.7935 15.3513 21.7944 15.3513 21.7948C15.3513 21.7971 15.3502 21.7985 15.349 21.7994C15.3479 21.8007 15.3467 21.8016 15.3467 21.8039C15.3467 21.8085 15.3467 21.8085 15.342 21.813C15.342 21.8176 15.342 21.8176 15.3374 21.8221V21.8859C15.3374 21.8882 15.3386 21.8895 15.3397 21.8904C15.3409 21.8918 15.342 21.8927 15.342 21.895C15.342 21.8995 15.342 21.8995 15.3467 21.9041C15.3467 21.9064 15.3479 21.9077 15.349 21.9087C15.3502 21.91 15.3513 21.9109 15.3513 21.9132C15.3513 21.9132 15.3513 21.915 15.3524 21.9164C15.3531 21.9173 15.3542 21.9178 15.356 21.9178C15.3577 21.9196 15.3589 21.9214 15.3598 21.9228C15.3613 21.925 15.3624 21.9269 15.3653 21.9269L15.3699 21.9314C15.3746 21.936 15.3792 21.9405 15.3885 21.9451C15.4028 21.9565 15.4189 21.9656 15.4356 21.9756C15.446 21.982 15.4568 21.9883 15.4674 21.9952C15.4721 21.9974 15.4756 21.9997 15.4791 22.002C15.4825 22.0043 15.486 22.0065 15.4907 22.0088C15.5023 22.0157 15.5151 22.0225 15.5278 22.0293C15.5406 22.0361 15.5534 22.043 15.565 22.0498C15.5696 22.0498 15.5743 22.0544 15.5743 22.0544C15.5832 22.0589 15.5927 22.063 15.6025 22.0676C15.6231 22.0771 15.6451 22.0876 15.6672 22.0999C15.6765 22.1044 15.6811 22.109 15.6904 22.109C15.7183 22.1227 15.7415 22.1318 15.7693 22.1409C15.7717 22.1431 15.7751 22.1445 15.7786 22.1454C15.7821 22.1468 15.7856 22.1477 15.7879 22.15C15.8204 22.1636 15.8529 22.1773 15.8901 22.1864C15.8947 22.1887 15.8982 22.19 15.9017 22.191H15.9018C15.9052 22.1923 15.9087 22.1932 15.9133 22.1955C15.9412 22.2046 15.9691 22.2137 16.0016 22.2228C16.0057 22.2247 16.0097 22.226 16.0134 22.2269C16.0181 22.2283 16.0222 22.2292 16.0248 22.2319C16.0434 22.2365 16.0608 22.2424 16.0782 22.2479C16.0956 22.2538 16.113 22.2593 16.1316 22.2638C16.1339 22.2638 16.1374 22.2652 16.1409 22.2661C16.143 22.267 16.1451 22.2675 16.147 22.2679C16.1482 22.2684 16.1493 22.2684 16.1502 22.2684C16.1664 22.2729 16.1815 22.2766 16.1966 22.2797C16.2117 22.2834 16.2268 22.2866 16.2431 22.2911C16.2477 22.2911 16.2524 22.2925 16.257 22.2934C16.2598 22.2943 16.2626 22.2948 16.2654 22.2952C16.2673 22.2957 16.2691 22.2957 16.271 22.2957C16.3081 22.3048 16.3453 22.3139 16.3824 22.3185C16.3846 22.3185 16.3868 22.3185 16.389 22.3189C16.3914 22.3194 16.3939 22.3207 16.3964 22.323C16.4126 22.3253 16.43 22.3289 16.4474 22.3321H16.4476C16.465 22.3358 16.4823 22.3389 16.4985 22.3412C16.5032 22.3412 16.5078 22.3426 16.5125 22.3435C16.5171 22.3449 16.5218 22.3458 16.5264 22.3458C16.5449 22.348 16.5635 22.3517 16.582 22.3549H16.5823C16.6008 22.3585 16.6193 22.3617 16.6379 22.364H16.6425L16.754 22.3776C16.7633 22.3776 16.7726 22.3776 16.7818 22.3822C16.7935 22.3845 16.8051 22.3858 16.8167 22.3868C16.8283 22.3881 16.8399 22.389 16.8515 22.3913C16.8608 22.3913 16.8701 22.3913 16.8794 22.3959H16.8933C16.9036 22.3972 16.9139 22.3981 16.9241 22.3986C16.9318 22.3995 16.9393 22.4 16.9468 22.4004C16.9654 22.4013 16.9834 22.4027 17.0001 22.405H17.028C17.0419 22.405 17.0569 22.4063 17.072 22.4072H17.0723C17.0873 22.4086 17.1024 22.4095 17.1163 22.4095H17.4321C17.446 22.4095 17.4599 22.4095 17.4739 22.405C17.4832 22.405 17.4971 22.405 17.5064 22.4004C17.5134 22.4004 17.5203 22.3995 17.5272 22.3981H17.5273C17.5343 22.3972 17.5412 22.3959 17.5482 22.3959C17.5575 22.3959 17.5668 22.3959 17.5761 22.3913C17.5837 22.3913 17.5914 22.3899 17.5983 22.3886C17.6039 22.3877 17.609 22.3868 17.6132 22.3868C17.6179 22.3868 17.6225 22.3858 17.6272 22.3845C17.6293 22.384 17.6315 22.3836 17.6337 22.3831C17.6361 22.3827 17.6386 22.3822 17.6411 22.3822C17.6481 22.3822 17.6539 22.3813 17.6597 22.3799C17.6655 22.379 17.6713 22.3776 17.6782 22.3776C17.6837 22.3776 17.6891 22.3763 17.6937 22.3749C17.6968 22.374 17.6996 22.3731 17.7015 22.3731C17.7078 22.3708 17.7142 22.3699 17.7202 22.369C17.7272 22.3676 17.7336 22.3663 17.7386 22.364C17.7409 22.364 17.7444 22.3631 17.7479 22.3617C17.7497 22.3613 17.7515 22.3603 17.7531 22.3603C17.7547 22.3599 17.7561 22.3594 17.7572 22.3594C17.7758 22.3549 17.7944 22.3503 17.8083 22.3458C17.8269 22.3389 17.8466 22.3335 17.8663 22.3276C17.8861 22.3221 17.9058 22.3162 17.9244 22.3093C17.9308 22.3071 17.9372 22.3062 17.9431 22.3052C17.9473 22.3043 17.9513 22.3039 17.9549 22.3025C17.9573 22.3021 17.9595 22.3011 17.9616 22.3002C17.9755 22.298 17.9883 22.2948 18.001 22.2911C18.0138 22.2879 18.0266 22.2843 18.0405 22.282C18.0475 22.2798 18.0556 22.2788 18.0637 22.2775C18.0719 22.2766 18.08 22.2752 18.087 22.2729L18.1566 22.2593C18.1636 22.257 18.1717 22.2561 18.1798 22.2547C18.188 22.2538 18.1961 22.2524 18.2031 22.2502C18.2263 22.2456 18.2495 22.241 18.2727 22.241C18.2913 22.2365 18.3053 22.2365 18.3238 22.2365C18.3354 22.2342 18.3471 22.2333 18.3587 22.2319C18.3703 22.231 18.3819 22.2297 18.3935 22.2274C18.4028 22.2274 18.4109 22.2265 18.419 22.2251H18.419C18.4272 22.2242 18.4353 22.2228 18.4446 22.2228C18.4562 22.2228 18.4678 22.2219 18.4793 22.2206H18.4795C18.4911 22.2196 18.5027 22.2183 18.5143 22.2183C18.5282 22.2183 18.5468 22.2183 18.5607 22.2137H18.8069C18.8254 22.2137 18.844 22.2137 18.8579 22.2183C18.8695 22.2183 18.8823 22.2196 18.895 22.2206H18.8951C18.9079 22.2219 18.9206 22.2228 18.9323 22.2228C18.9416 22.2228 18.9508 22.2242 18.9601 22.2251C18.9694 22.2265 18.9787 22.2274 18.988 22.2274C18.9996 22.2297 19.0112 22.231 19.0228 22.2319C19.0344 22.2333 19.0461 22.2342 19.0577 22.2365C19.067 22.2388 19.0762 22.2401 19.0855 22.241C19.0948 22.2424 19.1041 22.2433 19.1134 22.2456L19.1831 22.2593C19.1918 22.2615 19.2005 22.2624 19.2087 22.2638C19.218 22.2647 19.2268 22.2661 19.2342 22.2684L19.3038 22.282C19.3131 22.2843 19.3212 22.2866 19.3294 22.2889C19.3375 22.2911 19.3456 22.2934 19.3549 22.2957C19.3642 22.2975 19.3741 22.3002 19.3843 22.3025L19.3921 22.3048C19.4048 22.3084 19.4176 22.3116 19.4292 22.3139C19.4432 22.3185 19.4617 22.323 19.4757 22.3276H19.4758C19.5036 22.3367 19.5315 22.3458 19.5546 22.3549C19.5686 22.3594 19.5825 22.364 19.5918 22.3685C19.6336 22.3822 19.6707 22.3959 19.7125 22.4141C19.7218 22.4163 19.73 22.42 19.7381 22.4232H19.7381C19.7463 22.4268 19.7544 22.43 19.7636 22.4323C19.8333 22.4596 19.903 22.4824 19.9773 22.5051C19.9959 22.512 20.0144 22.5179 20.033 22.5234C20.0516 22.5293 20.0702 22.5347 20.0887 22.5416C20.1073 22.5461 20.1259 22.5507 20.1445 22.5598C20.1561 22.5643 20.1689 22.568 20.1816 22.5712C20.1885 22.573 20.1954 22.5748 20.2021 22.5771C20.2078 22.5784 20.2135 22.5803 20.2188 22.5825L20.3721 22.6235L20.4835 22.6508C20.4963 22.654 20.5086 22.6572 20.5207 22.6604L20.5369 22.6645C20.5472 22.6672 20.5574 22.67 20.5678 22.6727C20.5752 22.6745 20.5827 22.6763 20.5904 22.6782C20.6229 22.6873 20.66 22.6964 20.6879 22.7009C20.7041 22.7055 20.7192 22.7091 20.7343 22.7123C20.7494 22.716 20.7645 22.7191 20.7808 22.7237C20.8226 22.7328 20.8644 22.7419 20.9015 22.751C20.9248 22.7556 20.948 22.7601 20.9666 22.7647C20.9851 22.7692 21.0037 22.7738 21.0177 22.7738C21.0548 22.7829 21.0734 22.7829 21.0734 22.7829C21.0734 22.7829 21.0827 22.7829 21.1059 22.7783C21.1078 22.7783 21.1105 22.7774 21.1137 22.7765C21.1183 22.7752 21.1237 22.7738 21.1291 22.7738H21.1384C21.1463 22.7711 21.1526 22.7701 21.16 22.7688C21.1657 22.7679 21.1721 22.7665 21.1802 22.7647C21.1852 22.7624 21.1916 22.761 21.1986 22.7597C21.2046 22.7588 21.211 22.7579 21.2174 22.7556C21.2267 22.7556 21.2406 22.751 21.2499 22.7465H21.2502C21.2872 22.7374 21.3243 22.7283 21.3706 22.7191C21.4449 22.7009 21.5239 22.6827 21.6122 22.6645C21.6354 22.66 21.6586 22.6554 21.6818 22.6463C21.7143 22.6372 21.7468 22.6281 21.7794 22.6235L21.9326 22.5825C21.9442 22.578 21.957 22.5748 21.9698 22.5712C21.9826 22.568 21.9953 22.5643 22.0069 22.5598C22.0185 22.5552 22.0313 22.552 22.0441 22.5484C22.0569 22.5452 22.0696 22.5416 22.0812 22.537C22.0929 22.5334 22.1037 22.5302 22.1141 22.5275C22.1285 22.5234 22.142 22.5197 22.1556 22.5142C22.1625 22.512 22.1683 22.5097 22.1741 22.5074C22.1799 22.5051 22.1857 22.5029 22.1927 22.5006C22.2294 22.4897 22.2661 22.4769 22.3018 22.4646L22.3019 22.4642C22.3249 22.4564 22.3474 22.4487 22.3692 22.4414L22.411 22.4277L22.4389 22.4141C22.4473 22.4109 22.4561 22.4077 22.4649 22.4041C22.4706 22.4018 22.4764 22.3995 22.4823 22.3972C22.5073 22.3877 22.5335 22.3772 22.5596 22.3685C22.5736 22.364 22.5875 22.3594 22.5968 22.3549C22.6247 22.3458 22.6525 22.3367 22.6757 22.3276C22.6827 22.3253 22.6908 22.323 22.699 22.3207C22.7036 22.3194 22.7081 22.318 22.7125 22.3171C22.7159 22.3157 22.7192 22.3148 22.7222 22.3139C22.7422 22.3062 22.7656 22.3016 22.7865 22.2975C22.7899 22.2971 22.7933 22.2961 22.7965 22.2957C22.8058 22.2934 22.8139 22.2911 22.822 22.2889C22.8302 22.2866 22.8383 22.2843 22.8476 22.282H22.8481C22.8711 22.2775 22.8942 22.2729 22.9219 22.2684C22.9306 22.2661 22.9393 22.2652 22.9475 22.2643C22.9569 22.2629 22.9656 22.2615 22.973 22.2593L23.0427 22.2456C23.0514 22.2433 23.0601 22.2424 23.0683 22.2415C23.0776 22.2401 23.0864 22.2388 23.0938 22.2365C23.1059 22.2342 23.1181 22.2328 23.131 22.2319C23.1426 22.2306 23.1548 22.2297 23.1681 22.2274C23.1774 22.2274 23.1866 22.2265 23.1959 22.2251H23.196C23.2053 22.2242 23.2146 22.2228 23.2238 22.2228C23.2321 22.2228 23.241 22.2224 23.2501 22.2215C23.2537 22.221 23.2573 22.221 23.261 22.2206C23.2737 22.2196 23.2865 22.2183 23.2981 22.2183C23.3167 22.2183 23.3353 22.2183 23.3492 22.2137H23.5954C23.6093 22.2137 23.6279 22.2137 23.6418 22.2183C23.6534 22.2183 23.665 22.2196 23.6765 22.2206H23.6767C23.6883 22.2219 23.6999 22.2228 23.7115 22.2228C23.7184 22.2228 23.7265 22.2242 23.7346 22.2251H23.7348C23.7429 22.2265 23.751 22.2274 23.7579 22.2274C23.7695 22.2297 23.7811 22.231 23.7928 22.2319C23.8044 22.2333 23.816 22.2342 23.8276 22.2365C23.8555 22.2401 23.8744 22.2424 23.8883 22.2438C23.9091 22.2465 23.9186 22.2474 23.9298 22.2502Z" fill="url(#paint4_linear_202_596)"/>
<path d="M23.8671 23.7872C23.8682 23.7895 23.8694 23.7918 23.8694 23.7941C23.8703 23.795 23.8711 23.7959 23.872 23.7963C23.8754 23.7986 23.8807 23.7977 23.9065 23.7941V23.8214C23.9065 23.8305 23.9065 23.8396 23.9019 23.8487C23.8972 23.8533 23.8972 23.8578 23.8972 23.8578C23.888 23.8715 23.8833 23.8851 23.8787 23.9033C23.8763 23.9079 23.8752 23.9115 23.874 23.9147C23.8729 23.9184 23.8717 23.9215 23.8694 23.9261C23.8659 23.9361 23.8625 23.9439 23.859 23.953C23.8578 23.9557 23.8566 23.9589 23.8554 23.9625C23.8554 23.9716 23.8508 23.9807 23.8462 23.9898C23.8415 24.0035 23.8369 24.0126 23.8322 24.0263L23.8183 24.0536C23.809 24.0673 23.8044 24.0809 23.7997 24.0946C23.7951 24.1082 23.7904 24.1173 23.7858 24.1264C23.7835 24.1333 23.78 24.1401 23.7765 24.1469C23.773 24.1538 23.7695 24.1606 23.7672 24.1674C23.7649 24.172 23.7626 24.1779 23.7602 24.1834C23.7579 24.1893 23.7556 24.1947 23.7533 24.1993C23.7486 24.213 23.744 24.2266 23.7347 24.2403C23.7276 24.2471 23.7232 24.2567 23.7194 24.2649C23.7183 24.2676 23.7172 24.2699 23.7161 24.2722C23.7115 24.2813 23.7115 24.2858 23.7068 24.2904L23.6929 24.3177C23.6906 24.3245 23.6871 24.3304 23.6836 24.3359C23.6801 24.3418 23.6766 24.3473 23.6743 24.3541C23.665 24.3723 23.6604 24.386 23.6511 24.3997C23.6488 24.4065 23.6453 24.4124 23.6418 24.4179C23.6383 24.4238 23.6348 24.4292 23.6325 24.4361C23.6279 24.4429 23.6232 24.4511 23.6186 24.4588C23.6139 24.467 23.6093 24.4748 23.6046 24.4816C23.5953 24.4953 23.5907 24.5044 23.5814 24.518C23.5768 24.5249 23.5721 24.5331 23.5675 24.5408C23.5628 24.549 23.5582 24.5567 23.5535 24.5636C23.5489 24.5727 23.5396 24.5863 23.5303 24.6C23.5257 24.6068 23.521 24.615 23.5164 24.6228C23.5117 24.631 23.5071 24.6387 23.5025 24.6455L23.4746 24.6865C23.4699 24.6933 23.4641 24.7015 23.4583 24.7093C23.4525 24.7175 23.4467 24.7252 23.4421 24.732L23.4142 24.773C23.4049 24.7867 23.391 24.8049 23.3817 24.8186C23.3678 24.8322 23.3585 24.8459 23.3492 24.8595C23.3422 24.8664 23.3364 24.8746 23.3306 24.8823C23.3248 24.8905 23.319 24.8982 23.312 24.9051C23.3074 24.9119 23.3016 24.9187 23.2958 24.9256C23.29 24.9324 23.2842 24.9392 23.2795 24.9461C23.2702 24.9643 23.2563 24.9779 23.2424 24.9916C23.2333 24.9975 23.2262 25.0052 23.2184 25.0139C23.2143 25.0184 23.21 25.0235 23.2052 25.028C23.1913 25.0462 23.1774 25.0599 23.1635 25.0735H23.1634C23.1543 25.0795 23.1472 25.0872 23.1394 25.0959C23.1354 25.1004 23.1311 25.1054 23.1263 25.11L23.0844 25.151C23.0775 25.1578 23.0705 25.1637 23.0636 25.1692C23.0566 25.1751 23.0496 25.1805 23.0426 25.1874C23.0357 25.1942 23.0276 25.201 23.0194 25.2079C23.0113 25.2147 23.0032 25.2215 22.9962 25.2284C22.9892 25.2352 22.9823 25.2411 22.9753 25.2466C22.9683 25.2525 22.9614 25.258 22.9544 25.2648C22.9474 25.2716 22.9393 25.2784 22.9312 25.2853C22.9231 25.2921 22.9149 25.2989 22.908 25.3058C22.8894 25.3194 22.8754 25.3285 22.8615 25.3422C22.8522 25.349 22.8441 25.3549 22.836 25.3604C22.8278 25.3663 22.8197 25.3718 22.8104 25.3786C22.8 25.3854 22.7869 25.395 22.7752 25.4028C22.7712 25.4055 22.7675 25.4082 22.764 25.4105C22.7553 25.4191 22.7448 25.426 22.7336 25.4328C22.7269 25.4374 22.7199 25.4419 22.7129 25.4469C22.7036 25.4515 22.6955 25.4574 22.6873 25.4629C22.6792 25.4688 22.6711 25.4742 22.6618 25.4788C22.6525 25.4833 22.6432 25.4893 22.6339 25.4947C22.6246 25.5006 22.6154 25.5061 22.6061 25.5107C22.5875 25.5243 22.5736 25.5334 22.555 25.5425C22.5407 25.548 22.5282 25.5553 22.5163 25.5626C22.5089 25.5667 22.5017 25.5708 22.4946 25.5744L22.4389 25.6017C22.4203 25.6108 22.3971 25.6199 22.3785 25.6291C22.36 25.6336 22.3414 25.6427 22.3228 25.6518H22.3227C22.3111 25.6564 22.3007 25.6609 22.2902 25.6655C22.2798 25.67 22.2693 25.6746 22.2577 25.6791C22.2484 25.6837 22.238 25.6873 22.2275 25.6905C22.2171 25.6942 22.2066 25.6974 22.1973 25.7019C22.1868 25.7069 22.1748 25.711 22.162 25.7147C22.1524 25.7178 22.1424 25.7206 22.1323 25.7247C22.1244 25.7265 22.1166 25.7292 22.1083 25.7324C22.0972 25.7361 22.0853 25.7402 22.0719 25.7429C22.0603 25.7452 22.0487 25.7488 22.0371 25.752C22.0255 25.7556 22.0139 25.7588 22.0023 25.7611C21.9791 25.7702 21.9605 25.7748 21.9373 25.7793C21.914 25.7839 21.8862 25.7884 21.8629 25.793L21.7933 25.8066C21.7654 25.8112 21.7422 25.8157 21.7143 25.8203C21.7027 25.8226 21.6911 25.8239 21.6795 25.8248C21.6679 25.8262 21.6563 25.8271 21.6446 25.8294C21.6326 25.8317 21.6192 25.833 21.6053 25.834C21.5924 25.8353 21.5791 25.8362 21.5657 25.8385C21.5541 25.8385 21.5413 25.8399 21.5285 25.8408C21.5158 25.8422 21.503 25.8431 21.4914 25.8431C21.4635 25.8476 21.4356 25.8476 21.4078 25.8476H21.3335C21.3079 25.8476 21.2824 25.8467 21.2568 25.8453C21.2313 25.8444 21.2057 25.8431 21.1802 25.8431C21.1152 25.8385 21.0594 25.834 20.9991 25.8294C20.9387 25.8248 20.8829 25.8203 20.8272 25.8112C20.6043 25.7793 20.3999 25.7338 20.2141 25.67C20.0284 25.6063 19.8612 25.5334 19.7125 25.4469C19.1505 25.1236 18.8208 24.6683 18.635 24.2949C18.635 24.2926 18.6338 24.2917 18.6327 24.2904C18.6315 24.2895 18.6304 24.2881 18.6304 24.2858H18.6303C18.6071 24.2403 18.5839 24.1947 18.5653 24.1538C18.5597 24.1401 18.554 24.1264 18.5485 24.1128C18.5265 24.06 18.5058 24.0099 18.491 23.9625C18.4771 23.9261 18.4632 23.8897 18.4539 23.8578C18.4492 23.8532 18.4492 23.8441 18.4492 23.835V23.8259C18.4539 23.8214 18.4539 23.8168 18.4539 23.8123C18.4585 23.8077 18.4585 23.8077 18.4585 23.8032C18.4585 23.7986 18.4585 23.7941 18.4632 23.7895L18.4678 23.7849C18.4678 23.7804 18.4724 23.7758 18.4771 23.7713L18.4817 23.7667C18.4841 23.7645 18.4875 23.7622 18.491 23.7599C18.4945 23.7576 18.498 23.7553 18.5003 23.7531H18.505C18.5084 23.7531 18.5144 23.7508 18.5192 23.7494C18.5208 23.749 18.5223 23.7485 18.5235 23.7485H18.556C18.5653 23.7485 18.57 23.7485 18.5793 23.7531H18.5794C18.5886 23.7576 18.5979 23.7622 18.6118 23.7667C18.6118 23.7667 18.6164 23.7713 18.6211 23.7713L18.6489 23.7849C18.6536 23.7849 18.6582 23.7895 18.6629 23.7895L18.6907 23.8032C18.6931 23.8032 18.6954 23.8045 18.6977 23.8054C18.7 23.8068 18.7023 23.8077 18.7047 23.8077C18.714 23.8123 18.7279 23.8168 18.7418 23.8214H18.7465C18.7604 23.8259 18.779 23.835 18.7929 23.8396C18.7976 23.8396 18.8022 23.8441 18.8068 23.8441C18.8115 23.8464 18.8173 23.8487 18.8231 23.851C18.8289 23.8532 18.8347 23.8555 18.8394 23.8578C18.8417 23.8601 18.8452 23.8614 18.8486 23.8624C18.8521 23.8637 18.8556 23.8646 18.8579 23.8669C18.8626 23.8692 18.8684 23.8715 18.8742 23.8737C18.88 23.876 18.8858 23.8783 18.8904 23.8806C18.8928 23.8828 18.8963 23.8842 18.8997 23.8851C18.9032 23.8865 18.9067 23.8874 18.909 23.8897L18.9508 23.9033C18.9531 23.9033 18.9555 23.9047 18.9578 23.9056C18.9601 23.907 18.9624 23.9079 18.9648 23.9079C18.974 23.9102 18.9833 23.9138 18.9926 23.917C19.0019 23.9206 19.0112 23.9238 19.0205 23.9261C19.0228 23.9261 19.0263 23.9275 19.0298 23.9284C19.0333 23.9297 19.0367 23.9307 19.0391 23.9307L19.0809 23.9443C19.0855 23.9466 19.089 23.948 19.0925 23.9489C19.096 23.9502 19.0995 23.9511 19.1041 23.9534C19.1134 23.958 19.1273 23.9625 19.1413 23.9671C19.1435 23.9694 19.1467 23.9703 19.1505 23.9716C19.1548 23.9725 19.1596 23.9739 19.1645 23.9762C19.1714 23.9785 19.1796 23.9807 19.1877 23.983C19.1958 23.9853 19.204 23.9876 19.2109 23.9898C19.2132 23.9898 19.2167 23.9912 19.2202 23.9921C19.2237 23.9935 19.2272 23.9944 19.2295 23.9944C19.2411 23.9967 19.2516 24.0003 19.262 24.0035C19.2725 24.0071 19.2829 24.0103 19.2945 24.0126C19.2992 24.0126 19.3026 24.014 19.3061 24.0149C19.3096 24.0163 19.3131 24.0172 19.3177 24.0172C19.3258 24.0199 19.3353 24.0226 19.3447 24.0249C19.3516 24.0272 19.3583 24.029 19.3642 24.0308C19.3688 24.0331 19.3735 24.0345 19.3781 24.0354C19.3828 24.0367 19.3874 24.0377 19.3921 24.0399C19.399 24.0422 19.4072 24.0445 19.4153 24.0468C19.4234 24.049 19.4315 24.0513 19.4385 24.0536C19.4431 24.0559 19.4478 24.0572 19.4524 24.0581C19.4571 24.0595 19.4617 24.0604 19.4664 24.0627C19.4849 24.0673 19.4989 24.0718 19.5175 24.0764C19.5194 24.0764 19.5221 24.0773 19.5253 24.0782C19.5298 24.0795 19.5352 24.0809 19.5407 24.0809C19.5523 24.0832 19.5651 24.0868 19.5778 24.09C19.5906 24.0937 19.6034 24.0969 19.615 24.0991C19.6196 24.0991 19.6231 24.1005 19.6266 24.1014C19.6301 24.1028 19.6336 24.1037 19.6382 24.1037L19.6939 24.1173C19.7001 24.1192 19.7053 24.1205 19.71 24.1214C19.716 24.1228 19.7213 24.1237 19.7265 24.1264C19.7418 24.1264 19.7541 24.1296 19.7684 24.1333C19.7713 24.1342 19.7744 24.1346 19.7776 24.1356C19.7822 24.1378 19.788 24.1392 19.7938 24.1401C19.7996 24.1415 19.8054 24.1424 19.8101 24.1447L19.8658 24.1583C19.8704 24.1583 19.8751 24.1597 19.8797 24.1606C19.8844 24.162 19.889 24.1629 19.8937 24.1629C19.9215 24.172 19.9494 24.1765 19.9773 24.1811C19.9796 24.1811 19.9831 24.1825 19.9866 24.1834C19.99 24.1847 19.9935 24.1856 19.9958 24.1856L20.0655 24.1993C20.0707 24.1993 20.0773 24.2007 20.0837 24.202C20.0888 24.2029 20.0939 24.2039 20.098 24.2039C20.1089 24.2061 20.1188 24.207 20.1281 24.2084C20.1387 24.2093 20.1486 24.2107 20.1584 24.213C20.163 24.213 20.1689 24.2143 20.1747 24.2152C20.1805 24.2166 20.1863 24.2175 20.1909 24.2175C20.2025 24.2198 20.213 24.2212 20.2234 24.2221C20.2339 24.2234 20.2443 24.2243 20.2559 24.2266C20.2606 24.2266 20.2652 24.228 20.2699 24.2289C20.2745 24.2303 20.2792 24.2312 20.2838 24.2312C20.3117 24.2357 20.3442 24.2403 20.3767 24.2448H20.3906C20.4046 24.2471 20.4185 24.2485 20.4324 24.2494C20.4464 24.2508 20.4603 24.2517 20.4742 24.2539C20.4835 24.2585 20.4975 24.2585 20.5067 24.2585C20.5155 24.2585 20.5253 24.2594 20.5357 24.2608C20.5472 24.2617 20.5595 24.2631 20.5718 24.2631C20.5857 24.2676 20.595 24.2676 20.6089 24.2676C20.6205 24.2676 20.6321 24.269 20.6438 24.2699C20.6554 24.2712 20.667 24.2722 20.6786 24.2722C20.6879 24.2767 20.7018 24.2767 20.7111 24.2767C20.7274 24.2767 20.7448 24.2781 20.7622 24.279C20.7796 24.2804 20.797 24.2813 20.8133 24.2813C20.8295 24.2813 20.847 24.2826 20.8644 24.2835C20.8818 24.2849 20.8992 24.2858 20.9155 24.2858H21.3242C21.3428 24.2858 21.3613 24.2849 21.3799 24.2835C21.3985 24.2826 21.4171 24.2813 21.4356 24.2813H21.4635C21.4867 24.279 21.5088 24.2781 21.5309 24.2767C21.5529 24.2758 21.575 24.2744 21.5982 24.2722H21.6261C21.6453 24.2699 21.6644 24.2685 21.6842 24.2676C21.7028 24.2662 21.7219 24.2653 21.7422 24.2631H21.7654C21.8072 24.2585 21.8537 24.2539 21.9001 24.2494C21.9047 24.2494 21.9094 24.2485 21.914 24.2471C21.9187 24.2462 21.9233 24.2448 21.928 24.2448C21.9698 24.2357 22.0116 24.2312 22.0534 24.2266C22.0627 24.2221 22.0673 24.2221 22.0766 24.2221C22.0998 24.2175 22.123 24.2143 22.1463 24.2107C22.1695 24.2075 22.1927 24.2039 22.2159 24.1993C22.2236 24.1993 22.2299 24.1979 22.2355 24.1966C22.2401 24.1957 22.2443 24.1948 22.2484 24.1948C22.2902 24.1902 22.3367 24.1811 22.3785 24.172C22.3808 24.172 22.3843 24.1711 22.3878 24.1697C22.3913 24.1688 22.3947 24.1674 22.3971 24.1674C22.4203 24.1629 22.4447 24.1574 22.4691 24.1515C22.4934 24.146 22.5178 24.1401 22.541 24.1356C22.5457 24.1333 22.5515 24.1324 22.5573 24.131C22.5631 24.1301 22.5689 24.1287 22.5736 24.1264C22.5968 24.1219 22.6188 24.1164 22.6409 24.1105C22.663 24.1051 22.685 24.0991 22.7082 24.0946C22.7106 24.0946 22.7129 24.0937 22.7152 24.0923C22.7175 24.0914 22.7199 24.09 22.7222 24.09C22.7477 24.0832 22.7721 24.0764 22.7965 24.0695C22.8209 24.0627 22.8453 24.0559 22.8708 24.049C22.8754 24.0468 22.8813 24.0459 22.8871 24.0445C22.8929 24.0436 22.8987 24.0422 22.9033 24.0399L23.0426 23.999C23.0448 23.999 23.0469 23.998 23.0491 23.9971C23.0516 23.9958 23.0541 23.9944 23.0566 23.9944C23.0821 23.9853 23.1077 23.9776 23.1332 23.9694C23.1588 23.9616 23.1843 23.9534 23.2099 23.9443C23.2168 23.942 23.2226 23.9398 23.2284 23.9375C23.2342 23.9352 23.24 23.9329 23.247 23.9307C23.2872 23.9197 23.3246 23.9065 23.3636 23.892C23.3741 23.8883 23.3848 23.8847 23.3956 23.8806C23.3956 23.876 23.4003 23.876 23.4003 23.876C23.4258 23.8669 23.4514 23.8569 23.4769 23.8464C23.5025 23.8364 23.528 23.8259 23.5535 23.8168C23.5605 23.8145 23.5663 23.8123 23.5721 23.81C23.5779 23.8077 23.5837 23.8054 23.5907 23.8032C23.6464 23.785 23.6975 23.7622 23.7486 23.7394H23.7486C23.7505 23.7394 23.7533 23.7385 23.7565 23.7376C23.761 23.7362 23.7664 23.7349 23.7718 23.7349H23.8044C23.809 23.7349 23.8183 23.7349 23.8229 23.7394H23.8276C23.8299 23.7417 23.8334 23.744 23.8369 23.7462C23.8403 23.7485 23.8438 23.7508 23.8462 23.7531L23.8508 23.7576C23.8531 23.7599 23.8543 23.7622 23.8554 23.7645C23.8566 23.7667 23.8578 23.769 23.8601 23.7713C23.8601 23.7758 23.8647 23.7758 23.8647 23.7804C23.8647 23.7827 23.8659 23.7849 23.8671 23.7872Z" fill="url(#paint5_linear_202_596)"/>
</g>
<defs>
<linearGradient id="paint0_linear_202_596" x1="21.1633" y1="-23.9661" x2="21.1633" y2="3.92772" gradientUnits="userSpaceOnUse">
<stop stop-color="#082F4B"/>
<stop offset="1" stop-color="#136FB1"/>
</linearGradient>
<linearGradient id="paint1_linear_202_596" x1="10.4814" y1="-17.8191" x2="10.4814" y2="3.8002" gradientUnits="userSpaceOnUse">
<stop stop-color="#082F4B"/>
<stop offset="1" stop-color="#136FB1"/>
</linearGradient>
<linearGradient id="paint2_linear_202_596" x1="21.1352" y1="0.398682" x2="21.1352" y2="30.9607" gradientUnits="userSpaceOnUse">
<stop stop-color="#082F4B"/>
<stop offset="1" stop-color="#136FB1"/>
</linearGradient>
<linearGradient id="paint3_linear_202_596" x1="21.1476" y1="14.9695" x2="21.1476" y2="19.2861" gradientUnits="userSpaceOnUse">
<stop stop-color="#082F4B"/>
<stop offset="1" stop-color="#136FB1"/>
</linearGradient>
<linearGradient id="paint4_linear_202_596" x1="21.1222" y1="20.6428" x2="21.1222" y2="22.7829" gradientUnits="userSpaceOnUse">
<stop stop-color="#082F4B"/>
<stop offset="1" stop-color="#136FB1"/>
</linearGradient>
<linearGradient id="paint5_linear_202_596" x1="21.1779" y1="23.7349" x2="21.1779" y2="25.8476" gradientUnits="userSpaceOnUse">
<stop stop-color="#082F4B"/>
<stop offset="1" stop-color="#136FB1"/>
</linearGradient>
<clipPath id="clip0_202_596">
<rect width="24" height="24" fill="white"/>
</clipPath>
</defs>
</svg>
