<svg width="89" height="24" viewBox="0 0 89 24" fill="none" xmlns="http://www.w3.org/2000/svg">
<g clip-path="url(#clip0_117_48)">
<path fill-rule="evenodd" clip-rule="evenodd" d="M27.8762 4.45327C26.8175 3.77031 25.5085 3.42883 23.9492 3.42883C22.5264 3.42883 21.24 3.78169 20.1018 4.48742C18.9635 5.19314 18.0644 6.18343 17.4154 7.46968C16.7667 8.75593 16.4366 10.247 16.4366 11.9545V12.5805C16.4366 14.083 16.7554 15.4489 17.3928 16.6555C18.0302 17.8621 18.9521 18.8182 20.1587 19.5125C21.3538 20.2069 22.7653 20.5598 24.3703 20.5598C25.8843 20.5598 27.1819 20.2638 28.2519 19.6719C29.3217 19.08 30.1528 18.3401 30.7561 17.4637L28.7299 15.4945C27.6941 16.8376 26.3168 17.5092 24.6094 17.5092C23.7785 17.5092 23.0499 17.3271 22.4238 16.9628C21.7978 16.5986 21.2969 16.0864 20.9328 15.4376C20.5686 14.7887 20.3523 14.0375 20.2725 13.1952H31.0406V11.5902C31.0406 9.97387 30.7788 8.55103 30.2552 7.3217C29.7201 6.09237 28.9348 5.13623 27.8762 4.45327ZM27.2615 10.4406H20.3409C20.5116 9.18846 20.91 8.22093 21.5132 7.52659C22.128 6.83226 22.9248 6.49077 23.9264 6.49077C25.0418 6.49077 25.8729 6.83226 26.3965 7.52659C26.92 8.20955 27.2159 9.08602 27.2615 10.156V10.4406ZM7.43298 15.4489L3.93836 3.73616H0L5.73692 20.2524H9.08347L14.7862 3.73616H10.8478L7.43298 15.4489ZM42.059 3.44019C41.0802 3.44019 40.1809 3.6337 39.3728 4.00932C38.5533 4.39633 37.8588 4.9427 37.267 5.64843L37.1418 3.73614H33.5676V20.2524H37.3695V8.4941C37.7109 7.86805 38.1549 7.38998 38.7125 7.0485C39.2703 6.70702 39.9077 6.5249 40.6249 6.5249C41.6037 6.5249 42.3323 6.75255 42.7989 7.21924C43.2771 7.68593 43.5047 8.45994 43.5047 9.56406V20.2524H47.3064V9.59822C47.3064 7.43551 46.8511 5.8647 45.9405 4.88579C45.0299 3.91826 43.7438 3.44019 42.059 3.44019ZM55.1264 3.65648H51.3246V20.1727H55.1264V3.65648ZM62.9919 7.97052C63.5382 6.98022 64.4943 6.49077 65.8488 6.49077C66.4862 6.49077 67.044 6.63874 67.5222 6.92331C68.0003 7.20788 68.3644 7.59489 68.6263 8.07296C68.8881 8.55103 69.036 9.0974 69.0702 9.67792H72.6558C72.6215 8.45997 72.3257 7.36723 71.7565 6.42247C71.1874 5.47771 70.3906 4.73782 69.3774 4.21423C68.3644 3.69062 67.2035 3.42883 65.8945 3.42883C64.2666 3.42883 62.8893 3.79307 61.7624 4.53295C60.6357 5.26144 59.782 6.26311 59.2242 7.51521C58.6551 8.7673 58.3819 10.1788 58.3819 11.7382V12.2618C58.3819 13.8212 58.6665 15.2213 59.2242 16.4848C59.782 17.7369 60.6357 18.7385 61.7624 19.467C62.9007 20.1955 64.2781 20.5711 65.9171 20.5711C67.1238 20.5711 68.2392 20.3093 69.2636 19.7971C70.2768 19.2735 71.0962 18.5792 71.7109 17.6913C72.3257 16.8035 72.6444 15.8359 72.6671 14.7774H69.0702C69.036 15.3123 68.8766 15.779 68.592 16.2002C68.3075 16.6213 67.9206 16.9401 67.4424 17.1791C66.9644 17.4181 66.4293 17.532 65.8602 17.532C63.4015 17.532 62.1608 15.779 62.1608 12.2845V11.7609C62.1608 10.2129 62.4454 8.9608 62.9919 7.97052ZM85.9848 4.45327C84.9261 3.77031 83.6171 3.42883 82.0578 3.42883C80.635 3.42883 79.3486 3.78169 78.2103 4.48742C77.0721 5.19314 76.1729 6.18343 75.524 7.46968C74.8753 8.75593 74.5452 10.247 74.5452 11.9545V12.5805C74.5452 14.083 74.8639 15.4489 75.5014 16.6555C76.1388 17.8621 77.0607 18.8182 78.2673 19.5125C79.4624 20.2069 80.8739 20.5598 82.4788 20.5598C83.9929 20.5598 85.2905 20.2638 86.3605 19.6719C87.4303 19.08 88.2614 18.3401 88.8646 17.4637L86.8385 15.4945C85.8027 16.8376 84.4254 17.5092 82.718 17.5092C81.8871 17.5092 81.1585 17.3271 80.5324 16.9628C79.9064 16.5986 79.4055 16.0864 79.0414 15.4376C78.6771 14.7887 78.4609 14.0375 78.3811 13.1952H89.1492V11.5902C89.1492 9.97387 88.8874 8.55103 88.3638 7.3217C87.8287 6.09237 87.0434 5.13623 85.9848 4.45327ZM85.37 10.4406H78.4495C78.6202 9.18846 79.0186 8.22093 79.6218 7.52659C80.2366 6.83226 81.0334 6.49077 82.035 6.49077C83.1504 6.49077 83.9815 6.83226 84.5051 7.52659C85.0286 8.20955 85.3245 9.08602 85.37 10.156V10.4406Z" fill="#F6F6F6"/>
</g>
<defs>
<clipPath id="clip0_117_48">
<rect width="89" height="24" fill="white"/>
</clipPath>
</defs>
</svg>
