<svg width="549" height="307" viewBox="0 0 549 307" fill="none" xmlns="http://www.w3.org/2000/svg">
<path fill-rule="evenodd" clip-rule="evenodd" d="M497.268 183.14C496.732 182.713 496.109 182.589 495.607 182.589C494.612 182.589 493.582 183.057 492.822 183.82L492.689 183.949L492.595 184.103C482.206 200.427 473.494 211.32 465.877 218.117C458.272 224.904 451.89 227.496 446.112 227.496C442.848 227.496 440.976 226.553 439.864 225.191C438.696 223.761 438.099 221.551 438.099 218.489C438.099 213.692 439.511 208.016 441.745 202.08C443.891 196.377 446.756 190.535 449.717 185.159C460.868 181.854 473.924 175.896 482.442 168.379L482.455 168.369L482.467 168.358C485.51 165.566 488.102 162.663 489.943 159.738C491.78 156.819 492.93 153.782 492.93 150.758C492.93 148.478 492.286 146.095 490.544 144.275C488.788 142.437 486.132 141.404 482.583 141.404C475.554 141.404 466.611 144.75 458.006 150.425C449.361 156.124 440.87 164.293 434.775 174.197C432.626 177.668 430.851 181.198 429.434 184.742C419.419 199.704 410.861 210.432 403.154 217.413C395.423 224.415 388.714 227.495 382.388 227.495C379.438 227.495 377.602 226.533 376.458 225.108C375.263 223.621 374.622 221.382 374.622 218.489C374.622 212.864 376.508 206.097 379.637 198.767C382.755 191.462 387.049 183.726 391.738 176.199C397.047 167.68 402.319 160.334 407.089 155.139C409.475 152.539 411.696 150.523 413.694 149.168C415.717 147.796 417.354 147.21 418.61 147.21C419.938 147.21 421.119 147.977 422.368 149.754C423.629 151.548 424.703 154.011 425.893 156.763L427.613 160.732L435.392 146.588L434.262 145.719C430.704 142.982 425.867 141.404 420.347 141.404C401.457 141.404 382.889 155.55 372.541 172.21L372.539 172.212C370.072 176.198 367.911 180.208 366.178 184.346L358.155 196.746L358.152 196.749C352.3 205.84 347.228 213.652 342.22 219.206C337.201 224.773 332.533 227.743 327.545 227.743C325.465 227.743 324.049 227.197 323.17 226.404C322.314 225.632 321.765 224.443 321.765 222.707C321.765 220.396 322.227 218.211 325.496 212.283C328.783 206.326 334.764 196.827 345.568 179.937L345.571 179.932L365.777 148.109L364.882 143.638H335.179L334.735 143.97C334.077 144.463 333.578 145.025 333.254 145.673C332.927 146.326 332.83 146.966 332.83 147.533V149.195H343.335L331.347 168.234C327.861 173.796 324.764 178.899 322.192 183.825L322.182 183.832L315.326 193.99C308.358 204.317 302.416 213.007 296.752 219.128C291.064 225.274 285.962 228.488 280.729 228.488C278.899 228.488 277.675 228.005 276.923 227.313C276.19 226.641 275.692 225.576 275.692 223.947C275.692 222.032 276.446 219.613 278.663 215.787C280.871 211.976 284.414 206.96 289.747 199.891L297.437 189.72L297.438 189.719C307.477 176.417 310.426 168.626 310.426 158.697C310.426 153.879 309.739 149.613 307.9 146.501C305.978 143.248 302.88 141.404 298.592 141.404C292.89 141.404 286.682 144.313 280.182 149.304C273.649 154.321 266.624 161.594 259.255 170.675L259.08 170.891H256.837V157.953C256.837 153.216 255.953 149.541 253.707 147.067C251.424 144.552 248.069 143.638 244.01 143.638H234.899L234.412 144.124C233.724 144.812 233.063 145.817 232.734 147.129L232.218 149.195H243.018C246.131 149.195 247.662 149.751 248.435 150.427C249.14 151.044 249.543 152.058 249.543 153.983C249.543 155.845 248.862 158.181 247.412 161.203C245.971 164.205 243.848 167.729 241.126 171.936L241.121 171.943L203.527 231.316H224.817L246.404 198.046L247.636 196.075C258.02 180.749 267.741 168.518 276.367 160.138C280.682 155.945 284.685 152.753 288.323 150.618C291.973 148.476 295.151 147.458 297.848 147.458C299.484 147.458 300.21 147.842 300.549 148.181C300.885 148.517 301.148 149.117 301.148 150.262C301.148 151.944 300.444 154.186 298.691 157.329C296.953 160.446 294.283 164.277 290.576 169.096L290.575 169.098L282.388 179.766L282.385 179.769C271.881 193.525 266.91 204.552 266.91 215.512C266.91 219.488 267.543 223.972 269.542 227.523C271.607 231.191 275.111 233.797 280.481 233.797C287.986 233.797 294.87 228.813 301.265 221.9C305.83 216.966 310.316 210.859 314.769 204.403C314.248 207.418 313.974 210.521 313.974 213.775C313.974 217.572 314.408 222.286 316.284 226.107C317.234 228.042 318.579 229.797 320.467 231.065C322.365 232.34 324.711 233.053 327.545 233.053C334.598 233.053 340.78 228.571 346.405 222.355C351.71 216.492 356.796 208.769 361.888 200.906C361.713 202.677 361.622 204.484 361.622 206.332C361.622 213.389 363.286 220.068 366.653 225.035C370.057 230.057 375.197 233.301 381.892 233.301C389.268 233.301 396.535 230.066 404.292 223.521C410.817 218.017 417.777 210.097 425.548 199.573C425.246 201.935 425.098 204.275 425.098 206.581C425.098 213.531 426.832 220.147 430.23 225.077C433.658 230.051 438.791 233.301 445.368 233.301C452.852 233.301 460.546 230.011 469.044 222.495C477.528 214.993 486.93 203.181 497.882 185.885L498.139 185.478V184.996C498.139 184.288 497.852 183.607 497.268 183.14ZM470.289 155.26C473.035 152.41 475.614 150.25 477.97 148.812C480.339 147.368 482.377 146.714 484.072 146.714C485.493 146.714 486.231 147.112 486.639 147.548C487.063 148.006 487.372 148.78 487.372 150.014C487.372 151.805 486.613 153.971 485.059 156.407C483.613 158.671 481.545 161.059 479.004 163.44C478.837 163.598 478.665 163.756 478.494 163.914L478.485 163.92L478.489 163.916C472.091 169.696 462.586 174.831 453.518 178.339C459.301 168.583 465.032 160.723 470.289 155.26Z" fill="white"/>
<path fill-rule="evenodd" clip-rule="evenodd" d="M219.919 185.478V184.996C219.919 184.288 219.631 183.607 219.047 183.14C218.514 182.713 217.891 182.589 217.389 182.589C216.392 182.589 215.364 183.057 214.601 183.82L214.472 183.949L214.374 184.103C203.986 200.427 195.275 211.32 187.657 218.117C180.053 224.904 173.67 227.496 167.893 227.496C164.628 227.496 162.756 226.553 161.644 225.191C160.476 223.761 159.879 221.551 159.879 218.489C159.879 213.692 161.291 208.016 163.525 202.08C165.671 196.377 168.536 190.535 171.497 185.159C182.648 181.854 195.703 175.896 204.223 168.379L204.234 168.369L204.246 168.358C207.291 165.566 209.884 162.663 211.725 159.738C213.561 156.819 214.709 153.782 214.709 150.758C214.709 148.478 214.067 146.095 212.326 144.275C210.567 142.437 207.912 141.404 204.364 141.404C197.335 141.404 188.392 144.75 179.786 150.425C171.141 156.125 162.649 164.295 156.553 174.2C149.95 184.868 146.879 196.084 146.879 206.581C146.879 213.531 148.612 220.147 152.01 225.077C155.438 230.051 160.572 233.301 167.148 233.301C174.632 233.301 182.327 230.011 190.827 222.495C199.31 214.993 208.711 203.181 219.662 185.885L219.919 185.478ZM192.07 155.26C194.815 152.41 197.395 150.25 199.752 148.812C202.119 147.368 204.158 146.714 205.852 146.714C207.272 146.714 208.012 147.112 208.418 147.548C208.843 148.006 209.152 148.78 209.152 150.014C209.152 151.805 208.395 153.971 206.839 156.407C205.296 158.822 203.048 161.379 200.269 163.917C193.868 169.697 184.368 174.831 175.298 178.339C181.082 168.583 186.811 160.723 192.07 155.26Z" fill="white"/>
<path fill-rule="evenodd" clip-rule="evenodd" d="M165.572 131.717C167.965 128.264 170.342 124.832 172.714 121.441C188.355 99.0712 203.181 77.8792 219.261 62.2586C235.316 46.6627 252.437 36.8056 272.641 36.8056C279.657 36.8056 286.916 38.0173 293.186 40.1875L294.732 40.7229L296.888 34.7956L295.194 34.2938C288.352 32.2667 280.502 31 272.641 31C250.918 31 232.561 41.5254 215.903 57.5468H99.2699L95.7863 63.3523H143.824C131.262 69.3527 122.016 79.4214 115.091 90.2895C106.693 103.468 101.616 117.965 98.1435 128.135C94.4092 138.819 91.3401 148.665 88.5203 157.711L88.5177 157.72C82.4889 177.062 77.6282 192.62 69.8482 205.273C62.1269 217.831 51.4975 227.563 33.8148 235.071L32 235.841L36.1599 242.312L37.5349 241.51C43.3705 238.106 48.8917 235.738 55.4899 233.776C82.4138 225.768 103.91 208.816 122.559 188.341C138.359 170.994 152.198 151.019 165.572 131.717ZM69.5089 218.949C79.2683 210.283 87.1707 200.603 94.2539 188.545C102.095 175.196 108.932 158.933 116.172 137.903L116.172 137.905L116.172 137.902C118.09 132.365 119.865 126.837 121.594 121.45L121.597 121.441C126.708 105.522 131.4 90.9508 138.287 80.3278C145.095 69.8292 153.936 63.3523 167.446 63.3523H210.168C195.589 78.7331 181.961 98.1733 167.916 118.211L167.86 118.29C140.295 157.615 111.083 199.208 69.5089 218.949Z" fill="white"/>
</svg>
