<svg width="89" height="24" viewBox="0 0 89 24" fill="none" xmlns="http://www.w3.org/2000/svg">
<g clip-path="url(#clip0_117_2)">
<path fill-rule="evenodd" clip-rule="evenodd" d="M27.8762 4.45329C26.8175 3.77033 25.5085 3.42885 23.9492 3.42885C22.5264 3.42885 21.24 3.7817 20.1018 4.48743C18.9635 5.19316 18.0644 6.18345 17.4154 7.46969C16.7667 8.75595 16.4366 10.2471 16.4366 11.9545V12.5805C16.4366 14.083 16.7554 15.4489 17.3928 16.6555C18.0302 17.8621 18.9521 18.8182 20.1587 19.5126C21.3538 20.2069 22.7653 20.5598 24.3703 20.5598C25.8843 20.5598 27.1819 20.2638 28.2519 19.6719C29.3217 19.08 30.1528 18.3401 30.7561 17.4637L28.7299 15.4945C27.6941 16.8376 26.3168 17.5092 24.6094 17.5092C23.7785 17.5092 23.0499 17.3271 22.4238 16.9628C21.7978 16.5986 21.2969 16.0864 20.9328 15.4376C20.5686 14.7888 20.3523 14.0375 20.2725 13.1952H31.0406V11.5902C31.0406 9.97388 30.7788 8.55105 30.2552 7.32172C29.7201 6.09239 28.9348 5.13624 27.8762 4.45329ZM27.2615 10.4406H20.3409C20.5116 9.18848 20.91 8.22095 21.5132 7.52661C22.128 6.83227 22.9248 6.49078 23.9264 6.49078C25.0418 6.49078 25.8729 6.83227 26.3965 7.52661C26.92 8.20957 27.2159 9.08603 27.2615 10.156V10.4406ZM7.43298 15.4489L3.93836 3.73617H0L5.73692 20.2524H9.08347L14.7862 3.73617H10.8478L7.43298 15.4489ZM42.059 3.44021C41.0802 3.44021 40.1809 3.63371 39.3728 4.00934C38.5533 4.39635 37.8588 4.94272 37.267 5.64844L37.1418 3.73615H33.5676V20.2524H37.3695V8.49411C37.7109 7.86807 38.1549 7.38999 38.7125 7.04851C39.2703 6.70703 39.9077 6.52491 40.6249 6.52491C41.6037 6.52491 42.3323 6.75256 42.7989 7.21925C43.2771 7.68594 43.5047 8.45995 43.5047 9.56407V20.2524H47.3064V9.59823C47.3064 7.43552 46.8511 5.86472 45.9405 4.88581C45.0299 3.91827 43.7438 3.44021 42.059 3.44021ZM55.1264 3.65649H51.3246V20.1727H55.1264V3.65649ZM62.9919 7.97053C63.5382 6.98024 64.4943 6.49078 65.8488 6.49078C66.4862 6.49078 67.044 6.63876 67.5222 6.92332C68.0003 7.20789 68.3644 7.5949 68.6263 8.07297C68.8881 8.55105 69.036 9.09742 69.0702 9.67793H72.6558C72.6215 8.45999 72.3257 7.36725 71.7565 6.42249C71.1874 5.47772 70.3906 4.73784 69.3774 4.21424C68.3644 3.69064 67.2035 3.42885 65.8945 3.42885C64.2666 3.42885 62.8893 3.79309 61.7624 4.53296C60.6357 5.26145 59.782 6.26313 59.2242 7.51522C58.6551 8.76732 58.3819 10.1788 58.3819 11.7382V12.2618C58.3819 13.8212 58.6665 15.2213 59.2242 16.4848C59.782 17.7369 60.6357 18.7385 61.7624 19.467C62.9007 20.1955 64.2781 20.5712 65.9171 20.5712C67.1238 20.5712 68.2392 20.3094 69.2636 19.7971C70.2768 19.2735 71.0962 18.5792 71.7109 17.6913C72.3257 16.8035 72.6444 15.836 72.6671 14.7774H69.0702C69.036 15.3124 68.8766 15.779 68.592 16.2002C68.3075 16.6214 67.9206 16.9401 67.4424 17.1791C66.9644 17.4182 66.4293 17.532 65.8602 17.532C63.4015 17.532 62.1608 15.779 62.1608 12.2846V11.761C62.1608 10.2129 62.4454 8.96081 62.9919 7.97053ZM85.9848 4.45329C84.9261 3.77033 83.6171 3.42885 82.0578 3.42885C80.635 3.42885 79.3486 3.7817 78.2103 4.48743C77.0721 5.19316 76.1729 6.18345 75.524 7.46969C74.8753 8.75595 74.5452 10.2471 74.5452 11.9545V12.5805C74.5452 14.083 74.8639 15.4489 75.5014 16.6555C76.1388 17.8621 77.0607 18.8182 78.2673 19.5126C79.4624 20.2069 80.8739 20.5598 82.4788 20.5598C83.9929 20.5598 85.2905 20.2638 86.3605 19.6719C87.4303 19.08 88.2614 18.3401 88.8646 17.4637L86.8385 15.4945C85.8027 16.8376 84.4254 17.5092 82.718 17.5092C81.8871 17.5092 81.1585 17.3271 80.5324 16.9628C79.9064 16.5986 79.4055 16.0864 79.0414 15.4376C78.6771 14.7888 78.4609 14.0375 78.3811 13.1952H89.1492V11.5902C89.1492 9.97388 88.8874 8.55105 88.3638 7.32172C87.8287 6.09239 87.0434 5.13624 85.9848 4.45329ZM85.37 10.4406H78.4495C78.6202 9.18848 79.0186 8.22095 79.6218 7.52661C80.2366 6.83227 81.0334 6.49078 82.035 6.49078C83.1504 6.49078 83.9815 6.83227 84.5051 7.52661C85.0286 8.20957 85.3245 9.08603 85.37 10.156V10.4406Z" fill="#042D48"/>
</g>
<defs>
<clipPath id="clip0_117_2">
<rect width="89" height="24" fill="white"/>
</clipPath>
</defs>
</svg>
