<svg xmlns="http://www.w3.org/2000/svg" viewBox="0 0 1000 1000">
<path fill-rule="evenodd" clip-rule="evenodd" d="M500 0C776.138 1.20704e-05 1000 217.074 1000 484.849V515.151C1000 782.926 776.138 1000 500 1000C223.862 1000 -1.17048e-05 782.926 0 515.151V484.849C1.17048e-05 217.074 223.862 4.50118e-06 500 0ZM255.361 513.987C225.142 522.143 196.605 537.74 172.836 560.783C99.2733 632.117 99.2734 747.779 172.836 819.114C246.398 890.448 365.677 890.447 439.239 819.114C461.544 797.49 477.086 771.79 485.866 744.489L418.53 677.153C388.038 644.483 398.047 611.053 411.004 592.186C392.137 605.144 358.706 615.155 326.034 584.661L255.361 513.987ZM679.803 584.661C647.125 615.16 613.687 605.139 594.822 592.178C607.782 611.043 617.796 644.479 587.3 677.153L518.476 745.977C527.336 772.724 542.713 797.881 564.605 819.114C638.168 890.448 757.446 890.448 831.009 819.114C904.571 747.779 904.571 632.117 831.009 560.783C807.657 538.136 779.694 522.682 750.049 514.415L679.803 584.661ZM486.502 407.426C481.452 429.665 479.548 452.703 480.79 475.545C480.795 475.641 480.811 475.736 480.835 475.829C481.082 476.771 480.339 477.68 479.366 477.633C457.619 476.577 435.714 478.554 414.55 483.563L344.103 500.242L414.55 516.918C435.971 521.989 458.148 523.953 480.155 522.811C480.824 522.776 481.376 523.329 481.336 523.997C480.086 546.861 481.988 569.923 487.043 592.184L503.378 664.109L519.712 592.184C524.762 569.944 526.666 546.906 525.424 524.064C525.419 523.968 525.403 523.872 525.379 523.779C525.132 522.838 525.876 521.929 526.849 521.977C548.596 523.033 570.5 521.055 591.664 516.046L662.111 499.367L591.664 482.69C570.243 477.62 548.067 475.656 526.06 476.799C525.391 476.834 524.838 476.28 524.878 475.612C526.128 452.749 524.225 429.686 519.171 407.426L502.836 335.5L486.502 407.426ZM439.239 180.886C365.677 109.553 246.398 109.552 172.836 180.886C99.2734 252.221 99.2734 367.883 172.836 439.217C196.72 462.372 225.414 478.007 255.796 486.13L326.035 415.892C358.715 385.39 392.156 395.413 411.02 408.376C398.055 389.513 388.026 356.069 418.53 323.385L485.998 255.916C477.242 228.463 461.656 202.619 439.239 180.886ZM831.009 180.886C757.446 109.552 638.168 109.552 564.605 180.886C542.604 202.225 527.183 227.531 518.344 254.429L587.301 323.386C617.809 356.074 607.772 389.524 594.805 408.385C613.666 395.418 647.115 385.383 679.803 415.891L749.616 485.704C779.421 477.467 807.545 461.973 831.009 439.217C904.571 367.883 904.571 252.221 831.009 180.886Z" fill="currentColor"/>
  
</svg>
