<svg xmlns="http://www.w3.org/2000/svg" data-name="Layer 2" viewBox="0 0 300 300"><g data-name="Layer 1"><path d="M294 66c-3-1-4 2-6 3l-2 2c-4 5-10 8-17 7-10 0-18 3-26 11-2-10-7-16-15-19-5-2-9-4-12-8l-4-10c-1-2-1-4-4-4-2 0-3 2-4 4-4 7-5 14-5 22 0 18 8 32 23 42 1 1 2 2 1 4l-3 10c-1 2-2 3-4 2-8-4-15-9-21-15l-32-30-9-6c-12-12 2-21 5-22 3-2 1-6-10-6-10 0-20 4-32 9l-6 1c-11-2-23-2-36-1-23 3-41 14-55 32a94 94 0 0 0-15 75c5 28 19 51 41 69 23 19 49 28 79 26 18-1 38-3 61-23a72 72 0 0 0 43 3c9-1 8-10 5-11-26-12-21-7-26-11 14-16 34-33 42-86v-11c0-2 0-3 3-3 6-1 13-3 18-6 18-9 24-25 26-43 0-3 0-6-3-7zM145 232c-26-20-38-27-43-26-5 0-4 5-3 9l4 9c2 2 3 5-1 7-8 5-23-1-23-2-17-9-31-23-41-40-9-17-15-36-16-55 0-5 1-7 6-7 6-2 13-2 19-1 26 4 48 16 67 34 11 11 19 23 27 35a173 173 0 0 0 41 45c-10 1-26 1-37-8zm12-79c0-2 2-4 4-4s1 0 1 1l2 1 1 2c0 2-2 4-4 4s-4-2-4-4zm38 20-7 2c-4 0-8-2-10-4-3-2-5-4-6-9v-7c1-4 0-7-3-9s-5-3-9-3h-3c-1-1-2-3-1-5l2-2c5-3 10-2 14 0 5 2 8 5 13 10l8 11 5 10c1 3 0 5-3 6z" data-name="katman 1" fill='currentColor'/></g></svg>
