
<svg xmlns="http://www.w3.org/2000/svg" viewBox="0 0 1000 1000">
<path fill-rule="evenodd" clip-rule="evenodd" d="M0 500V1000H500H1000V500V0H500H0V500ZM354.736 51.6616C369.771 53.6099 374.342 54.4185 384.277 56.8892C437.487 70.1211 476.241 106.918 494.084 161.15L495.616 165.807L493.899 173.357C492.955 177.51 489.992 190.686 487.314 202.637C484.637 214.587 479.797 236.121 476.561 250.488C461.648 316.675 460.177 323.81 457.326 343.75C452.983 374.121 451.183 405.496 452.134 434.2C452.404 442.326 452.624 449.414 452.623 449.951C452.62 452.422 453.518 452.337 426.669 452.411C408.171 452.462 399.039 452.692 391.784 453.289C357.465 456.11 338.499 459.253 300.293 468.453C296.399 469.391 290.412 470.83 286.987 471.651C283.563 472.473 277.96 473.817 274.536 474.639C271.112 475.46 266.059 476.668 263.306 477.324C260.553 477.979 256.049 479.052 253.296 479.707C250.543 480.363 245.435 481.584 241.943 482.422C238.452 483.26 232.849 484.604 229.492 485.409C226.135 486.214 220.203 487.638 216.309 488.573C212.415 489.508 205.933 491.059 201.904 492.02C197.876 492.98 190.238 494.809 184.932 496.085L175.284 498.404L170.771 497.211C134.802 487.7 104.45 468.299 83.8486 441.65C67.6011 420.633 56.8989 394.299 52.6943 364.99C50.7705 351.578 50.7842 352.775 50.7827 198.843L50.7812 50.7612L200.562 50.9268C310.942 51.0488 351.498 51.2422 354.736 51.6616ZM949.697 195.923C949.686 348.762 949.674 349.663 947.523 364.502C944.081 388.25 936.816 409.535 926.056 427.398C905.918 460.832 874.102 484.345 832.811 496.311L828.58 497.537L818.465 495.097C812.901 493.755 805.603 492.002 802.246 491.201C788.939 488.026 774.646 484.606 761.475 481.445C755.525 480.018 752.08 479.196 739.99 476.318C737.305 475.679 732.251 474.47 728.76 473.633C725.269 472.795 719.72 471.463 716.431 470.674C713.141 469.884 707.648 468.566 704.224 467.745C700.799 466.924 694.812 465.484 690.918 464.546C661.152 457.375 638.098 453.759 606.689 451.334C599.293 450.763 589.536 450.528 571.68 450.491C555.884 450.458 546.754 450.263 546.454 449.951C546.153 449.639 546.152 444.632 546.452 436.035C547.604 402.9 545.104 365.268 539.576 332.52C536.859 316.424 536.619 315.307 518.615 235.107C515.661 221.948 511.143 201.822 508.575 190.382C506.007 178.943 503.906 169.222 503.906 168.781C503.906 168.339 505.099 164.405 506.558 160.039C515.366 133.66 528.45 112.417 546.943 94.4697C573.212 68.9751 607.667 54.6694 650.879 51.3149C653.699 51.0962 722.089 50.8867 802.856 50.8491L949.707 50.7812L949.697 195.923ZM193.115 156.244C173.52 160.7 159.204 174.661 153.716 194.663C152.838 197.864 152.666 199.837 152.654 206.787C152.641 214.248 152.77 215.568 153.923 219.827C159.466 240.299 175.855 254.93 196.775 258.083C199.328 258.468 202.459 258.785 203.735 258.786L206.055 258.789V260.498C206.055 262.182 206.024 262.207 203.979 262.216C202.838 262.221 199.652 262.545 196.899 262.937C182.976 264.916 170.906 272.096 162.488 283.405C148.625 302.032 149.05 328.144 163.514 346.314C173.586 358.968 187.855 365.829 204.102 365.829C217.705 365.829 229.73 361.119 239.527 351.955C249.383 342.734 255.859 328.323 255.859 315.61V312.5H257.74H259.621L259.904 317.993C260.832 335.98 271.972 352.431 288.757 360.599C291.745 362.053 295.947 363.689 298.096 364.234C322.343 370.39 346.763 359.295 357.694 337.158C359.203 334.104 360.902 329.681 361.633 326.904C362.763 322.615 362.921 321.072 362.928 314.209C362.935 307.305 362.786 305.829 361.646 301.514C357.641 286.36 347.703 274.259 333.81 267.618C326.933 264.332 318.169 262.207 311.488 262.207C309.622 262.207 309.57 262.161 309.57 260.498V258.789L311.89 258.786C315.693 258.781 323.471 257.436 327.516 256.082C353.508 247.384 368.168 220.681 361.53 194.128C356.986 175.955 342.952 161.791 324.463 156.719C318.9 155.193 307.523 154.833 301.753 156C285.44 159.3 272.356 169.266 264.885 184.082C261.827 190.147 259.766 198.524 259.766 204.888V208.496H257.812H255.859L255.858 205.444C255.854 197.993 252.813 187.387 248.757 180.677C241.002 167.849 229.316 159.414 214.875 156.219C209.25 154.976 198.641 154.987 193.115 156.244ZM675.537 156.244C657.542 160.336 643.11 173.175 637.448 190.131C630.931 209.643 636.152 230.386 651.142 244.536C660.256 253.138 670.894 257.687 684.09 258.624L688.477 258.935V260.571C688.477 262.197 688.462 262.207 686.157 262.21C682.362 262.215 674.581 263.56 670.531 264.911C649.029 272.084 634.764 291.651 634.767 313.965C634.768 327.604 639.578 339.887 648.708 349.565C653.265 354.395 657.515 357.5 663.818 360.601C672.664 364.952 681.956 366.669 691.41 365.699C716.897 363.083 736.491 342.863 738.11 317.505L738.43 312.5L740.187 312.503L741.943 312.505L742.096 316.531C742.939 338.808 758.949 358.68 780.518 364.222C798.678 368.889 817.494 363.757 830.545 350.576C855.437 325.437 848.368 283.319 816.66 267.847C809.649 264.426 800.698 262.207 793.91 262.207C792.044 262.207 791.992 262.161 791.992 260.498V258.789L794.312 258.786C798.085 258.782 805.882 257.439 809.827 256.115C823.59 251.495 834.413 241.919 840.552 228.932C854.404 199.626 838.435 165.374 806.885 156.719C801.322 155.193 789.945 154.833 784.175 156C773.281 158.204 764.177 163.112 756.754 170.784C748.234 179.59 743.472 189.994 742.208 202.562C741.929 205.341 741.823 207.812 741.973 208.055C742.123 208.298 741.386 208.496 740.337 208.496H738.429L738.136 203.735C737.483 193.151 734.053 183.988 727.516 175.369C720.157 165.667 709.512 158.921 697.297 156.219C691.672 154.976 681.063 154.987 675.537 156.244ZM839.355 506.446C873.983 517.501 903.433 539.096 922.123 567.139C938.136 591.167 946.716 618.444 949.229 653.32C949.521 657.372 949.705 715.748 949.706 804.819L949.707 949.725L798.218 949.565C633.256 949.392 645.606 949.595 629.297 946.78C569.107 936.392 525.402 898.326 506.119 839.498L504.326 834.025L508.012 817.525C510.04 808.45 514.344 789.27 517.577 774.902C520.809 760.535 525.646 739.001 528.325 727.051C531.004 715.1 533.726 703.015 534.374 700.195C540.512 673.461 544.533 646.261 546.644 617.188C547.604 603.958 548.057 572.662 547.473 559.814C547.217 554.175 547.1 549.315 547.212 549.016C547.702 547.716 549.821 547.564 561.035 548.026C572.622 548.504 597.762 547.907 610.016 546.862C639.83 544.322 662.747 540.681 689.647 534.212C695.045 532.914 702.759 531.065 706.787 530.105C710.815 529.145 717.297 527.594 721.191 526.659C725.085 525.724 731.128 524.274 734.619 523.437C738.11 522.599 743.713 521.255 747.07 520.449C753.266 518.962 760.264 517.293 767.334 515.617C769.482 515.107 774.976 513.793 779.541 512.696C790.371 510.095 799.497 507.911 812.972 504.696L823.941 502.078L829.329 503.522C832.292 504.315 836.804 505.631 839.355 506.446ZM183.687 505.803C189.141 507.115 196.899 508.974 200.928 509.934C204.956 510.895 211.438 512.445 215.332 513.38C229.025 516.667 235.155 518.136 240.112 519.316C242.865 519.972 247.37 521.044 250.122 521.699C252.875 522.355 257.983 523.577 261.475 524.414C264.966 525.252 270.514 526.584 273.804 527.373C277.093 528.163 282.586 529.48 286.011 530.302C289.435 531.123 295.422 532.563 299.316 533.5C328.844 540.61 343.559 543.466 364.502 546.152C388.381 549.215 417.03 550.622 439.197 549.819C447.695 549.511 452.537 549.51 452.842 549.815C453.135 550.108 453.338 561.292 453.376 579.221C453.414 596.707 453.667 610.956 454.019 615.234C455.801 636.96 456.947 647.072 459.493 663.516C461.974 679.544 463.034 684.555 478.511 753.418C481.74 767.786 486.588 789.429 489.283 801.514C491.979 813.599 494.63 825.342 495.175 827.61C496.297 832.276 496.243 832.813 493.941 839.914C488.844 855.638 480.34 872.745 471.401 885.254C447.693 918.433 413.287 939.477 370.85 946.755C354.19 949.612 367.59 949.389 202.271 949.565L50.7812 949.727L50.791 801.401C50.8013 644.376 50.7368 649.287 52.9829 634.033C56.8071 608.064 66.5903 583.041 80.5684 563.477C90.1768 550.029 103.173 537.344 117.188 527.737C130.366 518.703 144.533 511.808 160.645 506.585C164.539 505.323 168.274 504.111 168.945 503.893C171.332 503.115 173.893 503.447 183.687 505.803ZM194.902 645.78C176.243 649.187 160.364 663.099 154.808 680.908C147.115 705.568 158.042 731.502 181.009 743.092C187.434 746.334 196.221 748.533 202.759 748.535L206.055 748.535V750.416V752.296L200.562 752.597C178.246 753.817 159.938 769.151 153.716 791.831C152.838 795.032 152.666 797.005 152.654 803.955C152.641 811.416 152.77 812.736 153.923 816.995C156.396 826.128 160.526 833.371 167.16 840.207C183.886 857.443 210.282 860.804 231.015 848.336C236.021 845.326 243.206 838.578 246.538 833.758C251.951 825.928 255.21 816.521 255.723 807.251L256 802.246H257.81H259.621L259.913 807.739C260.5 818.76 264.707 829.116 272.135 837.826C278.605 845.412 288.615 851.648 298.584 854.304C302.861 855.444 304.406 855.606 311.035 855.616C316.279 855.623 319.667 855.384 322.067 854.838C342.7 850.142 358.307 834.214 362.355 813.721C363.311 808.883 363.188 798.054 362.126 793.505C356.664 770.106 337.914 753.805 315.063 752.589L309.57 752.296V750.486V748.675L314.575 748.399C334.786 747.282 352.969 733.814 359.897 714.83C365.711 698.901 363.676 681.77 354.317 667.849C351.206 663.22 344.961 656.909 340.576 653.959C319.945 640.085 292.506 642.625 274.966 660.032C265.844 669.085 260.61 680.636 259.921 693.237L259.621 698.73H257.74H255.859L255.859 695.435C255.855 677.103 244.178 658.946 226.807 650.259C217.55 645.631 205.208 643.898 194.902 645.78ZM677.324 645.78C652.594 650.295 634.766 671.658 634.766 696.777C634.766 716.529 645.701 734.249 663.33 743.066C670.004 746.404 678.511 748.533 685.181 748.535L688.477 748.535V750.416V752.296L682.983 752.597C673.79 753.1 665.962 755.673 658.282 760.718C643.697 770.297 635.548 784.77 634.899 802.246C634.33 817.585 639.643 830.677 650.795 841.414C665.182 855.263 685.597 859.499 704.576 852.573C723.543 845.651 736.863 827.654 738.121 807.251L738.43 802.246L740.187 802.249L741.943 802.251L742.093 806.277C742.79 825.038 753.875 842.09 770.752 850.362C802.413 865.879 839.307 846.792 844.954 811.971C845.874 806.298 845.887 802.324 845.005 796.631C843.22 785.111 838.259 775.29 830.268 767.455C820.821 758.194 809.914 753.247 797.485 752.588L791.992 752.296V750.486V748.675L796.997 748.399C812.188 747.559 826.203 739.907 835.548 727.351C841.744 719.026 845.699 707.114 845.699 696.777C845.699 689.454 843.35 679.982 839.833 673.124C833.158 660.108 821.166 650.497 806.741 646.603C802.542 645.469 801.085 645.322 793.945 645.312C787.915 645.303 785.029 645.513 782.471 646.146C773.597 648.342 764.732 653.043 758.412 658.905C751.96 664.891 746.387 674.035 743.948 682.638C742.763 686.822 741.416 697.388 741.957 698.263C742.122 698.53 741.427 698.73 740.336 698.73H738.428L738.108 693.481C736.66 669.667 718.866 649.897 695.123 645.718C690.294 644.868 682.162 644.896 677.324 645.78Z" fill="currentColor"/>

</svg>
