
<svg xmlns="http://www.w3.org/2000/svg" viewBox="0 0 1001 1001">
<path d="M277.187 861.139C286.924 871.571 283.723 882.245 279.585 888.267C285.607 884.129 296.281 880.93 306.712 890.666L333.647 917.601L306.711 944.537C296.279 954.273 285.606 951.074 279.584 946.936C283.722 952.957 286.925 963.632 277.188 974.065L250.251 1001L223.315 974.065C213.575 963.629 216.782 952.95 220.922 946.93C214.903 951.071 204.223 954.278 193.786 944.537L166.911 917.662L140.037 944.537C129.606 954.273 118.932 951.074 112.91 946.936C117.049 952.957 120.251 963.632 110.515 974.065L83.5773 1001L56.641 974.065C46.9009 963.629 50.1082 952.95 54.2485 946.93C48.2287 951.071 37.5492 954.278 27.1125 944.537L0.176268 917.601L27.1115 890.666C37.5486 880.925 48.2288 884.133 54.2485 888.274C50.1083 882.254 46.902 871.575 56.6421 861.139L83.5773 834.204L110.514 861.139C120.25 871.571 117.049 882.245 112.911 888.267C118.933 884.129 129.607 880.93 140.038 890.666L166.911 917.539L193.785 890.666C204.222 880.925 214.903 884.133 220.922 888.274C216.782 882.254 213.576 871.575 223.316 861.139L250.251 834.204L277.187 861.139Z" fill="currentColor"/>
<path d="M610.723 861.139C620.459 871.571 617.259 882.245 613.121 888.267C619.143 884.129 629.816 880.93 640.247 890.666L667.183 917.601L640.246 944.537C629.815 954.273 619.141 951.074 613.12 946.936C617.258 952.957 620.461 963.632 610.724 974.065L583.787 1001L556.851 974.065C547.11 963.629 550.318 952.95 554.458 946.93C548.438 951.071 537.759 954.278 527.322 944.537L500.447 917.662L473.572 944.537C463.141 954.273 452.468 951.074 446.446 946.936C450.584 952.957 453.787 963.632 444.05 974.065L417.113 1001L390.177 974.065C380.437 963.629 383.644 952.95 387.784 946.93C381.764 951.071 371.085 954.278 360.648 944.537L333.712 917.601L360.647 890.666C371.084 880.925 381.764 884.133 387.784 888.274C383.644 882.254 380.438 871.575 390.178 861.139L417.113 834.204L444.049 861.139C453.786 871.571 450.585 882.245 446.447 888.267C452.469 884.129 463.143 880.93 473.574 890.666L500.447 917.539L527.321 890.666C537.758 880.925 548.438 884.133 554.458 888.274C550.318 882.254 547.112 871.575 556.852 861.139L583.787 834.204L610.723 861.139Z" fill="currentColor"/>
<path d="M944.259 861.139C953.995 871.571 950.795 882.245 946.657 888.267C952.678 884.129 963.352 880.93 973.783 890.666L1000.72 917.601L973.782 944.537C963.351 954.273 952.677 951.074 946.656 946.936C950.794 952.957 953.997 963.632 944.26 974.065L917.323 1001L890.386 974.065C880.646 963.629 883.853 952.95 887.994 946.93C881.974 951.071 871.295 954.278 860.858 944.537L833.982 917.662L807.108 944.537C796.677 954.273 786.003 951.074 779.982 946.936C784.12 952.957 787.323 963.632 777.586 974.065L750.649 1001L723.712 974.065C713.972 963.629 717.18 952.95 721.32 946.93C715.3 951.071 704.621 954.278 694.184 944.537L667.248 917.601L694.183 890.666C704.62 880.925 715.3 884.133 721.32 888.274C717.18 882.254 713.973 871.575 723.714 861.139L750.649 834.204L777.585 861.139C787.321 871.571 784.121 882.245 779.983 888.267C786.005 884.129 796.678 880.93 807.109 890.666L833.982 917.539L860.857 890.666C871.294 880.925 881.974 884.133 887.994 888.274C883.854 882.254 880.647 871.575 890.387 861.139L917.323 834.204L944.259 861.139Z" fill="currentColor"/>
<path d="M110.514 694.337C120.25 704.769 117.049 715.443 112.911 721.465C118.933 717.327 129.607 714.128 140.038 723.864L166.973 750.799L140.037 777.735C129.606 787.471 118.932 784.272 112.91 780.134C117.049 786.155 120.251 796.83 110.515 807.263L83.5773 834.199L56.641 807.263C46.9009 796.827 50.1082 786.148 54.2485 780.128C48.2287 784.269 37.5492 787.476 27.1125 777.735L0.176268 750.799L27.1115 723.864C37.5486 714.123 48.2288 717.331 54.2485 721.472C50.1083 715.452 46.902 704.773 56.6421 694.337L83.5773 667.402L110.514 694.337Z" fill="currentColor"/>
<path d="M610.723 694.337C620.459 704.769 617.259 715.443 613.121 721.465C619.143 717.327 629.816 714.128 640.247 723.864L667.183 750.799L640.246 777.735C629.815 787.471 619.141 784.272 613.12 780.134C617.258 786.155 620.461 796.83 610.724 807.263L583.787 834.199L556.851 807.263C547.11 796.827 550.318 786.148 554.458 780.128C548.438 784.269 537.759 787.476 527.322 777.735L500.447 750.86L473.572 777.735C463.141 787.471 452.468 784.272 446.446 780.134C450.584 786.155 453.787 796.83 444.05 807.263L417.113 834.199L390.177 807.263C380.437 796.827 383.644 786.148 387.784 780.128C381.764 784.269 371.085 787.476 360.648 777.735L333.712 750.799L360.647 723.864C371.084 714.123 381.764 717.331 387.784 721.472C383.644 715.452 380.438 704.773 390.178 694.337L417.113 667.402L444.049 694.337C453.786 704.769 450.585 715.443 446.447 721.465C452.469 717.327 463.143 714.128 473.574 723.864L500.447 750.737L527.321 723.864C537.758 714.123 548.438 717.331 554.458 721.472C550.318 715.452 547.112 704.773 556.852 694.337L583.787 667.402L610.723 694.337Z" fill="currentColor"/>
<path d="M944.259 694.337C953.995 704.769 950.795 715.443 946.657 721.465C952.678 717.327 963.352 714.128 973.783 723.864L1000.72 750.799L973.782 777.735C963.351 787.471 952.677 784.272 946.656 780.134C950.794 786.155 953.997 796.83 944.26 807.263L917.323 834.199L890.386 807.263C880.646 796.827 883.853 786.148 887.994 780.128C881.974 784.269 871.295 787.476 860.858 777.735L833.922 750.799L860.857 723.864C871.294 714.123 881.974 717.331 887.994 721.472C883.854 715.452 880.647 704.773 890.387 694.337L917.323 667.402L944.259 694.337Z" fill="currentColor"/>
<path d="M277.187 527.535C286.924 537.967 283.723 548.641 279.585 554.663C285.607 550.525 296.281 547.326 306.712 557.062L333.647 583.997L306.711 610.933C296.279 620.669 285.606 617.47 279.584 613.332C283.722 619.353 286.925 630.028 277.188 640.461L250.251 667.397L223.315 640.461C213.575 630.025 216.782 619.346 220.922 613.326C214.903 617.466 204.223 620.674 193.786 610.933L166.911 584.058L140.037 610.933C129.606 620.669 118.932 617.47 112.91 613.332C117.049 619.353 120.251 630.028 110.515 640.461L83.5773 667.397L56.641 640.461C46.9009 630.025 50.1082 619.346 54.2485 613.326C48.2287 617.466 37.5492 620.674 27.1125 610.933L0.176268 583.997L27.1115 557.062C37.5486 547.32 48.2288 550.529 54.2485 554.67C50.1083 548.65 46.902 537.971 56.6421 527.535L83.5773 500.6L110.514 527.535C120.25 537.967 117.049 548.641 112.911 554.663C118.933 550.525 129.607 547.326 140.038 557.062L166.911 583.935L193.785 557.062C204.222 547.32 214.903 550.529 220.922 554.67C216.782 548.65 213.576 537.971 223.316 527.535L250.251 500.6L277.187 527.535Z" fill="currentColor"/>
<path d="M944.259 527.535C953.995 537.967 950.795 548.641 946.657 554.663C952.678 550.525 963.352 547.326 973.783 557.062L1000.72 583.997L973.782 610.933C963.351 620.669 952.677 617.47 946.656 613.332C950.794 619.353 953.997 630.028 944.26 640.461L917.323 667.397L890.386 640.461C880.646 630.025 883.853 619.346 887.994 613.326C881.974 617.466 871.295 620.674 860.858 610.933L833.982 584.058L807.108 610.933C796.677 620.669 786.003 617.47 779.982 613.332C784.12 619.353 787.323 630.028 777.586 640.461L750.649 667.397L723.712 640.461C713.972 630.025 717.18 619.346 721.32 613.326C715.3 617.466 704.621 620.674 694.184 610.933L667.248 583.997L694.183 557.062C704.62 547.32 715.3 550.529 721.32 554.67C717.18 548.65 713.973 537.971 723.714 527.535L750.649 500.6L777.585 527.535C787.321 537.967 784.121 548.641 779.983 554.663C786.005 550.525 796.678 547.326 807.109 557.062L833.982 583.935L860.857 557.062C871.294 547.32 881.974 550.529 887.994 554.67C883.854 548.65 880.647 537.971 890.387 527.535L917.323 500.6L944.259 527.535Z" fill="currentColor"/>
<path d="M277.187 360.738C286.924 371.169 283.723 381.844 279.585 387.865C285.607 383.728 296.281 380.528 306.712 390.264L333.647 417.199L306.711 444.135C296.279 453.871 285.606 450.672 279.584 446.534C283.722 452.556 286.925 463.23 277.188 473.663L250.251 500.6L223.315 473.663C213.575 463.227 216.782 452.548 220.922 446.528C214.903 450.669 204.223 453.876 193.786 444.135L166.911 417.26L140.037 444.135C129.606 453.871 118.932 450.672 112.91 446.534C117.049 452.556 120.251 463.23 110.515 473.663L83.5773 500.6L56.641 473.663C46.9009 463.227 50.1082 452.548 54.2485 446.528C48.2287 450.669 37.5492 453.876 27.1125 444.135L0.176268 417.199L27.1115 390.264C37.5486 380.523 48.2288 383.732 54.2485 387.873C50.1083 381.852 46.902 371.173 56.6421 360.738L83.5773 333.802L110.514 360.738C120.25 371.169 117.049 381.844 112.911 387.865C118.933 383.728 129.607 380.528 140.038 390.264L166.911 417.137L193.785 390.264C204.222 380.523 214.903 383.732 220.922 387.873C216.782 381.852 213.576 371.173 223.316 360.738L250.251 333.802L277.187 360.738Z" fill="currentColor"/>
<path d="M944.259 360.738C953.995 371.169 950.795 381.844 946.657 387.865C952.678 383.728 963.352 380.528 973.783 390.264L1000.72 417.199L973.782 444.135C963.351 453.871 952.677 450.672 946.656 446.534C950.794 452.556 953.997 463.23 944.26 473.663L917.323 500.6L890.386 473.663C880.646 463.227 883.853 452.548 887.994 446.528C881.974 450.669 871.295 453.876 860.858 444.135L833.982 417.26L807.108 444.135C796.677 453.871 786.003 450.672 779.982 446.534C784.12 452.556 787.323 463.23 777.586 473.663L750.649 500.6L723.712 473.663C713.972 463.227 717.18 452.548 721.32 446.528C715.3 450.669 704.621 453.876 694.184 444.135L667.248 417.199L694.183 390.264C704.62 380.523 715.3 383.732 721.32 387.873C717.18 381.852 713.973 371.173 723.714 360.738L750.649 333.802L777.585 360.738C787.321 371.169 784.121 381.844 779.983 387.865C786.005 383.728 796.678 380.528 807.109 390.264L833.982 417.137L860.857 390.264C871.294 380.523 881.974 383.732 887.994 387.873C883.854 381.852 880.647 371.173 890.387 360.738L917.323 333.802L944.259 360.738Z" fill="currentColor"/>
<path d="M110.514 193.94C120.25 204.372 117.049 215.046 112.911 221.067C118.933 216.93 129.607 213.731 140.038 223.466L166.973 250.401L140.037 277.338C129.606 287.073 118.932 283.874 112.91 279.737C117.049 285.758 120.251 296.433 110.515 306.865L83.5773 333.802L56.641 306.865C46.9009 296.429 50.1082 285.75 54.2485 279.73C48.2287 283.871 37.5492 287.078 27.1125 277.338L0.176268 250.401L27.1115 223.466C37.5486 213.725 48.2288 216.934 54.2485 221.075C50.1083 215.055 46.902 204.376 56.6421 193.94L83.5773 167.005L110.514 193.94Z" fill="currentColor"/>
<path d="M610.723 193.94C620.459 204.372 617.259 215.046 613.121 221.067C619.143 216.93 629.816 213.731 640.247 223.466L667.183 250.401L640.246 277.338C629.815 287.073 619.141 283.874 613.12 279.737C617.258 285.758 620.461 296.433 610.724 306.865L583.787 333.801L556.851 306.865C547.11 296.429 550.318 285.75 554.458 279.73C548.438 283.871 537.759 287.078 527.322 277.338L500.447 250.462L473.572 277.338C463.141 287.073 452.468 283.874 446.446 279.737C450.584 285.758 453.787 296.433 444.05 306.865L417.113 333.801L390.177 306.865C380.437 296.429 383.644 285.75 387.784 279.73C381.764 283.871 371.085 287.078 360.648 277.338L333.712 250.401L360.647 223.466C371.084 213.725 381.764 216.934 387.784 221.075C383.644 215.055 380.438 204.376 390.178 193.94L417.113 167.005L444.049 193.94C453.786 204.372 450.585 215.046 446.447 221.067C452.469 216.93 463.143 213.731 473.574 223.466L500.447 250.339L527.321 223.466C537.758 213.725 548.438 216.934 554.458 221.075C550.318 215.055 547.112 204.376 556.852 193.94L583.787 167.005L610.723 193.94Z" fill="currentColor"/>
<path d="M944.259 193.94C953.995 204.372 950.795 215.046 946.657 221.067C952.678 216.93 963.352 213.731 973.783 223.466L1000.72 250.401L973.782 277.338C963.351 287.073 952.677 283.874 946.656 279.737C950.794 285.758 953.997 296.433 944.26 306.865L917.323 333.802L890.386 306.865C880.646 296.429 883.853 285.75 887.994 279.73C881.974 283.871 871.295 287.078 860.858 277.338L833.922 250.401L860.857 223.466C871.294 213.725 881.974 216.934 887.994 221.075C883.854 215.055 880.647 204.376 890.387 193.94L917.323 167.005L944.259 193.94Z" fill="currentColor"/>
<path d="M277.136 27.0524C286.872 37.4841 283.672 48.1584 279.534 54.1798C285.556 50.0424 296.229 46.8432 306.66 56.5788L333.596 83.5139L306.659 110.45C296.228 120.186 285.555 116.987 279.533 112.849C283.671 118.87 286.874 129.545 277.137 139.978L250.2 166.914L223.264 139.978C213.523 129.542 216.731 118.863 220.871 112.843C214.851 116.983 204.172 120.191 193.735 110.45L166.86 83.5748L139.985 110.45C129.554 120.186 118.881 116.987 112.859 112.849C116.997 118.87 120.2 129.545 110.463 139.978L83.526 166.914L56.5898 139.978C46.8496 129.542 50.0569 118.863 54.1972 112.843C48.1775 116.983 37.498 120.191 27.0613 110.45L0.125 83.5139L27.0602 56.5788C37.4973 46.8375 48.1775 50.0463 54.1972 54.1873C50.057 48.1671 46.8508 37.4882 56.5908 27.0524L83.526 0.117188L110.462 27.0524C120.199 37.4841 116.998 48.1584 112.86 54.1798C118.882 50.0424 129.556 46.8432 139.987 56.5788L166.86 83.452L193.734 56.5788C204.171 46.8375 214.851 50.0463 220.871 54.1873C216.731 48.1671 213.525 37.4882 223.265 27.0524L250.2 0.117188L277.136 27.0524Z" fill="currentColor"/>
<path d="M610.697 27.0524C620.434 37.4841 617.233 48.1584 613.095 54.1798C619.117 50.0424 629.791 46.8432 640.222 56.5788L667.157 83.5139L640.221 110.45C629.789 120.186 619.116 116.987 613.094 112.849C617.233 118.87 620.435 129.545 610.699 139.978L583.761 166.914L556.825 139.978C547.085 129.542 550.292 118.863 554.432 112.843C548.413 116.983 537.733 120.191 527.296 110.45L500.421 83.5748L473.547 110.45C463.116 120.186 452.442 116.987 446.42 112.849C450.559 118.87 453.761 129.545 444.025 139.978L417.087 166.914L390.151 139.978C380.411 129.542 383.618 118.863 387.759 112.843C381.739 116.983 371.059 120.191 360.623 110.45L333.686 83.5139L360.622 56.5788C371.059 46.8375 381.739 50.0463 387.759 54.1873C383.618 48.1671 380.412 37.4882 390.152 27.0524L417.087 0.117188L444.024 27.0524C453.76 37.4841 450.559 48.1584 446.421 54.1798C452.443 50.0424 463.117 46.8432 473.548 56.5788L500.421 83.452L527.295 56.5788C537.733 46.8375 548.413 50.0463 554.432 54.1873C550.292 48.1671 547.086 37.4882 556.826 27.0524L583.761 0.117188L610.697 27.0524Z" fill="currentColor"/>
<path d="M944.259 27.0524C953.995 37.4841 950.795 48.1584 946.657 54.1798C952.678 50.0424 963.352 46.8432 973.783 56.5788L1000.72 83.5139L973.782 110.45C963.351 120.186 952.677 116.987 946.656 112.849C950.794 118.87 953.997 129.545 944.26 139.978L917.323 166.914L890.386 139.978C880.646 129.542 883.853 118.863 887.994 112.843C881.974 116.983 871.295 120.191 860.858 110.45L833.982 83.5748L807.108 110.45C796.677 120.186 786.003 116.987 779.982 112.849C784.12 118.87 787.323 129.545 777.586 139.978L750.649 166.914L723.712 139.978C713.972 129.542 717.18 118.863 721.32 112.843C715.3 116.983 704.621 120.191 694.184 110.45L667.248 83.5139L694.183 56.5788C704.62 46.8375 715.3 50.0463 721.32 54.1873C717.18 48.1671 713.973 37.4882 723.714 27.0524L750.649 0.117188L777.585 27.0524C787.321 37.4841 784.121 48.1584 779.983 54.1798C786.005 50.0424 796.678 46.8432 807.109 56.5788L833.982 83.452L860.857 56.5788C871.294 46.8375 881.974 50.0463 887.994 54.1873C883.854 48.1671 880.647 37.4882 890.387 27.0524L917.323 0.117188L944.259 27.0524Z" fill="currentColor"/>
<path d="M510.848 435.62C512.889 444.488 514.207 453.538 514.804 462.64C521.297 457.07 528.213 451.997 535.476 447.497L579.238 420.381L552.072 464.061C547.587 471.271 542.532 478.137 536.986 484.587C545.566 485.228 554.094 486.524 562.459 488.477L612.613 500.189L562.459 511.901C554.126 513.847 545.632 515.139 537.085 515.782C543.23 522.738 548.812 530.181 553.732 538.022L581.295 581.946L537.285 554.437C529.508 549.575 522.12 544.066 515.211 538.005C514.625 547.224 513.301 556.39 511.233 565.371L499.605 615.884L487.975 565.371C485.933 556.499 484.614 547.444 484.017 538.337C477.523 543.908 470.608 548.984 463.344 553.485L419.583 580.599L446.749 536.921C451.232 529.714 456.283 522.85 461.826 516.401C453.25 515.761 444.726 514.466 436.365 512.514L386.211 500.803L436.365 489.09C444.698 487.144 453.193 485.85 461.741 485.207C455.594 478.249 450.011 470.802 445.089 462.959L417.526 419.035L461.535 446.545C469.312 451.407 476.702 456.916 483.611 462.977C484.198 453.761 485.523 444.598 487.59 435.62L499.219 385.107L510.848 435.62Z" fill="currentColor"/>

</svg>
