<svg width="24" height="24" viewBox="0 0 24 24" fill="none" xmlns="http://www.w3.org/2000/svg">
<path d="M22.5589 12.2498C22.5589 11.4698 22.489 10.7198 22.359 9.99975H11.999V14.2598H17.919C17.659 15.6297 16.879 16.7898 15.709 17.5698V20.3397H19.279C21.3589 18.4197 22.5589 15.5997 22.5589 12.2498Z" fill="currentColor"/>
<path d="M11.999 22.9998C14.969 22.9998 17.459 22.0197 19.279 20.3397L15.709 17.5698C14.729 18.2298 13.479 18.6297 11.999 18.6297C9.13902 18.6297 6.70902 16.6998 5.83902 14.0998H2.17902V16.9398C3.98902 20.5297 7.69902 22.9998 11.999 22.9998Z" fill="currentColor"/>
<path d="M5.83902 14.0898C5.61903 13.4298 5.48902 12.7297 5.48902 11.9998C5.48902 11.2698 5.61903 10.5697 5.83902 9.90975V7.06976H2.17902C1.42902 8.54976 0.999023 10.2198 0.999023 11.9998C0.999023 13.7797 1.42902 15.4497 2.17902 16.9298L5.02902 14.7098L5.83902 14.0898Z" fill="currentColor"/>
<path d="M11.999 5.37975C13.619 5.37975 15.059 5.93976 16.209 7.01976L19.359 3.86976C17.4491 2.08975 14.969 0.999756 11.999 0.999756C7.69902 0.999756 3.98902 3.46975 2.17902 7.06976L5.83902 9.90975C6.70902 7.30976 9.13902 5.37975 11.999 5.37975Z" fill="currentColor"/>
</svg>
