<svg xmlns="http://www.w3.org/2000/svg" width="24" height="24" viewBox="0 0 24 24" fill="none"><path fill="currentColor" d="M3 7.154C3 5.964 3.948 5 5.118 5s2.117.964 2.117 2.154v9.692c0 1.19-.948 2.154-2.117 2.154C3.948 19 3 18.036 3 16.846V7.154ZM16.765 7.154c0-1.19.948-2.154 2.117-2.154C20.052 5 21 5.964 21 7.154s-.948 2.154-2.118 2.154-2.117-.965-2.117-2.154ZM16.765 12.539c0-1.19.948-2.154 2.117-2.154 1.17 0 2.118.964 2.118 2.154v4.307c0 1.19-.948 2.154-2.118 2.154s-2.117-.964-2.117-2.154V12.54ZM10 12.5c0-1.19.948-2.154 2.118-2.154s2.117.964 2.117 2.154v4.308c0 1.19-.948 2.154-2.117 2.154-1.17 0-2.118-.965-2.118-2.154V12.5Z"/></svg>