<svg xmlns="http://www.w3.org/2000/svg" width="28" height="29" viewBox="0 0 28 29" fill="none"><path d="M25.473 11.867c-2.94-.689-6.265-.91-5.458-6.276L25.96 7.26l2.039.492A7.444 7.444 0 0 0 20.555.5H7.403A7.406 7.406 0 0 0 0 7.905v6.229c0 2.089 1.127 2.67 2.529 2.999 2.94.689 6.265.91 5.458 6.276L2.043 21.74l-2.039-.492A7.403 7.403 0 0 0 7.405 28.5h13.192a7.407 7.407 0 0 0 7.405-7.405v-6.229c0-2.089-1.126-2.673-2.529-3.001v.002Zm-3.001 2.636a13.413 13.413 0 0 0-8.47 8.467 13.403 13.403 0 0 0-8.472-8.467V14.5a13.413 13.413 0 0 0 8.471-8.466 13.403 13.403 0 0 0 8.47 8.466v.004Z" fill="currentColor"></path></svg>
