<svg xmlns="http://www.w3.org/2000/svg" fill="currentColor" fill-rule="evenodd" style="line-height:1" viewBox="0 0 300 300"><path fill="currentColor" d="M215.8 37.6h-52.5l-41.6 94.8H63V38H16v244.3h47V179.4h82.9a36.7 36.7 0 0 0 33.3-21.2v124.1h47V179.4a47 47 0 0 0-43.6-46.9h-25.8a47.8 47.8 0 0 0 28.2-25.8zm21.6 47.7 5.5-7c.9-1.1.8-2 0-3-8-10.5-8.7-22-4.2-33.9 3.5-8.8 11-13 20.4-13.9 5.8-.5 11.4 0 16.7 3 7 3.6 11 9.3 12.3 17 1 6.3.8 12.3-1 18.4-3 10.6-10.7 16.1-21.2 17.5-8.7 1.2-17.6 1.3-26.4 2h-2.1z"/></svg>
