<svg width="16" height="16" viewBox="0 0 16 16" fill="none" xmlns="http://www.w3.org/2000/svg">
<g clip-path="url(#clip0_207_777)">
<path d="M0.748238 4.64284C3.06557 0.629506 8.02601 -0.84382 11.8273 1.35085C10.1374 0.375528 7.05395 2.55192 4.94062 6.21315L4.74043 6.56862C4.28377 7.40319 3.90456 8.27815 3.60859 9.18288L0.570503 7.43092C0.118566 7.16963 -0.115698 6.63935 0.0568315 6.14675C0.19436 5.75538 0.359567 5.37428 0.549996 5.00612L0.748238 4.64284ZM7.81074 1.33913C5.50565 1.40726 3.21724 2.63255 1.81464 4.81374L1.61445 5.14284C1.36908 5.56764 1.1629 6.01402 1.00019 6.47682C0.999693 6.47824 1.00022 6.47945 1.00019 6.47975C1.00022 6.4805 1.00049 6.48564 1.0041 6.4944C1.01202 6.51364 1.03308 6.54251 1.07148 6.56471L3.08125 7.72487C3.36645 7.03192 3.69897 6.35871 4.07636 5.71022C5.14675 3.85667 6.47445 2.32547 7.81074 1.33913Z" fill="currentColor"/>
<path d="M12.3928 6.77715L15.4309 8.53005C15.8827 8.79075 16.1161 9.32139 15.9436 9.81323C15.7602 10.3346 15.5287 10.8385 15.2522 11.3171L15.0276 11.6853C12.6263 15.4184 7.85622 16.7356 4.17294 14.609C5.86299 15.5848 8.94645 13.407 11.0598 9.74584C11.6072 8.80559 12.0543 7.81119 12.3928 6.77715ZM12.9172 8.23416C12.6319 8.92703 12.3016 9.60136 11.924 10.2497C10.8539 12.1027 9.52552 13.6324 8.1896 14.6188C10.6083 14.5474 13.0089 13.2027 14.3869 10.8161C14.6323 10.3913 14.8374 9.94403 15.0002 9.4812C15.0002 9.48009 14.9998 9.47388 14.9963 9.46558C14.9923 9.45604 14.9854 9.44439 14.9748 9.43237L14.9309 9.39624L12.9172 8.23416Z" fill="currentColor"/>
<path d="M11.0603 9.74685C13.1736 6.08551 13.518 2.32685 11.8273 1.35085C10.1387 0.375513 7.05529 2.55315 4.94062 6.21315C6.32329 3.81982 8.81294 2.67018 10.5029 3.64551C12.1923 4.62151 12.4418 7.35184 11.0598 9.74584L11.0603 9.74685Z" fill="currentColor"/>
<path d="M4.94062 6.21315C2.82729 9.87448 2.48227 13.6337 4.17294 14.609C5.86227 15.585 8.94627 13.4082 11.0603 9.74685C9.6776 12.1408 7.1876 13.2902 5.4976 12.3142C3.80827 11.3388 3.55894 8.60751 4.94094 6.21418L4.94062 6.21315Z" fill="currentColor"/>
</g>
<defs>
<clipPath id="clip0_207_777">
<rect width="16" height="16" fill="currentColor"/>
</clipPath>
</defs>
</svg>
