<svg viewBox="0 0 16 16" xmlns="http://www.w3.org/2000/svg" fill="none" fill-rule="evenodd" clip-rule="evenodd" stroke-linejoin="round" stroke-miterlimit="2">
<path fill="currentColor" d="M4.947.011C6.251-.08 7.401.827 7.57 2.08c.16 1.19-.655 2.34-1.879 2.61-.307.068-.647.049-.972.09-.768.09-1.483.44-2.028.989l-.007.003h-.006l-.005-.005-.002-.006.003-.012a.03.03 0 00.006-.016C2.67 4.615 2.668 3.498 2.67 2.38 2.673 1.14 3.652.103 4.947.01z"/>
<path fill="currentColor" d="M5.085 10.375C3.426 10.36 2.237 8.728 2.815 7.2a2.447 2.447 0 012.034-1.558c.284-.03.624-.022.897-.072 1.403-.26 2.487-1.334 2.705-2.7.049-.302.023-.664.095-.985.331-1.488 2.037-2.323 3.469-1.65a2.393 2.393 0 011.37 1.806c.025.162.034.363.025.603-.162 4.312-3.845 7.765-8.325 7.728m2.09.687a.029.029 0 01-.016-.015v-.004l.001-.004c0-.002 0-.003.002-.004l.004-.002a9.375 9.375 0 004.423-2.35c.022-.021.043-.02.062.004.199.264.408.547.575.817a7.827 7.827 0 011.187 4.214c-.062 1.259-1.114 2.273-2.443 2.28-1.175.008-2.209-.794-2.431-1.916-.054-.266-.038-.633-.082-.914a3.171 3.171 0 00-1.266-2.096l-.016-.01zm-2.487 4.901c-.999-.173-1.802-.949-1.981-1.914-.029-.2-.041-.401-.037-.603v-3.19c0-.011.003-.013.011-.006.653.58 1.34.935 2.236.993l.24.008c1.167.038 2.156.802 2.384 1.913.337 1.643-1.15 3.097-2.854 2.8h.001z"/>
</svg>
