<svg xmlns="http://www.w3.org/2000/svg" fill="none" viewBox="0 0 94.75 66.65"><path fill="currentColor" fill-rule="evenodd" d="M2 66.65a2 2 0 0 1-1.93-2.53L16.94 2.94A4 4 0 0 1 23 .66l22.2 14.56a4 4 0 0 0 4.38 0L71.86.65a4 4 0 0 1 6.04 2.3l16.78 61.17a2 2 0 0 1-1.93 2.53H71.33a24.86 24.86 0 0 0 6.05-16.25v-.7c0-5.83-2.13-11.47-5.98-15.85l-2.75-13.8A1.73 1.73 0 0 0 65.91 19l-10.36 7.77c-.74.56-1.7.73-2.58.48a20.35 20.35 0 0 0-11.19 0c-.88.25-1.84.08-2.58-.48L28.83 19a1.72 1.72 0 0 0-2.71 1.06l-2.67 14.42a21.16 21.16 0 0 0-6.07 14.83v1.32c0 5.82 2.08 11.45 5.87 15.87l.13.15z"/><path fill="currentColor" d="M36.38 54.65h6v-14h-5.1zm22 0h-6v-14h5.09z"/><path fill="currentColor" fill-rule="evenodd" d="M35.3 55.65h8.08v-16h-7.03Zm16.08 0h8.06l-1.04-16h-7.02Zm-10-1h-5l.9-14h5.1v14Zm16.93-1 .07 1h-6v-14h5.09z"/></svg>