<svg width="400" height="400" viewBox="0 0 1287 561" fill="none" xmlns="http://www.w3.org/2000/svg">
<path d="M0.128738 525.924V131.645C0.128738 124.588 2.82958 117.618 8.1877 113.044C12.5439 109.341 17.4228 107.468 22.781 107.468H144.362C151.419 107.468 158.389 109.951 163.268 115.047C167.232 119.229 169.193 124.239 169.193 130.12V406.62C169.193 413.851 175.03 419.688 182.261 419.688H376.112C383.169 419.688 390.183 422.171 395.018 427.268C398.939 431.45 400.942 436.46 400.942 442.341V536.03C400.942 544.089 397.457 552.017 390.792 556.548C386.872 559.205 382.429 560.512 377.419 560.512L35.0219 560.73C15.7239 560.773 0.128738 545.178 0.128738 525.924Z" fill="currentColor"/>
<path d="M634.255 560.697C596.021 560.61 562.49 554.773 533.575 543.098C504.66 531.424 482.233 512.387 466.251 485.901C450.269 459.459 442.344 424.436 442.431 380.874L442.692 240.604L373.473 240.473C367.289 240.473 362.107 238.295 357.883 233.895C353.659 229.496 351.569 224.181 351.612 217.778L351.786 129.782C351.786 123.379 353.92 118.021 358.144 113.664C362.368 109.308 367.55 107.13 373.734 107.174L442.954 107.304L443.128 22.8874C443.128 16.4838 445.262 11.1257 449.486 6.76948C453.71 2.41328 458.892 0.278748 465.075 0.278748L587.268 0.496558C593.452 0.496558 598.634 2.67466 602.858 7.07441C607.082 11.4742 609.172 16.8323 609.129 23.1923L608.955 107.609L715.166 107.827C721.349 107.827 726.531 110.005 730.756 114.405C734.98 118.805 737.07 124.163 737.026 130.523L736.852 218.518C736.852 224.922 734.718 230.28 730.494 234.636C726.27 238.992 721.045 241.17 714.904 241.127L608.693 240.909L608.476 366.367C608.476 383.226 611.785 396.425 618.535 406.009C625.285 415.592 635.91 420.428 650.542 420.428L721.349 420.559C727.533 420.559 732.715 422.737 736.939 427.136C741.163 431.536 743.253 436.894 743.21 443.254L743.036 538.219C743.036 544.623 740.902 549.981 736.678 554.337C732.454 558.693 727.228 560.872 721.088 560.828L634.299 560.654L634.255 560.697Z" fill="currentColor"/>
<path d="M811.254 560.551C805.643 560.551 801.031 558.504 797.421 554.453C793.767 550.401 791.983 545.74 791.983 540.513C791.983 538.77 792.244 536.723 792.809 534.414C793.375 532.105 794.506 529.753 796.159 527.444L930.405 331.938C932.407 329.02 932.45 325.143 930.492 322.18L809.601 140.658C808.47 138.915 807.513 136.868 806.643 134.559C805.816 132.25 805.381 129.898 805.381 127.589C805.381 122.362 807.339 117.7 811.254 113.649C815.169 109.598 819.65 107.551 824.696 107.551H953.07C960.9 107.551 966.773 109.424 970.688 113.214C974.603 117.003 977.387 120.314 979.084 123.233L1034.77 207.264C1038.2 212.448 1045.82 212.448 1049.25 207.264L1104.93 123.233C1107.15 120.314 1110.11 117.003 1113.72 113.214C1117.33 109.424 1123.07 107.551 1130.9 107.551H1253.41C1258.45 107.551 1262.89 109.598 1266.85 113.649C1270.76 117.7 1272.72 122.057 1272.72 126.718C1272.72 129.636 1272.42 132.25 1271.89 134.559C1271.33 136.868 1270.2 138.915 1268.54 140.658L1145.26 322.137C1143.22 325.143 1143.26 329.063 1145.35 332.025L1281.99 527.488C1283.68 529.797 1284.77 532.149 1285.34 534.458C1285.9 536.767 1286.16 538.814 1286.16 540.556C1286.16 545.784 1284.2 550.445 1280.29 554.496C1276.37 558.548 1271.89 560.595 1266.85 560.595H1132.6C1125.34 560.595 1120.03 558.853 1116.68 555.368C1113.33 551.883 1110.5 548.703 1108.28 545.784L1045.69 454.914C1042.25 449.948 1034.94 449.904 1031.46 454.783L966.512 545.74C964.815 548.659 962.162 551.839 958.551 555.324C954.897 558.809 949.459 560.551 942.194 560.551H811.254Z" fill="currentColor"/>
</svg>
