<svg width="191" height="135" viewBox="0 0 191 135" fill="none" xmlns="http://www.w3.org/2000/svg">
<g clip-path="url(#clip0_777_23904)">
<path d="M54.3221 0H27.1531V27.0892H54.3221V0Z" fill="currentColor"/>
<path d="M162.984 0H135.815V27.0892H162.984V0Z" fill="currentColor"/>
<path d="M81.4823 27.0913H27.1531V54.1805H81.4823V27.0913Z" fill="currentColor"/>
<path d="M162.99 27.0913H108.661V54.1805H162.99V27.0913Z" fill="currentColor"/>
<path d="M162.972 54.168H27.1531V81.2572H162.972V54.168Z" fill="currentColor"/>
<path d="M54.3221 81.2593H27.1531V108.349H54.3221V81.2593Z" fill="currentColor"/>
<path d="M108.661 81.2593H81.4917V108.349H108.661V81.2593Z" fill="currentColor"/>
<path d="M162.984 81.2593H135.815V108.349H162.984V81.2593Z" fill="currentColor"/>
<path d="M81.4879 108.339H-0.00146484V135.429H81.4879V108.339Z" fill="currentColor"/>
<path d="M190.159 108.339H108.661V135.429H190.159V108.339Z" fill="currentColor"/>
</g>
<defs>
<clipPath id="clip0_777_23904">
<rect width="191" height="135" fill="currentColor"/>
</clipPath>
</defs>
</svg>
