<svg width="16" height="16" viewBox="0 0 16 16" fill="none" xmlns="http://www.w3.org/2000/svg">
<g clip-path="url(#clip0_207_787)">
<path d="M6.13671 5.82397V4.30396C6.13671 4.17593 6.18431 4.07988 6.29527 4.01595L9.32406 2.25598C9.73637 2.01599 10.228 1.90404 10.7353 1.90404C12.6382 1.90404 13.8434 3.39208 13.8434 4.97601C13.8434 5.08798 13.8434 5.216 13.8274 5.34401L10.6877 3.48798C10.4975 3.37603 10.3071 3.37603 10.1168 3.48798L6.13671 5.82397ZM13.209 11.7441V8.11194C13.209 7.88788 13.1138 7.72789 12.9236 7.61593L8.94343 5.27994L10.2437 4.52789C10.3547 4.46396 10.4499 4.46396 10.5608 4.52789L13.5896 6.28788C14.4619 6.79994 15.0484 7.88788 15.0484 8.94383C15.0484 10.1598 14.335 11.2798 13.209 11.7439V11.7441ZM5.20114 8.54401L3.90086 7.77607C3.7899 7.71214 3.74231 7.61608 3.74231 7.48806V3.96809C3.74231 2.25613 5.04259 0.960035 6.80278 0.960035C7.46884 0.960035 8.08714 1.18411 8.61056 1.58407L5.48673 3.40814C5.29649 3.5201 5.20129 3.68008 5.20129 3.90416V8.54417L5.20114 8.54401ZM7.99998 10.176L6.1367 9.12003V6.88008L7.99998 5.82413L9.86309 6.88008V9.12003L7.99998 10.176ZM9.19718 15.0401C8.53112 15.0401 7.91282 14.816 7.3894 14.4161L10.5132 12.5919C10.7034 12.48 10.7987 12.32 10.7987 12.096V7.45594L12.1149 8.22389C12.2258 8.28782 12.2734 8.38388 12.2734 8.5119V12.0319C12.2734 13.7438 10.9572 15.04 9.19718 15.04V15.0401ZM5.43898 11.4721L2.41018 9.71209C1.53796 9.20001 0.951344 8.11209 0.951344 7.05614C0.951344 5.82413 1.68077 4.72014 2.80657 4.2561V7.90409C2.80657 8.12816 2.90176 8.28814 3.09201 8.4001L7.05638 10.72L5.7561 11.4721C5.64514 11.536 5.54993 11.536 5.43898 11.4721ZM5.26464 14.0961C3.47278 14.0961 2.15658 12.736 2.15658 11.056C2.15658 10.928 2.17249 10.8 2.18826 10.672L5.3121 12.4961C5.50234 12.608 5.69273 12.608 5.88297 12.4961L9.8631 10.1761V11.6962C9.8631 11.8242 9.81551 11.9202 9.70454 11.9841L6.67575 13.7441C6.26345 13.9841 5.77185 14.0961 5.2645 14.0961L5.26464 14.0961ZM9.19718 16C11.1159 16 12.7174 14.624 13.0823 12.8C14.8582 12.3359 16 10.6559 16 8.94399C16 7.82394 15.5243 6.73602 14.6679 5.952C14.7473 5.61597 14.7949 5.27994 14.7949 4.94406C14.7949 2.65611 12.9554 0.943993 10.8305 0.943993C10.4025 0.943993 9.99012 1.00792 9.57781 1.15201C8.86415 0.447981 7.88098 0 6.80278 0C4.88403 0 3.28255 1.37593 2.91768 3.19999C1.14174 3.66402 0 5.34402 0 7.05598C0 8.17602 0.475667 9.26394 1.33197 10.048C1.25268 10.384 1.20508 10.72 1.20508 11.0559C1.20508 13.3438 3.04454 15.0559 5.16946 15.0559C5.59752 15.0559 6.00984 14.9921 6.42214 14.848C7.13564 15.552 8.11882 16 9.19718 16Z" fill="currentColor"/>
</g>
<defs>
<clipPath id="clip0_207_787">
<rect width="16" height="16" fill="white"/>
</clipPath>
</defs>
</svg>
