<svg xmlns="http://www.w3.org/2000/svg" width="128" height="128" viewBox="0 0 128 128" fill="currentColor"><path fill="currentColor" d="M32.429 81.14 52.87 69.67l.342-1-.342-.553h-1l-3.42-.21-11.681-.316-10.13-.42-9.813-.527-2.473-.526-2.315-3.052.237-1.526 2.078-1.394 2.973.263 6.577.447 9.866.684 7.156.421 10.603 1.105h1.684l.237-.684-.58-.421-.446-.42-10.208-6.92-11.05-7.314-5.788-4.21-3.131-2.13-1.578-2-.685-4.367 2.842-3.131 3.815.263.973.263 3.867 2.973 8.262 6.393 10.786 7.945 1.579 1.316.631-.447.08-.316-.711-1.184-5.867-10.603-6.262-10.786-2.788-4.473-.737-2.683c-.263-1.105-.447-2.026-.447-3.158l3.236-4.393L41.032 12l4.314.579 1.816 1.578 2.683 6.13 4.341 9.656 6.735 13.128 1.974 3.894 1.052 3.604.395 1.105h.684v-.631l.552-7.393 1.026-9.077 1-11.681.342-3.289 1.631-3.946 3.236-2.131 2.526 1.21 2.078 2.973-.29 1.92-1.236 8.025-2.42 12.576-1.579 8.419h.921l1.052-1.053 4.263-5.656 7.156-8.945 3.157-3.552 3.683-3.92 2.368-1.868h4.472l3.289 4.893-1.473 5.052-4.604 5.84-3.815 4.947-5.473 7.366-3.42 5.893.316.474.816-.079 12.365-2.63 6.682-1.211 7.972-1.368 3.604 1.684.395 1.71-1.421 3.499-8.524 2.105-9.997 1.999-14.891 3.525-.184.132.21.263 6.709.632 2.868.157h7.024l13.076.974 3.42 2.262 2.052 2.763-.342 2.104-5.262 2.684-7.103-1.684-16.575-3.946-5.683-1.42h-.789v.473l4.736 4.63 8.682 7.84 10.865 10.103.553 2.5-1.395 1.973-1.473-.21-9.55-7.183-3.683-3.236-8.34-7.025h-.553v.737l1.92 2.815 10.156 15.259.526 4.683-.736 1.526-2.631.921-2.894-.526-5.946-8.34-6.13-9.393-4.946-8.419-.605.343-2.92 31.439-1.369 1.605-3.157 1.21-2.63-2-1.395-3.236 1.394-6.393 1.684-8.34 1.368-6.63 1.236-8.234.737-2.736-.052-.185-.605.08-6.21 8.524-9.445 12.76-7.471 7.997-1.79.711-3.104-1.605.29-2.868 1.736-2.552 10.34-13.154 6.235-8.156 4.025-4.71-.026-.684h-.237L29.929 92.427l-4.893.631-2.105-1.973.263-3.236 1-1.052 8.26-5.683-.025.026Z"/></svg>
