<svg width="16" height="16" viewBox="0 0 16 16" fill="none" xmlns="http://www.w3.org/2000/svg">
<path d="M9 1.3335C9 1.62966 8.87127 1.89576 8.66667 2.07886V3.3335H12C13.1046 3.3335 14 4.22893 14 5.3335V12.0002C14 13.1048 13.1046 14.0002 12 14.0002H4C2.89543 14.0002 2 13.1048 2 12.0002V5.3335C2 4.22893 2.89543 3.3335 4 3.3335H7.33333V2.07886C7.12873 1.89576 7 1.62966 7 1.3335C7 0.781209 7.44773 0.333496 8 0.333496C8.55227 0.333496 9 0.781209 9 1.3335ZM0 6.66683H1.33333V10.6668H0V6.66683ZM16 6.66683H14.6667V10.6668H16V6.66683ZM6 9.66683C6.55229 9.66683 7 9.2191 7 8.66683C7 8.11456 6.55229 7.66683 6 7.66683C5.44771 7.66683 5 8.11456 5 8.66683C5 9.2191 5.44771 9.66683 6 9.66683ZM11 8.66683C11 8.11456 10.5523 7.66683 10 7.66683C9.44773 7.66683 9 8.11456 9 8.66683C9 9.2191 9.44773 9.66683 10 9.66683C10.5523 9.66683 11 9.2191 11 8.66683Z" fill="currentColor"/>
</svg>
