<svg width="16" height="16" viewBox="0 0 16 16" fill="none" xmlns="http://www.w3.org/2000/svg">
<g clip-path="url(#clip0_207_790)">
<path d="M15.9488 9.71277L14.0994 6.47609L13.882 6.09378L14.8617 4.38116C14.895 4.32174 14.9129 4.25716 14.9129 4.19C14.9129 4.12284 14.895 4.05826 14.8617 3.99885L13.772 2.09507C13.7388 2.03566 13.6902 1.98916 13.6339 1.95558C13.5776 1.922 13.5137 1.90392 13.4446 1.90392H9.30584L8.32614 0.188711C8.25963 0.0698867 8.13429 -0.00244141 7.99872 -0.00244141H5.8219C5.7554 -0.00244141 5.68889 0.0156406 5.63261 0.0492215C5.57634 0.0828024 5.52774 0.129299 5.49448 0.188711L3.64253 3.42798L3.4251 3.8077H1.46571C1.3992 3.8077 1.33269 3.82578 1.27642 3.85936C1.22014 3.89294 1.17154 3.93944 1.13829 3.99885L0.0511591 5.90521C0.0179057 5.96462 0 6.0292 0 6.09636C0 6.16353 0.0179057 6.2281 0.0511591 6.28752L2.12054 9.9065L1.14085 11.6217C1.10759 11.6811 1.08969 11.7457 1.08969 11.8129C1.08969 11.88 1.10759 11.9446 1.14085 12.004L2.23054 13.9078C2.26379 13.9672 2.31239 14.0137 2.36867 14.0473C2.42494 14.0809 2.48889 14.0989 2.55795 14.0989H6.69416L7.67386 15.8142C7.74037 15.933 7.86571 16.0053 8.00128 16.0053H10.1781C10.2446 16.0053 10.3111 15.9872 10.3674 15.9536C10.4237 15.9201 10.4723 15.8736 10.5055 15.8142L12.5749 12.1952H14.5343C14.6008 12.1952 14.6673 12.1771 14.7236 12.1435C14.7799 12.1099 14.8285 12.0634 14.8617 12.004L15.9514 10.1002C15.9847 10.0408 16.0026 9.97625 16.0026 9.90909C16.0026 9.84192 15.9847 9.77735 15.9514 9.71793L15.9488 9.71277ZM5.8219 0.379864L6.91159 2.28623L5.8219 4.19H14.5343L13.4446 6.09378H5.16707L3.85995 3.8077L5.8219 0.379864ZM6.47418 13.7115H2.5554L3.64508 11.8051H5.8219L1.46571 4.19H3.64253L4.73221 6.09378L7.78129 11.428L6.47418 13.7141V13.7115ZM13.4446 9.90134L12.3575 7.99756L8.00128 15.6178L6.91159 13.7141L8.00128 11.8103L11.0504 6.47609H13.6646L15.624 9.90392H13.4446V9.90134Z" fill="currentColor"/>
</g>
<defs>
<clipPath id="clip0_207_790">
<rect width="16" height="16" fill="currentColor"/>
</clipPath>
</defs>
</svg>
