<svg xmlns="http://www.w3.org/2000/svg" viewBox="0 0 1000 1000">
<g clip-path="url(#clip0_1034_4356)">
<path d="M0 414.587C0 414.565 0.000979598 414.542 0.00106148 414.52L0.00106135 411.636H0.242018C2.11468 400.279 14.3913 392.461 20.7785 389.827C16.3709 385.382 10.2006 373.637 20.7785 362.21L45.3358 337.45L69.8921 362.21C80.4705 373.638 74.2998 385.383 69.8921 389.827C76.2792 392.461 88.5559 400.279 90.4286 411.636H90.6728L90.6728 585.907C90.6728 585.927 90.6718 585.947 90.6717 585.967V588.858H90.4297C88.5572 600.215 76.2804 608.032 69.8932 610.667C74.3008 615.111 80.4714 626.856 69.8932 638.283L45.3369 663.043L20.7796 638.283C10.2017 626.856 16.372 615.111 20.7796 610.667C14.3923 608.032 2.11551 600.215 0.243087 588.858H7.61762e-06L0 414.587Z" fill="currentcolor"/>
<path d="M585.413 0C585.435 9.73855e-10 585.458 0.0009796 585.48 0.00106148H588.364V0.242018C599.721 2.11468 607.539 14.3913 610.173 20.7785C614.617 16.3709 626.362 10.2006 637.79 20.7785L662.55 45.3358L637.79 69.8921C626.362 80.4705 614.617 74.2998 610.173 69.8921C607.539 76.2792 599.721 88.5559 588.364 90.4286V90.6728H414.093C414.073 90.6728 414.053 90.6718 414.033 90.6717H411.142V90.4297C399.785 88.5572 391.968 76.2804 389.333 69.8932C384.889 74.3008 373.144 80.4714 361.717 69.8932L336.956 45.3369L361.717 20.7795C373.144 10.2017 384.889 16.372 389.333 20.7795C391.968 14.3923 399.785 2.11551 411.142 0.243079V0H585.413Z" fill="currentcolor"/>
<path d="M1000 585.413C1000 585.435 999.999 585.458 999.999 585.48V588.364H999.758C997.885 599.721 985.609 607.539 979.221 610.173C983.629 614.617 989.799 626.362 979.221 637.79L954.664 662.55L930.108 637.79C919.529 626.362 925.7 614.617 930.108 610.173C923.721 607.539 911.444 599.721 909.571 588.364H909.327L909.327 414.093C909.327 414.073 909.328 414.053 909.328 414.033V411.142H909.57C911.443 399.785 923.719 391.968 930.107 389.333C925.699 384.889 919.528 373.144 930.107 361.717L954.663 336.956L979.22 361.717C989.798 373.144 983.628 384.889 979.22 389.333C985.608 391.968 997.884 399.785 999.757 411.142H1000L1000 585.413Z" fill="currentcolor"/>
<path d="M414.587 1000C414.565 1000 414.542 999.999 414.52 999.999H411.636V999.758C400.279 997.885 392.461 985.609 389.827 979.221C385.382 983.629 373.637 989.799 362.21 979.221L337.45 954.664L362.21 930.108C373.638 919.529 385.383 925.7 389.827 930.108C392.461 923.721 400.279 911.444 411.636 909.571V909.327H585.907C585.927 909.327 585.947 909.328 585.967 909.328H588.858V909.57C600.215 911.443 608.032 923.719 610.667 930.107C615.111 925.699 626.856 919.528 638.283 930.107L663.043 954.663L638.283 979.22C626.856 989.798 615.111 983.628 610.667 979.22C608.032 985.608 600.215 997.884 588.858 999.757V1000H414.587Z" fill="currentcolor"/>
<path d="M206.843 86.0504C206.859 86.0346 206.875 86.0195 206.891 86.0038L208.93 83.9645L209.101 84.1349C218.455 77.4285 232.664 80.5815 239.043 83.235C239.069 76.9757 243.011 64.3077 258.571 63.7071L293.444 63.5637L293.3 98.4357C292.699 113.996 280.031 117.938 273.772 117.964C276.426 124.343 279.579 138.552 272.872 147.906L273.045 148.079L149.817 271.307C149.803 271.321 149.787 271.335 149.773 271.349L147.729 273.393L147.558 273.222C138.203 279.929 123.995 276.775 117.615 274.122C117.59 280.381 113.648 293.049 98.0875 293.65L63.2155 293.794L63.3589 258.921C63.9596 243.361 76.6277 239.419 82.8867 239.393C80.2332 233.014 77.0799 218.805 83.7867 209.45L83.6148 209.278L206.843 86.0504Z" fill="currentcolor"/>
<path d="M913.95 206.843C913.965 206.859 913.98 206.875 913.996 206.891L916.035 208.93L915.865 209.101C922.571 218.455 919.418 232.664 916.765 239.043C923.024 239.069 935.692 243.011 936.293 258.571L936.436 293.444L901.564 293.3C886.004 292.699 882.062 280.031 882.036 273.772C875.657 276.426 861.448 279.579 852.093 272.872L851.921 273.045L728.693 149.817C728.679 149.803 728.665 149.787 728.651 149.773L726.607 147.729L726.778 147.558C720.071 138.203 723.225 123.995 725.878 117.615C719.619 117.59 706.951 113.648 706.35 98.0874L706.206 63.2155L741.079 63.3589C756.639 63.9596 760.581 76.6277 760.607 82.8867C766.986 80.2332 781.195 77.0799 790.55 83.7866L790.721 83.6148L913.95 206.843Z" fill="currentcolor"/>
<path d="M793.157 913.95C793.141 913.965 793.125 913.98 793.109 913.996L791.07 916.035L790.899 915.865C781.545 922.571 767.336 919.418 760.957 916.765C760.931 923.024 756.989 935.692 741.429 936.293L706.556 936.436L706.7 901.564C707.301 886.004 719.969 882.062 726.228 882.036C723.574 875.657 720.421 861.448 727.128 852.093L726.955 851.921L850.183 728.693C850.197 728.679 850.213 728.665 850.227 728.651L852.271 726.607L852.442 726.778C861.797 720.071 876.005 723.225 882.385 725.878C882.41 719.619 886.352 706.951 901.912 706.35L936.784 706.206L936.641 741.079C936.04 756.639 923.372 760.581 917.113 760.607C919.767 766.986 922.92 781.195 916.213 790.55L916.385 790.721L793.157 913.95Z" fill="currentcolor"/>
<path d="M86.0504 793.157C86.0347 793.141 86.0195 793.125 86.0039 793.109L83.9645 791.07L84.1349 790.899C77.4285 781.545 80.5815 767.336 83.235 760.956C76.9758 760.931 64.3077 756.989 63.7071 741.429L63.5638 706.556L98.4357 706.7C113.996 707.301 117.938 719.969 117.964 726.228C124.343 723.574 138.552 720.421 147.906 727.128L148.079 726.955L271.307 850.183C271.321 850.197 271.335 850.213 271.349 850.227L273.393 852.271L273.222 852.442C279.929 861.797 276.775 876.005 274.122 882.385C280.381 882.41 293.049 886.352 293.65 901.912L293.794 936.784L258.921 936.641C243.361 936.04 239.419 923.372 239.393 917.113C233.014 919.767 218.805 922.92 209.45 916.213L209.278 916.385L86.0504 793.157Z" fill="currentcolor"/>
<path d="M337.676 170.639C327.673 160.636 327.673 144.418 337.676 134.416C347.679 124.413 363.897 124.413 373.9 134.416C383.902 144.418 383.902 160.636 373.9 170.639C363.897 180.642 347.679 180.642 337.676 170.639Z" fill="currentcolor"/>
<path d="M626.807 170.639C616.804 160.636 616.804 144.418 626.807 134.416C636.809 124.413 653.027 124.413 663.03 134.416C673.033 144.418 673.033 160.636 663.03 170.639C653.027 180.642 636.809 180.642 626.807 170.639Z" fill="currentcolor"/>
<path d="M131.154 373.9C121.152 363.897 121.152 347.679 131.154 337.677C141.157 327.674 157.375 327.674 167.378 337.677C177.381 347.679 177.381 363.897 167.378 373.9C157.375 383.903 141.157 383.903 131.154 373.9Z" fill="currentcolor"/>
<path d="M131.154 625.72C121.152 635.723 121.152 651.941 131.154 661.943C141.157 671.946 157.375 671.946 167.378 661.943C177.381 651.941 177.381 635.723 167.378 625.72C157.375 615.717 141.157 615.717 131.154 625.72Z" fill="currentcolor"/>
<path d="M337.676 833.329C327.673 843.331 327.673 859.549 337.676 869.552C347.679 879.555 363.897 879.555 373.9 869.552C383.902 859.549 383.902 843.331 373.9 833.329C363.897 823.326 347.679 823.326 337.676 833.329Z" fill="currentcolor"/>
<path d="M626.807 833.329C616.804 843.331 616.804 859.549 626.807 869.552C636.809 879.555 653.027 879.555 663.03 869.552C673.033 859.549 673.033 843.331 663.03 833.329C653.027 823.326 636.809 823.326 626.807 833.329Z" fill="currentcolor"/>
<path d="M830.067 368.465C820.065 358.462 820.065 342.245 830.067 332.242C840.07 322.239 856.288 322.239 866.291 332.242C876.294 342.245 876.294 358.462 866.291 368.465C856.288 378.468 840.07 378.468 830.067 368.465Z" fill="currentcolor"/>
<path d="M830.067 631.155C820.065 641.158 820.065 657.375 830.067 667.378C840.07 677.381 856.288 677.381 866.291 667.378C876.294 657.375 876.294 641.158 866.291 631.155C856.288 621.152 840.07 621.152 830.067 631.155Z" fill="currentcolor"/>
<path d="M356.658 293.071C355.68 264.701 332.609 257.609 321.196 257.609C326.495 244.973 332.935 215.544 316.305 198.913L198.914 316.304C215.544 332.935 244.973 326.495 257.609 321.196C257.609 332.609 264.702 355.679 293.071 356.657L356.658 356.657L356.658 293.071Z" fill="currentcolor"/>
<path d="M356.658 710.326C355.68 738.695 332.609 745.787 321.196 745.787C326.495 758.423 332.935 787.853 316.305 804.483L198.914 687.092C215.544 670.462 244.973 676.902 257.609 682.201C257.609 670.788 264.702 647.717 293.071 646.739L356.658 646.739L356.658 710.326Z" fill="currentcolor"/>
<path d="M244.026 545.65C223.274 565.019 201.945 553.72 193.875 545.65C188.687 558.332 172.431 583.696 148.912 583.696L148.912 417.68C172.431 417.68 188.687 443.043 193.875 455.725C201.945 447.655 223.274 436.356 244.026 455.725L288.988 500.688L244.026 545.65Z" fill="currentcolor"/>
<path d="M752.571 545.65C773.323 565.019 794.652 553.72 802.722 545.65C807.91 558.332 824.166 583.696 847.685 583.696V417.68C824.166 417.68 807.91 443.043 802.722 455.725C794.652 447.655 773.323 436.356 752.571 455.725L707.609 500.688L752.571 545.65Z" fill="currentcolor"/>
<path d="M646.195 293.071C647.174 264.701 670.244 257.609 681.657 257.609C676.358 244.973 669.918 215.544 686.549 198.913L803.94 316.304C787.309 332.935 757.88 326.495 745.244 321.196C745.244 332.609 738.152 355.679 709.782 356.657L646.195 356.657L646.195 293.071Z" fill="currentcolor"/>
<path d="M646.195 710.326C647.174 738.695 670.244 745.787 681.657 745.787C676.358 758.423 669.918 787.853 686.549 804.483L803.94 687.092C787.309 670.462 757.88 676.902 745.244 682.201C745.244 670.788 738.152 647.717 709.782 646.739L646.195 646.739L646.195 710.326Z" fill="currentcolor"/>
<path d="M545.65 247.288C565.019 226.536 553.72 205.207 545.65 197.137C558.332 191.949 583.696 175.693 583.696 152.174L417.68 152.174C417.68 175.693 443.043 191.949 455.725 197.137C447.655 205.207 436.356 226.536 455.725 247.288L500.688 292.25L545.65 247.288Z" fill="currentcolor"/>
<path d="M545.65 756.109C565.019 776.861 553.72 798.189 545.65 806.259C558.332 811.447 583.696 827.703 583.696 851.222H417.68C417.68 827.703 443.043 811.448 455.725 806.26C447.655 798.189 436.356 776.861 455.725 756.109L500.688 711.146L545.65 756.109Z" fill="currentcolor"/>
<path d="M559.547 375.798C581.051 398.838 573.985 422.413 564.846 435.713C578.146 426.575 601.722 419.51 624.762 441.013L684.256 500.507L624.762 560.001C601.721 581.506 578.144 574.438 564.845 565.299C573.984 578.599 581.052 602.176 559.547 625.218L500.053 684.711L440.559 625.218C419.055 602.177 426.12 578.6 435.259 565.3C421.959 574.439 398.383 581.505 375.343 560.001L315.849 500.507L375.343 441.013C398.382 419.51 421.958 426.574 435.258 435.712C426.12 422.412 419.056 398.837 440.559 375.798L500.053 316.304L559.547 375.798Z" fill="currentcolor"/>
</g>
<defs>
<clipPath id="clip0_1034_4356">
<rect width="1000" height="1000" fill="currentcolor"/>
</clipPath>
</defs>
</svg>
