
<svg xmlns="http://www.w3.org/2000/svg" viewBox="0 0 1000 1000">
<g clip-path="url(#clip0_1034_4340)">
<path fill-rule="evenodd" clip-rule="evenodd" d="M883.555 55.5527C903.638 77.0705 897.033 99.0894 888.497 111.507C900.915 102.973 922.931 96.3726 944.446 116.453L999.999 172.006L944.446 227.559C922.939 247.632 900.931 241.043 888.511 232.513C897.04 244.934 903.627 266.942 883.555 288.448L837.252 334.751L883.555 381.054C903.638 402.572 897.033 424.59 888.497 437.008C900.915 428.473 922.931 421.874 944.446 441.954L999.999 497.507L944.446 553.06C922.939 573.133 900.931 566.544 888.511 558.014C897.04 570.435 903.627 592.443 883.555 613.949L834.752 662.751L883.555 711.554C903.638 733.072 897.033 755.09 888.497 767.508C900.915 758.973 922.931 752.374 944.446 772.454L999.999 828.007L944.446 883.56C922.939 903.633 900.931 897.044 888.511 888.514C897.04 900.935 903.627 922.943 883.555 944.449L828.002 1000L772.449 944.449C752.374 922.94 758.964 900.93 767.495 888.51C755.076 897.042 733.064 903.637 711.552 883.56L663.374 835.383L615.198 883.56C593.691 903.633 571.683 897.044 559.263 888.514C567.792 900.935 574.379 922.943 554.307 944.449L498.754 1000L443.201 944.449C423.126 922.94 429.716 900.93 438.247 888.51C425.828 897.042 403.816 903.637 382.304 883.56L335.375 836.632L288.448 883.56C266.941 903.633 244.933 897.044 232.513 888.514C241.042 900.935 247.629 922.943 227.557 944.449L172.004 1000L116.451 944.449C96.376 922.94 102.966 900.93 111.497 888.51C99.0777 897.042 77.0655 903.637 55.5537 883.56L0 828.007L55.5537 772.454C77.0742 752.368 99.0961 758.976 111.513 767.514C102.975 755.097 96.3644 733.075 116.451 711.554L165.253 662.751L116.451 613.949C96.376 592.44 102.966 570.43 111.497 558.01C99.0777 566.542 77.0655 573.137 55.5537 553.06L0 497.507L55.5537 441.954C77.0742 421.868 99.0961 428.476 111.513 437.014C102.975 424.597 96.3644 402.575 116.451 381.054L162.753 334.751L116.451 288.449C96.376 266.94 102.966 244.93 111.497 232.51C99.0777 241.042 77.0655 247.637 55.5537 227.56L0 172.007L55.5537 116.454C77.0742 96.3684 99.0961 102.976 111.513 111.514C102.975 99.0973 96.3644 77.0753 116.451 55.5537L172.004 0.000976562L227.557 55.5537C247.64 77.0715 241.035 99.0904 232.499 111.508C244.917 102.973 266.933 96.3736 288.448 116.454L334.75 162.756L381.054 116.454C402.574 96.3684 424.596 102.976 437.013 111.514C428.475 99.0973 421.864 77.0753 441.951 55.5537L497.504 0.000976562L553.057 55.5537C573.14 77.0715 566.535 99.0904 557.999 111.508C570.417 102.973 592.433 96.3736 613.948 116.454L662.749 165.255L711.552 116.453C733.072 96.3675 755.094 102.975 767.511 111.513C758.973 99.0964 752.362 77.0743 772.449 55.5527L828.002 0L883.555 55.5527ZM174.186 744.793C155.097 744.793 139.621 760.268 139.621 779.356C139.621 789.407 143.91 798.455 150.76 804.771C150.069 805.407 149.406 806.073 148.771 806.762C142.456 799.914 133.406 795.622 123.355 795.622C104.267 795.622 88.7912 811.098 88.791 830.187C88.791 849.276 104.266 864.751 123.355 864.751C133.406 864.751 142.456 860.46 148.771 853.612C149.406 854.301 150.069 854.966 150.76 855.602C143.91 861.918 139.621 870.966 139.621 881.017C139.621 900.106 155.097 915.581 174.186 915.581C193.274 915.581 208.75 900.106 208.75 881.017C208.75 870.966 204.461 861.918 197.611 855.602C198.302 854.966 198.965 854.301 199.601 853.612C205.915 860.46 214.965 864.751 225.016 864.751C244.104 864.751 259.58 849.275 259.58 830.187C259.58 811.098 244.104 795.622 225.016 795.622C214.965 795.622 205.915 799.914 199.601 806.762C198.965 806.073 198.302 805.407 197.611 804.771C204.461 798.455 208.75 789.407 208.75 779.356C208.75 760.268 193.274 744.793 174.186 744.793ZM500.09 852.002L477.529 753.925C470.67 760.241 466.371 769.297 466.371 779.356C466.371 789.407 470.66 798.455 477.51 804.771C476.819 805.407 476.156 806.073 475.521 806.762C469.206 799.914 460.156 795.622 450.105 795.622C431.017 795.622 415.541 811.098 415.541 830.187C415.541 849.276 431.016 864.751 450.105 864.751C460.156 864.751 469.206 860.46 475.521 853.612C476.156 854.301 476.819 854.966 477.51 855.602C470.66 861.918 466.371 870.966 466.371 881.017C466.371 900.106 481.847 915.581 500.936 915.581C520.024 915.581 535.5 900.106 535.5 881.017C535.5 870.966 531.211 861.918 524.361 855.602C525.052 854.966 525.715 854.301 526.351 853.612C532.665 860.46 541.715 864.751 551.766 864.751C570.854 864.751 586.33 849.275 586.33 830.187C586.33 811.098 570.854 795.622 551.766 795.622C541.715 795.622 532.665 799.914 526.351 806.762C525.715 806.073 525.052 805.407 524.361 804.771C531.211 798.455 535.5 789.407 535.5 779.356C535.5 768.623 530.607 759.032 522.931 752.692L500.09 852.002ZM830.184 744.793C811.095 744.793 795.619 760.268 795.619 779.356C795.619 789.407 799.908 798.455 806.758 804.771C806.067 805.407 805.404 806.073 804.769 806.762C798.455 799.914 789.404 795.622 779.354 795.622C760.265 795.622 744.789 811.098 744.789 830.187C744.789 849.276 760.265 864.751 779.354 864.751C789.404 864.751 798.455 860.46 804.769 853.612C805.404 854.301 806.067 854.966 806.758 855.602C799.908 861.918 795.619 870.966 795.619 881.017C795.619 900.106 811.095 915.581 830.184 915.581C849.273 915.581 864.748 900.106 864.748 881.017C864.748 870.966 860.459 861.918 853.609 855.602C854.3 854.966 854.963 854.301 855.599 853.612C861.913 860.46 870.963 864.751 881.014 864.751C900.103 864.751 915.578 849.275 915.578 830.187C915.578 811.098 900.102 795.622 881.014 795.622C870.963 795.622 861.913 799.914 855.599 806.762C854.963 806.073 854.3 805.407 853.609 804.771C860.459 798.455 864.748 789.407 864.748 779.356C864.748 760.268 849.272 744.793 830.184 744.793ZM691.926 534.345C666.493 540.288 640.568 544.236 614.481 546.2C633.237 567.449 650.274 590.19 665.29 614.141L749.416 748.326L615.093 664.288C591.358 649.436 568.809 632.606 547.721 614.089C546.018 640.895 542.273 667.556 536.475 693.722L554.307 711.554C574.39 733.072 567.785 755.09 559.249 767.508C571.667 758.973 593.683 752.374 615.198 772.454L663.374 820.63L711.552 772.454C733.072 752.368 755.094 758.976 767.511 767.514C758.973 755.097 752.362 733.075 772.449 711.554L821.251 662.751L772.449 613.949C752.374 592.44 758.964 570.43 767.495 558.01C755.076 566.542 733.064 573.137 711.552 553.06L692.663 534.172L691.926 534.345ZM288.448 553.06C266.941 573.133 244.933 566.544 232.513 558.014C241.042 570.435 247.629 592.443 227.557 613.949L178.754 662.751L227.557 711.554C247.64 733.072 241.035 755.09 232.499 767.508C244.917 758.973 266.933 752.374 288.448 772.454L335.375 819.381L382.304 772.454C403.824 752.368 425.846 758.976 438.263 767.514C429.725 755.097 423.114 733.075 443.201 711.554L463.22 691.534C457.766 666.402 454.197 640.822 452.514 615.104C432.694 632.123 411.589 647.629 389.419 661.379L255.854 744.212L338.769 610.779C352.451 588.762 367.867 567.791 384.785 548.093C358.609 546.135 332.594 542.181 307.074 536.217L305.628 535.879L288.448 553.06ZM174.186 414.293C155.097 414.293 139.621 429.768 139.621 448.856C139.621 458.907 143.91 467.955 150.76 474.271C150.069 474.907 149.406 475.573 148.771 476.262C142.456 469.414 133.406 465.122 123.355 465.122C104.267 465.122 88.7912 480.598 88.791 499.687C88.791 518.776 104.266 534.251 123.355 534.251C133.406 534.251 142.456 529.96 148.771 523.112C149.406 523.801 150.069 524.466 150.76 525.102C143.91 531.418 139.621 540.466 139.621 550.517C139.621 569.606 155.097 585.081 174.186 585.081C193.274 585.081 208.75 569.606 208.75 550.517C208.75 540.466 204.461 531.418 197.611 525.102C198.302 524.466 198.965 523.801 199.601 523.112C205.915 529.96 214.965 534.251 225.016 534.251C235.12 534.251 244.21 529.914 250.53 523.001L154 500.439L251.619 477.621C245.279 469.986 235.716 465.122 225.016 465.122C214.965 465.122 205.915 469.414 199.601 476.262C198.965 475.573 198.302 474.907 197.611 474.271C204.461 467.955 208.75 458.907 208.75 448.856C208.75 429.768 193.274 414.293 174.186 414.293ZM830.184 414.293C811.095 414.293 795.619 429.768 795.619 448.856C795.619 458.907 799.908 467.955 806.758 474.271C806.067 474.907 805.404 475.573 804.769 476.262C798.455 469.414 789.404 465.122 779.354 465.122C768.896 465.122 759.524 469.766 753.186 477.104L845 498.564L751.666 520.38C757.97 528.801 768.025 534.251 779.354 534.251C789.404 534.251 798.455 529.96 804.769 523.112C805.404 523.801 806.067 524.466 806.758 525.102C799.908 531.418 795.619 540.466 795.619 550.517C795.619 569.606 811.095 585.081 830.184 585.081C849.273 585.081 864.748 569.606 864.748 550.517C864.748 540.466 860.459 531.418 853.609 525.102C854.3 524.466 854.963 523.801 855.599 523.112C861.913 529.96 870.963 534.251 881.014 534.251C900.103 534.251 915.578 518.775 915.578 499.687C915.578 480.598 900.102 465.122 881.014 465.122C870.963 465.122 861.913 469.414 855.599 476.262C854.963 475.573 854.3 474.907 853.609 474.271C860.459 467.955 864.748 458.907 864.748 448.856C864.748 429.768 849.272 414.293 830.184 414.293ZM498.5 423.002C456.526 423.002 422.5 457.028 422.5 499.002C422.5 540.976 456.526 575.002 498.5 575.002C540.474 575.002 574.5 540.976 574.5 499.002C574.5 457.028 540.474 423.002 498.5 423.002ZM288.448 227.56C266.941 247.633 244.933 241.044 232.513 232.514C241.042 244.935 247.629 266.943 227.557 288.449L181.254 334.751L227.557 381.054C247.64 402.572 241.035 424.59 232.499 437.008C244.917 428.473 266.933 421.874 288.448 441.954L310.391 463.896C334.761 458.376 359.569 454.675 384.525 452.797C365.763 431.542 348.724 408.791 333.703 384.832L249.577 250.647L383.896 334.688C407.633 349.541 430.186 366.37 451.275 384.888C452.912 359.138 456.436 333.522 461.853 308.351L441.951 288.449C421.876 266.94 428.466 244.93 436.997 232.51C424.578 241.042 402.566 247.637 381.054 227.56L334.75 181.257L288.448 227.56ZM613.948 227.56C592.441 247.633 570.433 241.044 558.013 232.514C566.542 244.935 573.129 266.943 553.057 288.449L535.467 306.038C541.094 331.617 544.763 357.666 546.479 383.858C566.296 366.842 587.404 351.344 609.571 337.597L743.136 254.761L660.225 388.197C646.536 410.223 631.108 431.199 614.181 450.904C640.033 452.836 665.728 456.72 690.944 462.56L711.552 441.954C733.072 421.868 755.094 428.476 767.511 437.014C758.973 424.597 752.362 402.575 772.449 381.054L818.752 334.751L772.449 288.448C752.374 266.939 758.964 244.929 767.495 232.509C755.076 241.041 733.064 247.636 711.552 227.559L662.75 178.757L613.948 227.56ZM174.186 88.793C155.097 88.793 139.621 104.268 139.621 123.356C139.621 133.407 143.91 142.455 150.76 148.771C150.069 149.407 149.406 150.073 148.771 150.762C142.456 143.914 133.406 139.622 123.355 139.622C104.267 139.622 88.7912 155.098 88.791 174.187C88.791 193.276 104.266 208.751 123.355 208.751C133.406 208.751 142.456 204.46 148.771 197.612C149.406 198.301 150.069 198.966 150.76 199.602C143.91 205.918 139.621 214.966 139.621 225.017C139.621 244.106 155.097 259.581 174.186 259.581C193.274 259.581 208.75 244.106 208.75 225.017C208.75 214.966 204.461 205.918 197.611 199.602C198.302 198.966 198.965 198.301 199.601 197.612C205.915 204.46 214.965 208.751 225.016 208.751C244.104 208.751 259.58 193.275 259.58 174.187C259.58 155.098 244.104 139.622 225.016 139.622C214.965 139.622 205.915 143.914 199.601 150.762C198.965 150.073 198.302 149.407 197.611 148.771C204.461 142.455 208.75 133.407 208.75 123.356C208.75 104.268 193.274 88.793 174.186 88.793ZM830.184 88.792C811.095 88.792 795.619 104.267 795.619 123.355C795.619 133.406 799.908 142.455 806.758 148.771C806.067 149.406 805.404 150.072 804.769 150.761C798.455 143.913 789.404 139.621 779.354 139.621C760.265 139.621 744.789 155.097 744.789 174.186C744.789 193.275 760.265 208.75 779.354 208.75C789.404 208.75 798.455 204.459 804.769 197.611C805.404 198.3 806.067 198.965 806.758 199.601C799.908 205.917 795.619 214.965 795.619 225.016C795.619 244.105 811.095 259.58 830.184 259.58C849.273 259.58 864.748 244.105 864.748 225.016C864.748 214.965 860.459 205.917 853.609 199.601C854.3 198.965 854.963 198.3 855.599 197.611C861.913 204.459 870.963 208.75 881.014 208.75C900.103 208.75 915.578 193.274 915.578 174.186C915.578 155.097 900.102 139.621 881.014 139.621C870.963 139.621 861.913 143.913 855.599 150.761C854.963 150.072 854.3 149.406 853.609 148.771C860.459 142.455 864.748 133.406 864.748 123.355C864.748 104.267 849.272 88.7921 830.184 88.792ZM499.686 88.793C480.597 88.793 465.121 104.268 465.121 123.356C465.121 133.407 469.41 142.455 476.26 148.771C475.569 149.407 474.906 150.073 474.271 150.762C467.956 143.914 458.906 139.622 448.855 139.622C429.767 139.622 414.291 155.098 414.291 174.187C414.291 193.276 429.766 208.751 448.855 208.751C458.906 208.751 467.956 204.46 474.271 197.612C474.906 198.301 475.569 198.966 476.26 199.602C469.41 205.918 465.121 214.966 465.121 225.017C465.121 234.602 469.024 243.276 475.327 249.537L498.91 147.002L522.771 250.737C529.817 244.41 534.25 235.231 534.25 225.017C534.25 214.966 529.961 205.918 523.111 199.602C523.802 198.966 524.465 198.301 525.101 197.612C531.415 204.46 540.465 208.751 550.516 208.751C569.604 208.751 585.08 193.275 585.08 174.187C585.08 155.098 569.604 139.622 550.516 139.622C540.465 139.622 531.415 143.914 525.101 150.762C524.465 150.073 523.802 149.407 523.111 148.771C529.961 142.455 534.25 133.407 534.25 123.356C534.25 104.268 518.774 88.793 499.686 88.793Z" fill="currentColor"/>
</g>
<defs>
<clipPath id="clip0_1034_4340">
<rect width="1000" height="1000" fill="currentColor"/>

</clipPath>
</defs>
</svg>
