<svg width="14" height="14" viewBox="0 0 14 14" fill="none" xmlns="http://www.w3.org/2000/svg">
<path d="M8.75 5.83333L11.4059 4.50566C11.4948 4.46124 11.5936 4.44026 11.6929 4.44473C11.7922 4.44921 11.8887 4.47898 11.9733 4.53122C12.0578 4.58346 12.1276 4.65644 12.1761 4.74324C12.2245 4.83004 12.2499 4.92777 12.25 5.02716V8.97283C12.2499 9.07223 12.2245 9.16996 12.1761 9.25676C12.1276 9.34355 12.0578 9.41654 11.9733 9.46878C11.8887 9.52102 11.7922 9.55079 11.6929 9.55526C11.5936 9.55973 11.4948 9.53876 11.4059 9.49433L8.75 8.16666V5.83333Z" stroke="currentColor" stroke-width="1.5" stroke-linecap="round" stroke-linejoin="round"/>
<path d="M1.75 4.66667C1.75 4.35725 1.87292 4.0605 2.09171 3.84171C2.3105 3.62292 2.60725 3.5 2.91667 3.5H7.58333C7.89275 3.5 8.1895 3.62292 8.40829 3.84171C8.62708 4.0605 8.75 4.35725 8.75 4.66667V9.33333C8.75 9.64275 8.62708 9.9395 8.40829 10.1583C8.1895 10.3771 7.89275 10.5 7.58333 10.5H2.91667C2.60725 10.5 2.3105 10.3771 2.09171 10.1583C1.87292 9.9395 1.75 9.64275 1.75 9.33333V4.66667Z" stroke="currentColor" stroke-width="1.5" stroke-linecap="round" stroke-linejoin="round"/>
</svg>
