<svg xmlns="http://www.w3.org/2000/svg" fill="none" viewBox="-1 -2 32 28"><path fill="currentColor" d="M26.6928 16.4336c.9796-3.0019 2.93-9.0638 2.93-9.0638.7461-2.4402-.5794-5.9266-4.0132-7.0625-3.6252-1.2008-6.743 1.3465-7.4698 3.6779 0 0-2.6157 8.4002-3.7305 11.906-.5319 1.6712-1.8503 4.4081-4.3326 4.4081-2.0224 0-3.0617-1.8977-3.5005-3.0283L3.5619 9.2342c-.3493-.8462.0158-2.535 1.4167-3.0406 1.4957-.5372 2.4578.7145 2.707 1.3781l.7602 1.9469h3.5655L10.807 6.3604c-1.3658-2.9546-4.259-4.394-7.1257-3.339-2.3208.855-4.5539 3.7831-3.339 7.4627l3.1108 8.0017c.4722 1.2131 2.3383 5.1736 6.5551 5.1736 5.0612 0 6.9607-4.3151 8.014-7.7261.5267-1.7064 3.4163-10.9317 3.4163-10.9317.4195-1.378 2.1259-1.7748 3.1915-1.4272.7514.244 2.1102 1.2815 1.6713 2.8896-.0825.2931-2.3875 7.7173-3.2372 9.9749l3.6287-.0053Z"/><path fill="currentColor" d="M23.0645 16.4389c-.4441 1.1779-1.5694 3.7357-4.1307 3.3794-.7812 1.7292-1.429 2.7333-2.4104 3.6357 3.1951 1.5132 7.8525-.0106 9.8135-5.9355.093-.2791.2141-.6495.3563-1.0849l-3.6287.0053ZM8.4453 9.5195l2.9949 7.6735c.8954-1.1534 1.4642-3.0301 1.8346-4.359l-1.264-3.3145H8.4453Z"/></svg>
